<svg width="55" height="55" viewBox="0 0 55 55" fill="none" xmlns="http://www.w3.org/2000/svg">
<mask id="mask0_15_80" style="mask-type:alpha" maskUnits="userSpaceOnUse" x="7" y="0" width="41" height="25">
<path d="M27.7736 22.9298L27.5593 22.8282L27.345 22.9298C24.3762 24.3379 21.7334 23.4684 18.7641 21.4814C17.3652 20.5452 15.9238 19.3807 14.3638 18.1203C14.2638 18.0395 14.1633 17.9583 14.0623 17.8768C12.3928 16.5288 10.5945 15.091 8.60976 13.7586C8.04022 13.3762 7.7673 12.6834 7.82377 11.969C7.88024 11.2545 8.25916 10.61 8.88165 10.3181C12.0913 8.81319 14.053 7.22371 15.3993 5.74871C16.0705 5.01342 16.5828 4.31309 17.0155 3.68006C17.1758 3.44552 17.3215 3.22602 17.4589 3.01895C17.701 2.65433 17.9174 2.32825 18.143 2.0264C18.4876 1.56535 18.8145 1.21762 19.1993 0.970178C19.5776 0.726913 20.0395 0.56303 20.6786 0.514748C21.9906 0.415617 23.9978 0.804763 27.3988 1.95699L27.5593 2.01135L27.7197 1.95699C31.1207 0.804763 33.1279 0.415615 34.44 0.514743C35.079 0.563023 35.541 0.726905 35.9193 0.970168C36.3041 1.21761 36.6309 1.56534 36.9755 2.02639C37.2011 2.32824 37.4176 2.65432 37.6596 3.01894C37.7971 3.22601 37.9428 3.4455 38.1031 3.68004C38.5358 4.31306 39.048 5.01339 39.7192 5.74868C41.0656 7.22367 43.0273 8.81316 46.2369 10.3181C46.8594 10.6099 47.2383 11.2545 47.2948 11.969C47.3513 12.6834 47.0783 13.3762 46.5088 13.7586C44.5241 15.091 42.7257 16.5287 41.0562 17.8768C40.9552 17.9583 40.8547 18.0395 40.7548 18.1203C39.1947 19.3807 37.7534 20.5452 36.3545 21.4813C33.3852 23.4684 30.7423 24.3379 27.7736 22.9298Z" fill="#D9D9D9" stroke="black"/>
</mask>
<g mask="url(#mask0_15_80)">
<path d="M27.7736 22.9298L27.5593 22.8282L27.345 22.9298C24.3762 24.3379 21.7334 23.4684 18.7641 21.4814C17.3652 20.5452 15.9238 19.3807 14.3638 18.1203C14.2638 18.0395 14.1633 17.9583 14.0623 17.8768C12.3928 16.5288 10.5945 15.091 8.60976 13.7586C8.04022 13.3762 7.7673 12.6834 7.82377 11.969C7.88024 11.2545 8.25916 10.61 8.88165 10.3181C12.0913 8.81319 14.053 7.22371 15.3993 5.74871C16.0705 5.01342 16.5828 4.31309 17.0155 3.68006C17.1758 3.44552 17.3215 3.22602 17.4589 3.01895C17.701 2.65433 17.9174 2.32825 18.143 2.0264C18.4876 1.56535 18.8145 1.21762 19.1993 0.970178C19.5776 0.726913 20.0395 0.56303 20.6786 0.514748C21.9906 0.415617 23.9978 0.804763 27.3988 1.95699L27.5593 2.01135L27.7197 1.95699C31.1207 0.804763 33.1279 0.415615 34.44 0.514743C35.079 0.563023 35.541 0.726905 35.9193 0.970168C36.3041 1.21761 36.6309 1.56534 36.9755 2.02639C37.2011 2.32824 37.4176 2.65432 37.6596 3.01894C37.7971 3.22601 37.9428 3.4455 38.1031 3.68004C38.5358 4.31306 39.048 5.01339 39.7192 5.74868C41.0656 7.22367 43.0273 8.81316 46.2369 10.3181C46.8594 10.6099 47.2383 11.2545 47.2948 11.969C47.3513 12.6834 47.0783 13.3762 46.5088 13.7586C44.5241 15.091 42.7257 16.5287 41.0562 17.8768C40.9552 17.9583 40.8547 18.0395 40.7548 18.1203C39.1947 19.3807 37.7534 20.5452 36.3545 21.4813C33.3852 23.4684 30.7423 24.3379 27.7736 22.9298Z" fill="#B76B4F" stroke="black"/>
<path d="M38.5835 23.9352C38.5835 29.5309 33.6837 34.1297 27.5593 34.1297C21.4349 34.1297 16.535 29.5309 16.535 23.9352C16.535 18.3395 21.4349 13.7408 27.5593 13.7408C33.6837 13.7408 38.5835 18.3395 38.5835 23.9352Z" fill="#3EB32E" stroke="black"/>
<ellipse cx="27.5593" cy="25.9722" rx="9.52006" ry="10.6944" fill="#18660E"/>
<path d="M27.7736 22.9298L27.5593 22.8282L27.345 22.9298C24.3762 24.3379 21.7334 23.4684 18.7641 21.4814C17.3652 20.5452 15.9238 19.3807 14.3638 18.1203C14.2638 18.0395 14.1633 17.9583 14.0623 17.8768C12.3928 16.5288 10.5945 15.091 8.60976 13.7586C8.04022 13.3762 7.7673 12.6834 7.82377 11.969C7.88024 11.2545 8.25916 10.61 8.88165 10.3181C12.0913 8.81319 14.053 7.22371 15.3993 5.74871C16.0705 5.01342 16.5828 4.31309 17.0155 3.68006C17.1758 3.44552 17.3215 3.22602 17.4589 3.01895C17.701 2.65433 17.9174 2.32825 18.143 2.0264C18.4876 1.56535 18.8145 1.21762 19.1993 0.970178C19.5776 0.726913 20.0395 0.56303 20.6786 0.514748C21.9906 0.415617 23.9978 0.804763 27.3988 1.95699L27.5593 2.01135L27.7197 1.95699C31.1207 0.804763 33.1279 0.415615 34.44 0.514743C35.079 0.563023 35.541 0.726905 35.9193 0.970168C36.3041 1.21761 36.6309 1.56534 36.9755 2.02639C37.2011 2.32824 37.4176 2.65432 37.6596 3.01894C37.7971 3.22601 37.9428 3.4455 38.1031 3.68004C38.5358 4.31306 39.048 5.01339 39.7192 5.74868C41.0656 7.22367 43.0273 8.81316 46.2369 10.3181C46.8594 10.6099 47.2383 11.2545 47.2948 11.969C47.3513 12.6834 47.0783 13.3762 46.5088 13.7586C44.5241 15.091 42.7257 16.5287 41.0562 17.8768C40.9552 17.9583 40.8547 18.0395 40.7548 18.1203C39.1947 19.3807 37.7534 20.5452 36.3545 21.4813C33.3852 23.4684 30.7423 24.3379 27.7736 22.9298Z" stroke="black"/>
<path d="M27.4599 2.69751C27.5398 2.91399 27.5285 3.12711 27.5475 3.36318C27.5584 3.4989 27.529 3.65404 27.558 3.7868C27.5847 3.90887 27.6175 3.99107 27.6175 4.12319C27.6175 4.6415 27.6491 5.15622 27.6491 5.67703C27.6491 6.14692 27.6491 6.6168 27.6491 7.08669C27.6491 7.29968 27.6491 7.51268 27.6491 7.72567C27.6491 7.92119 27.586 8.08821 27.586 8.28989C27.586 8.5456 27.586 8.80131 27.586 9.05702C27.586 9.33109 27.5832 9.69682 27.509 9.96298C27.4468 10.186 27.3711 10.4062 27.3093 10.6287C27.2838 10.7207 27.2361 10.7706 27.1938 10.8529C27.1435 10.9505 27.1471 11.0516 27.0799 11.1413C26.9782 11.277 26.8363 11.4087 26.7524 11.556C26.6937 11.6591 26.5689 11.6851 26.5143 11.7963" stroke="#73402E" stroke-linecap="round"/>
<path d="M27.7752 10.1302C28.1669 10.4868 28.4974 10.9516 28.7733 11.4046C28.8527 11.5348 29.0066 11.7347 29.1429 11.7962C29.2395 11.8399 29.3138 11.936 29.4143 11.9564" stroke="#73402E" stroke-linecap="round"/>
<path d="M18.6326 5.85107C19.4168 6.44729 20.0918 6.83291 20.9927 7.20957C21.549 7.44218 22.0774 7.61815 22.6489 7.78053C23.2245 7.94407 23.8393 8.1373 24.444 8.15461C25.104 8.17351 25.7746 8.09555 26.4198 8.09555" stroke="#73402E" stroke-linecap="round"/>
<path d="M29.3255 8.21368C29.9208 8.21368 30.507 7.99374 31.1012 7.97742C31.3497 7.9706 31.5806 7.926 31.8244 7.87242C32.5492 7.71315 33.2836 7.76709 34.0004 7.541C34.7261 7.3121 35.4091 6.99384 36.1248 6.76002C36.3836 6.67547 36.8344 6.44607 36.9901 6.20875C37.0697 6.08736 37.2227 6.10006 37.2871 5.96921" stroke="#73402E" stroke-linecap="round"/>
</g>
<path d="M34.5751 22.9167C34.5751 26.5075 31.5103 29.037 27.5593 29.037C23.6082 29.037 20.5434 26.5075 20.5434 22.9167C20.5434 21.0787 21.3343 19.023 22.6327 17.4269C23.9311 15.8305 25.6802 14.7592 27.5593 14.7592C29.4383 14.7592 31.1874 15.8305 32.4859 17.4269C33.7842 19.023 34.5751 21.0787 34.5751 22.9167Z" fill="#3EB32E" stroke="black"/>
<mask id="mask1_15_80" style="mask-type:alpha" maskUnits="userSpaceOnUse" x="0" y="11" width="15" height="44">
<path d="M6.77505 28.2692L6.86664 28.6381C7.662 31.8413 8.71065 34.4328 9.77178 37.0551C10.0677 37.7865 10.3647 38.5203 10.6574 39.2704C12.0013 42.715 13.285 46.5685 14.0575 52.2671C14.0755 52.3998 14.1043 52.5331 14.142 52.6606C14.3327 53.305 14.4482 53.8263 14.4059 54.1699C14.3871 54.3237 14.3427 54.3839 14.3106 54.4118C14.2768 54.4413 14.1816 54.4998 13.9324 54.4998L12.5276 54.4997C12.236 54.4997 11.7149 54.4163 11.182 54.2527C10.6376 54.0856 10.1813 53.8648 9.95489 53.6456L9.60713 54.0049L9.95488 53.6456C9.89142 53.5842 9.83069 53.506 9.74931 53.3947C9.74083 53.3831 9.73202 53.371 9.7229 53.3585C9.65277 53.262 9.56391 53.1399 9.46321 53.0293C6.02209 49.2495 4.69935 45.4569 3.79388 41.393C3.54304 40.2672 3.32335 39.1123 3.09811 37.9283C2.51405 34.8582 1.89264 31.5917 0.593929 28.1254C0.45325 27.7379 0.471232 27.3091 0.643582 26.9355L0.649404 26.9228L0.654516 26.9099C1.1813 25.578 1.36924 24.5621 1.47336 23.6594C1.5068 23.3694 1.53108 23.1018 1.55438 22.8449C1.60512 22.2855 1.65122 21.7773 1.77725 21.2012C2.13139 19.5826 3.12362 17.4934 6.83746 13.2549C6.97543 13.0974 7.09245 12.915 7.18287 12.7741C7.19626 12.7532 7.20906 12.7333 7.22126 12.7144L6.81961 12.4542L7.22126 12.7144C7.56562 12.183 8.20161 11.9201 8.81767 12.0674L13.1523 13.1039C14.0631 13.3217 14.5565 14.3261 14.1977 15.1938C14.1908 15.2105 14.1834 15.2281 14.1758 15.2464C14.1218 15.3757 14.0523 15.542 14.0056 15.7126C12.8572 19.9068 11.8901 22.5683 10.8296 24.4003C9.78392 26.2067 8.64312 27.2139 7.10597 28.0822L6.77505 28.2692Z" fill="#3EB32E" stroke="black"/>
</mask>
<g mask="url(#mask1_15_80)">
<path d="M6.77505 28.2692L6.86664 28.6381C7.662 31.8413 8.71065 34.4328 9.77178 37.0551C10.0677 37.7865 10.3647 38.5203 10.6574 39.2704C12.0013 42.715 13.285 46.5685 14.0575 52.2671C14.0755 52.3998 14.1043 52.5331 14.142 52.6606C14.3327 53.305 14.4482 53.8263 14.4059 54.1699C14.3871 54.3237 14.3427 54.3839 14.3106 54.4118C14.2768 54.4413 14.1816 54.4998 13.9324 54.4998L12.5276 54.4997C12.236 54.4997 11.7149 54.4163 11.182 54.2527C10.6376 54.0856 10.1813 53.8648 9.95489 53.6456L9.60713 54.0049L9.95488 53.6456C9.89142 53.5842 9.83069 53.506 9.74931 53.3947C9.74083 53.3831 9.73202 53.371 9.7229 53.3585C9.65277 53.262 9.56391 53.1399 9.46321 53.0293C6.02209 49.2495 4.69935 45.4569 3.79388 41.393C3.54304 40.2672 3.32335 39.1123 3.09811 37.9283C2.51405 34.8582 1.89264 31.5917 0.593929 28.1254C0.45325 27.7379 0.471232 27.3091 0.643582 26.9355L0.649404 26.9228L0.654516 26.9099C1.1813 25.578 1.36924 24.5621 1.47336 23.6594C1.5068 23.3694 1.53108 23.1018 1.55438 22.8449C1.60512 22.2855 1.65122 21.7773 1.77725 21.2012C2.13139 19.5826 3.12362 17.4934 6.83746 13.2549C6.97543 13.0974 7.09245 12.915 7.18287 12.7741C7.19626 12.7532 7.20906 12.7333 7.22126 12.7144L6.81961 12.4542L7.22126 12.7144C7.56562 12.183 8.20161 11.9201 8.81767 12.0674L13.1523 13.1039C14.0631 13.3217 14.5565 14.3261 14.1977 15.1938C14.1908 15.2105 14.1834 15.2281 14.1758 15.2464C14.1218 15.3757 14.0523 15.542 14.0056 15.7126C12.8572 19.9068 11.8901 22.5683 10.8296 24.4003C9.78392 26.2067 8.64312 27.2139 7.10597 28.0822L6.77505 28.2692Z" fill="#3EB32E" stroke="black"/>
<path d="M4.00966 9.16666H15.0329L13.0287 26.9907L1.00333 19.3518L4.00966 9.16666Z" fill="#2E5B1A"/>
<path d="M2.59168 18.1134L5.38551 8.64816H15.4756L13.6233 25.1211L2.59168 18.1134Z" fill="#B76B4F" stroke="black"/>
<path d="M6.77505 28.2692L6.86664 28.6381C7.662 31.8413 8.71065 34.4328 9.77178 37.0551C10.0677 37.7865 10.3647 38.5203 10.6574 39.2704C12.0013 42.715 13.285 46.5685 14.0575 52.2671C14.0755 52.3998 14.1043 52.5331 14.142 52.6606C14.3327 53.305 14.4482 53.8263 14.4059 54.1699C14.3871 54.3237 14.3427 54.3839 14.3106 54.4118C14.2768 54.4413 14.1816 54.4998 13.9324 54.4998L12.5276 54.4997C12.236 54.4997 11.7149 54.4163 11.182 54.2527C10.6376 54.0856 10.1813 53.8648 9.95489 53.6456L9.60713 54.0049L9.95488 53.6456C9.89142 53.5842 9.83069 53.506 9.74931 53.3947C9.74083 53.3831 9.73202 53.371 9.7229 53.3585C9.65277 53.262 9.56391 53.1399 9.46321 53.0293C6.02209 49.2495 4.69935 45.4569 3.79388 41.393C3.54304 40.2672 3.32335 39.1123 3.09811 37.9283C2.51405 34.8582 1.89264 31.5917 0.593929 28.1254C0.45325 27.7379 0.471232 27.3091 0.643582 26.9355L0.649404 26.9228L0.654516 26.9099C1.1813 25.578 1.36924 24.5621 1.47336 23.6594C1.5068 23.3694 1.53108 23.1018 1.55438 22.8449C1.60512 22.2855 1.65122 21.7773 1.77725 21.2012C2.13139 19.5826 3.12362 17.4934 6.83746 13.2549C6.97543 13.0974 7.09245 12.915 7.18287 12.7741C7.19626 12.7532 7.20906 12.7333 7.22126 12.7144L6.81961 12.4542L7.22126 12.7144C7.56562 12.183 8.20161 11.9201 8.81767 12.0674L13.1523 13.1039C14.0631 13.3217 14.5565 14.3261 14.1977 15.1938C14.1908 15.2105 14.1834 15.2281 14.1758 15.2464C14.1218 15.3757 14.0523 15.542 14.0056 15.7126C12.8572 19.9068 11.8901 22.5683 10.8296 24.4003C9.78392 26.2067 8.64312 27.2139 7.10597 28.0822L6.77505 28.2692Z" stroke="black"/>
<path d="M8.51915 8.14816H18.5403V17.3148H8.51915V8.14816Z" fill="#B76B4F"/>
<path d="M9.44624 12.8773C9.89196 12.9018 10.2865 13.3921 10.5749 13.6944C11.0791 14.2228 11.5917 14.7619 12.0325 15.3472C12.1283 15.4743 12.2087 15.6038 12.2751 15.7484C12.3416 15.8931 12.2663 16.0594 12.4437 16.1496" stroke="#73402E" stroke-linecap="round"/>
</g>
<mask id="mask2_15_80" style="mask-type:alpha" maskUnits="userSpaceOnUse" x="40" y="11" width="15" height="44">
<path d="M48.225 27.9461L48.1334 28.315C47.338 31.5183 46.2893 34.1098 45.2282 36.7321C44.9323 37.4635 44.6353 38.1972 44.3426 38.9474C42.9987 42.392 41.715 46.2454 40.9425 51.944C40.9245 52.0768 40.8957 52.21 40.858 52.3376C40.6673 52.9819 40.5518 53.5032 40.5941 53.8469C40.6129 54.0006 40.6573 54.0609 40.6894 54.0888C40.7232 54.1182 40.8184 54.1768 41.0676 54.1768L42.4724 54.1767C42.764 54.1766 43.2851 54.0933 43.818 53.9296C44.3624 53.7625 44.8187 53.5417 45.0451 53.3226L45.3929 53.6818L45.0451 53.3226C45.1086 53.2611 45.1693 53.1829 45.2507 53.0716C45.2592 53.0601 45.268 53.0479 45.2771 53.0354C45.3472 52.939 45.4361 52.8168 45.5368 52.7062C48.9779 48.9265 50.3006 45.1339 51.2061 41.0699C51.457 39.9441 51.6766 38.7893 51.9019 37.6053C52.486 34.5351 53.1074 31.2687 54.4061 27.8023C54.5468 27.4149 54.5288 26.986 54.3564 26.6124L54.3506 26.5998L54.3455 26.5869C53.8187 25.255 53.6308 24.239 53.5266 23.3363C53.4932 23.0464 53.4689 22.7787 53.4456 22.5219C53.3949 21.9625 53.3488 21.4542 53.2227 20.8782C52.8686 19.2595 51.8764 17.1704 48.1625 12.9318C48.0246 12.7744 47.9076 12.592 47.8171 12.451C47.8037 12.4302 47.7909 12.4102 47.7787 12.3914L48.1804 12.1311L47.7787 12.3914C47.4344 11.8599 46.7984 11.597 46.1823 11.7444L41.8477 12.7809C40.9369 12.9987 40.4435 14.0031 40.8023 14.8707C40.8092 14.8875 40.8166 14.9051 40.8242 14.9234C40.8782 15.0526 40.9477 15.2189 40.9944 15.3895C42.1428 19.5837 43.1099 22.2452 44.1704 24.0772C45.2161 25.8836 46.3569 26.8908 47.894 27.7592L48.225 27.9461Z" fill="#3EB32E" stroke="black"/>
</mask>
<g mask="url(#mask2_15_80)">
<path d="M48.225 27.9461L48.1334 28.315C47.338 31.5183 46.2893 34.1098 45.2282 36.7321C44.9323 37.4635 44.6353 38.1972 44.3426 38.9474C42.9987 42.392 41.715 46.2454 40.9425 51.944C40.9245 52.0768 40.8957 52.21 40.858 52.3376C40.6673 52.9819 40.5518 53.5032 40.5941 53.8469C40.6129 54.0006 40.6573 54.0609 40.6894 54.0888C40.7232 54.1182 40.8184 54.1768 41.0676 54.1768L42.4724 54.1767C42.764 54.1766 43.2851 54.0933 43.818 53.9296C44.3624 53.7625 44.8187 53.5417 45.0451 53.3226L45.3929 53.6818L45.0451 53.3226C45.1086 53.2611 45.1693 53.1829 45.2507 53.0716C45.2592 53.0601 45.268 53.0479 45.2771 53.0354C45.3472 52.939 45.4361 52.8168 45.5368 52.7062C48.9779 48.9265 50.3006 45.1339 51.2061 41.0699C51.457 39.9441 51.6766 38.7893 51.9019 37.6053C52.486 34.5351 53.1074 31.2687 54.4061 27.8023C54.5468 27.4149 54.5288 26.986 54.3564 26.6124L54.3506 26.5998L54.3455 26.5869C53.8187 25.255 53.6308 24.239 53.5266 23.3363C53.4932 23.0464 53.4689 22.7787 53.4456 22.5219C53.3949 21.9625 53.3488 21.4542 53.2227 20.8782C52.8686 19.2595 51.8764 17.1704 48.1625 12.9318C48.0246 12.7744 47.9076 12.592 47.8171 12.451C47.8037 12.4302 47.7909 12.4102 47.7787 12.3914L48.1804 12.1311L47.7787 12.3914C47.4344 11.8599 46.7984 11.597 46.1823 11.7444L41.8477 12.7809C40.9369 12.9987 40.4435 14.0031 40.8023 14.8707C40.8092 14.8875 40.8166 14.9051 40.8242 14.9234C40.8782 15.0526 40.9477 15.2189 40.9944 15.3895C42.1428 19.5837 43.1099 22.2452 44.1704 24.0772C45.2161 25.8836 46.3569 26.8908 47.894 27.7592L48.225 27.9461Z" fill="#3EB32E" stroke="black"/>
<path d="M50.9903 8.8436H39.9671L41.9713 26.6677L53.9967 19.0288L50.9903 8.8436Z" fill="#2E5B1A"/>
<path d="M52.4083 17.7903L49.6145 8.32507H39.5244L41.3767 24.798L52.4083 17.7903Z" fill="#B76B4F" stroke="black"/>
<path d="M48.225 27.9461L48.1334 28.315C47.338 31.5183 46.2893 34.1098 45.2282 36.7321C44.9323 37.4635 44.6353 38.1972 44.3426 38.9474C42.9987 42.392 41.715 46.2454 40.9425 51.944C40.9245 52.0768 40.8957 52.21 40.858 52.3376C40.6673 52.9819 40.5518 53.5032 40.5941 53.8469C40.6129 54.0006 40.6573 54.0609 40.6894 54.0888C40.7232 54.1182 40.8184 54.1768 41.0676 54.1768L42.4724 54.1767C42.764 54.1766 43.2851 54.0933 43.818 53.9296C44.3624 53.7625 44.8187 53.5417 45.0451 53.3226L45.3929 53.6818L45.0451 53.3226C45.1086 53.2611 45.1693 53.1829 45.2507 53.0716C45.2592 53.0601 45.268 53.0479 45.2771 53.0354C45.3472 52.939 45.4361 52.8168 45.5368 52.7062C48.9779 48.9265 50.3006 45.1339 51.2061 41.0699C51.457 39.9441 51.6766 38.7893 51.9019 37.6053C52.486 34.5351 53.1074 31.2687 54.4061 27.8023C54.5468 27.4149 54.5288 26.986 54.3564 26.6124L54.3506 26.5998L54.3455 26.5869C53.8187 25.255 53.6308 24.239 53.5266 23.3363C53.4932 23.0464 53.4689 22.7787 53.4456 22.5219C53.3949 21.9625 53.3488 21.4542 53.2227 20.8782C52.8686 19.2595 51.8764 17.1704 48.1625 12.9318C48.0246 12.7744 47.9076 12.592 47.8171 12.451C47.8037 12.4302 47.7909 12.4102 47.7787 12.3914L48.1804 12.1311L47.7787 12.3914C47.4344 11.8599 46.7984 11.597 46.1823 11.7444L41.8477 12.7809C40.9369 12.9987 40.4435 14.0031 40.8023 14.8707C40.8092 14.8875 40.8166 14.9051 40.8242 14.9234C40.8782 15.0526 40.9477 15.2189 40.9944 15.3895C42.1428 19.5837 43.1099 22.2452 44.1704 24.0772C45.2161 25.8836 46.3569 26.8908 47.894 27.7592L48.225 27.9461Z" stroke="black"/>
<path d="M46.4809 7.82507H36.4597V16.9917H46.4809V7.82507Z" fill="#B76B4F"/>
<path d="M45.5538 12.5543C45.108 12.5788 44.7135 13.069 44.4251 13.3713C43.9209 13.8997 43.4083 14.4389 42.9675 15.0241C42.8717 15.1513 42.7913 15.2807 42.7249 15.4253C42.6584 15.57 42.7337 15.7363 42.5563 15.8265" stroke="#73402E" stroke-linecap="round"/>
</g>
</svg>
