<svg width="55" height="55" viewBox="0 0 55 55" fill="none" xmlns="http://www.w3.org/2000/svg">
<mask id="mask0_15_168" style="mask-type:alpha" maskUnits="userSpaceOnUse" x="7" y="2" width="42" height="25">
<path d="M26.1288 24.7134L25.9572 24.6039L25.7507 24.6498C22.4138 25.3904 19.8545 24.1904 17.2325 21.9768C15.9167 20.8659 14.6062 19.5173 13.1838 18.0526L13.1733 18.0418C11.7594 16.5858 10.2413 15.0224 8.5283 13.5067C8.00795 13.0463 7.87228 12.2858 8.09791 11.5475C8.32363 10.8089 8.87604 10.2088 9.58734 10.0423C13.0436 9.23306 15.2874 8.15173 16.9119 7.07528C17.7217 6.53869 18.3698 6.00843 18.928 5.52689C19.0998 5.37865 19.2601 5.23778 19.4126 5.10381C19.7652 4.79402 20.0758 4.52109 20.3899 4.27903C20.8283 3.9412 21.234 3.6964 21.6859 3.54909C22.1348 3.40275 22.6608 3.34247 23.348 3.41833C24.7483 3.57292 26.7574 4.28376 30.0117 5.89231L30.1426 5.95703L30.292 5.9395C34.0052 5.50382 36.1755 5.4965 37.5406 5.80743C38.2106 5.96002 38.6723 6.18656 39.0252 6.46787C39.3804 6.75105 39.6507 7.10965 39.9111 7.56509C40.0976 7.89143 40.2676 8.24525 40.4604 8.64685C40.5439 8.82053 40.6316 9.00316 40.7268 9.19636C41.036 9.82391 41.4076 10.5258 41.9263 11.286C42.9668 12.8111 44.5795 14.5416 47.434 16.4131C48.0215 16.7983 48.2741 17.5339 48.1639 18.2919C48.0538 19.0496 47.599 19.7108 46.9174 19.9689C44.6734 20.8185 42.5895 21.7756 40.6486 22.6669L40.6344 22.6735C38.6821 23.5701 36.8836 24.3953 35.183 24.9985C31.7945 26.2003 28.9024 26.4827 26.1288 24.7134Z" fill="#D9D9D9" stroke="black"/>
</mask>
<g mask="url(#mask0_15_168)">
<path d="M26.1288 24.7134L25.9572 24.6039L25.7507 24.6498C22.4138 25.3904 19.8545 24.1904 17.2325 21.9768C15.9167 20.8659 14.6062 19.5173 13.1838 18.0526L13.1733 18.0418C11.7594 16.5858 10.2413 15.0224 8.5283 13.5067C8.00795 13.0463 7.87228 12.2858 8.09791 11.5475C8.32363 10.8089 8.87604 10.2088 9.58734 10.0423C13.0436 9.23306 15.2874 8.15173 16.9119 7.07528C17.7217 6.53869 18.3698 6.00843 18.928 5.52689C19.0998 5.37865 19.2601 5.23778 19.4126 5.10381C19.7652 4.79402 20.0758 4.52109 20.3899 4.27903C20.8283 3.9412 21.234 3.6964 21.6859 3.54909C22.1348 3.40275 22.6608 3.34247 23.348 3.41833C24.7483 3.57292 26.7574 4.28376 30.0117 5.89231L30.1426 5.95703L30.292 5.9395C34.0052 5.50382 36.1755 5.4965 37.5406 5.80743C38.2106 5.96002 38.6723 6.18656 39.0252 6.46787C39.3804 6.75105 39.6507 7.10965 39.9111 7.56509C40.0976 7.89143 40.2676 8.24525 40.4604 8.64685C40.5439 8.82053 40.6316 9.00316 40.7268 9.19636C41.036 9.82391 41.4076 10.5258 41.9263 11.286C42.9668 12.8111 44.5795 14.5416 47.434 16.4131C48.0215 16.7983 48.2741 17.5339 48.1639 18.2919C48.0538 19.0496 47.599 19.7108 46.9174 19.9689C44.6734 20.8185 42.5895 21.7756 40.6486 22.6669L40.6344 22.6735C38.6821 23.5701 36.8836 24.3953 35.183 24.9985C31.7945 26.2003 28.9024 26.4827 26.1288 24.7134Z" fill="#B76B4F" stroke="black"/>
<path d="M37.1958 27.5604C36.0847 32.5102 30.1135 35.8383 23.6787 34.7551C17.2439 33.6719 13.1471 28.649 14.2581 23.6992C15.3691 18.7494 21.3403 15.4214 27.7752 16.5046C34.21 17.5878 38.3068 22.6106 37.1958 27.5604Z" fill="#3EB32E" stroke="black"/>
<ellipse cx="10.0206" cy="9.85229" rx="10.0206" ry="9.85229" transform="matrix(0.986126 0.165999 -0.219007 0.975723 17.5921 16.1844)" fill="#18660E"/>
<path d="M26.1288 24.7134L25.9572 24.6039L25.7507 24.6498C22.4138 25.3904 19.8545 24.1904 17.2325 21.9768C15.9167 20.8659 14.6062 19.5173 13.1838 18.0526L13.1733 18.0418C11.7594 16.5858 10.2413 15.0224 8.5283 13.5067C8.00795 13.0463 7.87228 12.2858 8.09791 11.5475C8.32363 10.8089 8.87604 10.2088 9.58734 10.0423C13.0436 9.23306 15.2874 8.15173 16.9119 7.07528C17.7217 6.53869 18.3698 6.00843 18.928 5.52689C19.0998 5.37865 19.2601 5.23778 19.4126 5.10381C19.7652 4.79402 20.0758 4.52109 20.3899 4.27903C20.8283 3.9412 21.234 3.6964 21.6859 3.54909C22.1348 3.40275 22.6608 3.34247 23.348 3.41833C24.7483 3.57292 26.7574 4.28376 30.0117 5.89231L30.1426 5.95703L30.292 5.9395C34.0052 5.50382 36.1755 5.4965 37.5406 5.80743C38.2106 5.96002 38.6723 6.18656 39.0252 6.46787C39.3804 6.75105 39.6507 7.10965 39.9111 7.56509C40.0976 7.89143 40.2676 8.24525 40.4604 8.64685C40.5439 8.82053 40.6316 9.00316 40.7268 9.19636C41.036 9.82391 41.4076 10.5258 41.9263 11.286C42.9668 12.8111 44.5795 14.5416 47.434 16.4131C48.0215 16.7983 48.2741 17.5339 48.1639 18.2919C48.0538 19.0496 47.599 19.7108 46.9174 19.9689C44.6734 20.8185 42.5895 21.7756 40.6486 22.6669L40.6344 22.6735C38.6821 23.5701 36.8836 24.3953 35.183 24.9985C31.7945 26.2003 28.9024 26.4827 26.1288 24.7134Z" stroke="black"/>
<path d="M29.9088 6.52216C29.948 6.73071 29.8933 6.92031 29.8654 7.13583C29.8493 7.25973 29.7875 7.39404 29.7908 7.51845C29.7939 7.63284 29.8114 7.71247 29.7847 7.83123C29.6802 8.29713 29.609 8.76532 29.504 9.23346C29.4091 9.65584 29.3143 10.0782 29.2195 10.5006C29.1766 10.6921 29.1336 10.8835 29.0906 11.075C29.0512 11.2507 28.952 11.3898 28.9113 11.5711C28.8597 11.801 28.8082 12.0308 28.7566 12.2607C28.7013 12.507 28.6245 12.8353 28.4938 13.0616C28.3843 13.2512 28.2612 13.4359 28.1523 13.6251C28.1072 13.7034 28.0477 13.7399 27.9871 13.8065C27.9152 13.8854 27.8986 13.9769 27.8107 14.0458C27.6777 14.15 27.5039 14.2436 27.3871 14.3613C27.3053 14.4438 27.1706 14.4454 27.0915 14.5357" stroke="#73402E" stroke-linecap="round"/>
<path d="M28.7363 13.2585C29.071 13.6474 29.3203 14.123 29.5153 14.5784C29.5714 14.7093 29.6908 14.9158 29.8198 14.9949C29.9114 15.0511 29.9691 15.1504 30.0693 15.1864" stroke="#73402E" stroke-linecap="round"/>
<path d="M20.11 7.81445C20.8036 8.4874 21.4264 8.95197 22.2856 9.44796C22.8161 9.75425 23.3291 10.0048 23.8895 10.2506C24.4539 10.4981 25.0531 10.7793 25.6773 10.9005C26.3586 11.0328 27.0703 11.0799 27.7401 11.1926" stroke="#73402E" stroke-linecap="round"/>
<path d="M30.7323 11.8065C31.3501 11.9105 32.003 11.8153 32.623 11.9044C32.8823 11.9417 33.131 11.942 33.3949 11.9364C34.1793 11.9199 34.9308 12.0967 35.7204 12.0187C36.5198 11.9397 37.293 11.773 38.083 11.6879C38.3687 11.6571 38.8829 11.5296 39.0924 11.3435C39.1995 11.2483 39.3558 11.2865 39.449 11.1801" stroke="#73402E" stroke-linecap="round"/>
</g>
<path d="M35.5699 24.8969C35.5699 26.5178 34.7756 27.8929 33.4446 28.8784C32.1066 29.8691 30.2289 30.4593 28.1226 30.4593C26.0163 30.4593 24.1387 29.8691 22.8006 28.8784C21.4696 27.8929 20.6754 26.5178 20.6754 24.8969C20.6754 23.2473 21.4968 21.3826 22.8675 19.9232C24.2339 18.4684 26.0961 17.4692 28.1226 17.4692C30.1491 17.4692 32.0113 18.4684 33.3777 19.9232C34.7484 21.3826 35.5699 23.2473 35.5699 24.8969Z" fill="#3EB32E" stroke="black"/>
<mask id="mask1_15_168" style="mask-type:alpha" maskUnits="userSpaceOnUse" x="0" y="11" width="16" height="41">
<path d="M7.55417 26.3219L7.17778 26.506L7.29327 26.9088C8.13636 29.8494 9.2487 32.2298 10.3711 34.6319C10.6821 35.2974 10.9939 35.9646 11.3009 36.6458C12.7189 39.792 14.0722 43.3059 14.8888 48.4994C14.9125 48.6498 14.9499 48.7997 14.9983 48.9421C15.0929 49.2211 15.1722 49.4808 15.2207 49.7142C15.2702 49.9521 15.2805 50.1295 15.2616 50.2534C15.2446 50.3647 15.2099 50.4053 15.1769 50.4298C15.1313 50.4635 15.0115 50.5212 14.7321 50.5211L13.2467 50.521C12.9307 50.521 12.3819 50.4449 11.8217 50.298C11.25 50.148 10.7566 49.9472 10.4996 49.743C10.4281 49.6862 10.3576 49.6101 10.2638 49.5007C10.2514 49.4863 10.2384 49.4709 10.2247 49.4549C10.1455 49.3617 10.046 49.2446 9.93769 49.1413C6.31695 45.6884 4.92905 42.2296 3.9769 38.5248C3.71428 37.5029 3.48353 36.4525 3.24665 35.3742C2.62854 32.5604 1.96867 29.5566 0.591995 26.3744C0.454575 26.0463 0.471086 25.6859 0.641738 25.3655L0.648913 25.3521L0.655254 25.3382C1.21582 24.1108 1.41689 23.1718 1.52812 22.3374C1.56442 22.0651 1.59043 21.8166 1.61522 21.5797C1.66831 21.0724 1.71582 20.6184 1.84684 20.0988C2.21428 18.6415 3.2482 16.7406 7.16874 12.8635C7.31149 12.7223 7.4409 12.5508 7.54021 12.4191C7.56369 12.388 7.58548 12.3591 7.60538 12.3334C7.96516 11.868 8.65158 11.608 9.34537 11.7517L13.9288 12.7009C14.9547 12.9133 15.3724 13.8151 15.0617 14.5045L15.5176 14.7099L15.0617 14.5045C15.0496 14.5314 15.0356 14.5615 15.0204 14.5942C14.9605 14.7228 14.8821 14.8911 14.8297 15.0567C13.6197 18.878 12.6016 21.2972 11.4871 22.9612C10.3886 24.6015 9.18562 25.5237 7.55417 26.3219Z" fill="#3EB32E" stroke="black"/>
</mask>
<g mask="url(#mask1_15_168)">
<path d="M7.55417 26.3219L7.17778 26.506L7.29327 26.9088C8.13636 29.8494 9.2487 32.2298 10.3711 34.6319C10.6821 35.2974 10.9939 35.9646 11.3009 36.6458C12.7189 39.792 14.0722 43.3059 14.8888 48.4994C14.9125 48.6498 14.9499 48.7997 14.9983 48.9421C15.0929 49.2211 15.1722 49.4808 15.2207 49.7142C15.2702 49.9521 15.2805 50.1295 15.2616 50.2534C15.2446 50.3647 15.2099 50.4053 15.1769 50.4298C15.1313 50.4635 15.0115 50.5212 14.7321 50.5211L13.2467 50.521C12.9307 50.521 12.3819 50.4449 11.8217 50.298C11.25 50.148 10.7566 49.9472 10.4996 49.743C10.4281 49.6862 10.3576 49.6101 10.2638 49.5007C10.2514 49.4863 10.2384 49.4709 10.2247 49.4549C10.1455 49.3617 10.046 49.2446 9.93769 49.1413C6.31695 45.6884 4.92905 42.2296 3.9769 38.5248C3.71428 37.5029 3.48353 36.4525 3.24665 35.3742C2.62854 32.5604 1.96867 29.5566 0.591995 26.3744C0.454575 26.0463 0.471086 25.6859 0.641738 25.3655L0.648913 25.3521L0.655254 25.3382C1.21582 24.1108 1.41689 23.1718 1.52812 22.3374C1.56442 22.0651 1.59043 21.8166 1.61522 21.5797C1.66831 21.0724 1.71582 20.6184 1.84684 20.0988C2.21428 18.6415 3.2482 16.7406 7.16874 12.8635C7.31149 12.7223 7.4409 12.5508 7.54021 12.4191C7.56369 12.388 7.58548 12.3591 7.60538 12.3334C7.96516 11.868 8.65158 11.608 9.34537 11.7517L13.9288 12.7009C14.9547 12.9133 15.3724 13.8151 15.0617 14.5045L15.5176 14.7099L15.0617 14.5045C15.0496 14.5314 15.0356 14.5615 15.0204 14.5942C14.9605 14.7228 14.8821 14.8911 14.8297 15.0567C13.6197 18.878 12.6016 21.2972 11.4871 22.9612C10.3886 24.6015 9.18562 25.5237 7.55417 26.3219Z" fill="#3EB32E" stroke="black"/>
<path d="M4.23981 9.05115H15.8958L13.7765 25.3729L1.06091 18.3779L4.23981 9.05115Z" fill="#2E5B1A"/>
<path d="M2.72916 17.2094L5.65725 8.6185H16.3863L14.4347 23.6487L2.72916 17.2094Z" fill="#B76B4F" stroke="black"/>
<path d="M7.55417 26.3219L7.17778 26.506L7.29327 26.9088C8.13636 29.8494 9.2487 32.2298 10.3711 34.6319C10.6821 35.2974 10.9939 35.9646 11.3009 36.6458C12.7189 39.792 14.0722 43.3059 14.8888 48.4994C14.9125 48.6498 14.9499 48.7997 14.9983 48.9421C15.0929 49.2211 15.1722 49.4808 15.2207 49.7142C15.2702 49.9521 15.2805 50.1295 15.2616 50.2534C15.2446 50.3647 15.2099 50.4053 15.1769 50.4298C15.1313 50.4635 15.0115 50.5212 14.7321 50.5211L13.2467 50.521C12.9307 50.521 12.3819 50.4449 11.8217 50.298C11.25 50.148 10.7566 49.9472 10.4996 49.743C10.4281 49.6862 10.3576 49.6101 10.2638 49.5007C10.2514 49.4863 10.2384 49.4709 10.2247 49.4549C10.1455 49.3617 10.046 49.2446 9.93769 49.1413C6.31695 45.6884 4.92905 42.2296 3.9769 38.5248C3.71428 37.5029 3.48353 36.4525 3.24665 35.3742C2.62854 32.5604 1.96867 29.5566 0.591995 26.3744C0.454575 26.0463 0.471086 25.6859 0.641738 25.3655L0.648913 25.3521L0.655254 25.3382C1.21582 24.1108 1.41689 23.1718 1.52812 22.3374C1.56442 22.0651 1.59043 21.8166 1.61522 21.5797C1.66831 21.0724 1.71582 20.6184 1.84684 20.0988C2.21428 18.6415 3.2482 16.7406 7.16874 12.8635C7.31149 12.7223 7.4409 12.5508 7.54021 12.4191C7.56369 12.388 7.58548 12.3591 7.60538 12.3334C7.96516 11.868 8.65158 11.608 9.34537 11.7517L13.9288 12.7009C14.9547 12.9133 15.3724 13.8151 15.0617 14.5045L15.5176 14.7099L15.0617 14.5045C15.0496 14.5314 15.0356 14.5615 15.0204 14.5942C14.9605 14.7228 14.8821 14.8911 14.8297 15.0567C13.6197 18.878 12.6016 21.2972 11.4871 22.9612C10.3886 24.6015 9.18562 25.5237 7.55417 26.3219Z" stroke="black"/>
<path d="M9.00815 8.1185H19.6045V16.5125H9.00815V8.1185Z" fill="#B76B4F"/>
<path d="M9.98845 12.4491C10.4598 12.4715 10.8769 12.9204 11.1819 13.1972C11.715 13.6811 12.257 14.1748 12.7232 14.7107C12.8245 14.8272 12.9095 14.9457 12.9797 15.0781C13.05 15.2106 12.9703 15.3629 13.158 15.4455" stroke="#73402E" stroke-linecap="round"/>
</g>
<mask id="mask2_15_168" style="mask-type:alpha" maskUnits="userSpaceOnUse" x="37" y="15" width="17" height="40">
<path d="M45.9014 30.3007L46.2778 30.4849L46.1623 30.8877C45.3193 33.8282 44.2069 36.2087 43.0845 38.6107C42.7735 39.2763 42.4617 39.9435 42.1547 40.6247C40.7367 43.7708 39.3834 47.2847 38.5668 52.4782C38.5432 52.6287 38.5057 52.7786 38.4574 52.921C38.3627 53.1999 38.2835 53.4597 38.2349 53.693C38.1854 53.9309 38.1751 54.1083 38.194 54.2323C38.211 54.3435 38.2457 54.3842 38.2788 54.4086C38.3243 54.4424 38.4441 54.5 38.7235 54.5L40.2089 54.4999C40.5249 54.4999 41.0737 54.4237 41.6339 54.2768C42.2056 54.1268 42.699 53.926 42.956 53.7219C43.0275 53.6651 43.098 53.589 43.1918 53.4796C43.2042 53.4651 43.2172 53.4498 43.2309 53.4337C43.3101 53.3405 43.4096 53.2235 43.5179 53.1202C47.1387 49.6673 48.5266 46.2084 49.4787 42.5036C49.7413 41.4818 49.9721 40.4314 50.209 39.353C50.8271 36.5393 51.4869 33.5354 52.8636 30.3532C53.001 30.0251 52.9845 29.6647 52.8139 29.3444L52.8067 29.3309L52.8004 29.317C52.2398 28.0896 52.0387 27.1507 51.9275 26.3163C51.8912 26.044 51.8652 25.7955 51.8404 25.5586C51.7873 25.0512 51.7398 24.5973 51.6088 24.0776C51.2413 22.6203 50.2074 20.7195 46.2869 16.8423C46.1441 16.7012 46.0147 16.5296 45.9154 16.398C45.8919 16.3669 45.8701 16.338 45.8502 16.3122C45.4905 15.8468 44.804 15.5869 44.1102 15.7306L39.5268 16.6797C38.5009 16.8921 38.0832 17.7939 38.3939 18.4834L37.938 18.6888L38.3939 18.4834C38.406 18.5102 38.42 18.5404 38.4352 18.573C38.4951 18.7016 38.5735 18.8699 38.6259 19.0355C39.8359 22.8569 40.854 25.276 41.9685 26.9401C43.0671 28.5803 44.27 29.5026 45.9014 30.3007Z" fill="#3EB32E" stroke="black"/>
</mask>
<g mask="url(#mask2_15_168)">
<path d="M45.9014 30.3007L46.2778 30.4849L46.1623 30.8877C45.3193 33.8282 44.2069 36.2087 43.0845 38.6107C42.7735 39.2763 42.4617 39.9435 42.1547 40.6247C40.7367 43.7708 39.3834 47.2847 38.5668 52.4782C38.5432 52.6287 38.5057 52.7786 38.4574 52.921C38.3627 53.1999 38.2835 53.4597 38.2349 53.693C38.1854 53.9309 38.1751 54.1083 38.194 54.2323C38.211 54.3435 38.2457 54.3842 38.2788 54.4086C38.3243 54.4424 38.4441 54.5 38.7235 54.5L40.2089 54.4999C40.5249 54.4999 41.0737 54.4237 41.6339 54.2768C42.2056 54.1268 42.699 53.926 42.956 53.7219C43.0275 53.6651 43.098 53.589 43.1918 53.4796C43.2042 53.4651 43.2172 53.4498 43.2309 53.4337C43.3101 53.3405 43.4096 53.2235 43.5179 53.1202C47.1387 49.6673 48.5266 46.2084 49.4787 42.5036C49.7413 41.4818 49.9721 40.4314 50.209 39.353C50.8271 36.5393 51.4869 33.5354 52.8636 30.3532C53.001 30.0251 52.9845 29.6647 52.8139 29.3444L52.8067 29.3309L52.8004 29.317C52.2398 28.0896 52.0387 27.1507 51.9275 26.3163C51.8912 26.044 51.8652 25.7955 51.8404 25.5586C51.7873 25.0512 51.7398 24.5973 51.6088 24.0776C51.2413 22.6203 50.2074 20.7195 46.2869 16.8423C46.1441 16.7012 46.0147 16.5296 45.9154 16.398C45.8919 16.3669 45.8701 16.338 45.8502 16.3122C45.4905 15.8468 44.804 15.5869 44.1102 15.7306L39.5268 16.6797C38.5009 16.8921 38.0832 17.7939 38.3939 18.4834L37.938 18.6888L38.3939 18.4834C38.406 18.5102 38.42 18.5404 38.4352 18.573C38.4951 18.7016 38.5735 18.8699 38.6259 19.0355C39.8359 22.8569 40.854 25.276 41.9685 26.9401C43.0671 28.5803 44.27 29.5026 45.9014 30.3007Z" fill="#3EB32E" stroke="black"/>
<path d="M49.2158 13.03H37.5599L39.6791 29.3517L52.3947 22.3567L49.2158 13.03Z" fill="#2E5B1A"/>
<path d="M50.7265 21.1882L47.7984 12.5973H37.0694L39.0209 27.6276L50.7265 21.1882Z" fill="#B76B4F" stroke="black"/>
<path d="M45.9014 30.3007L46.2778 30.4849L46.1623 30.8877C45.3193 33.8282 44.2069 36.2087 43.0845 38.6107C42.7735 39.2763 42.4617 39.9435 42.1547 40.6247C40.7367 43.7708 39.3834 47.2847 38.5668 52.4782C38.5432 52.6287 38.5057 52.7786 38.4574 52.921C38.3627 53.1999 38.2835 53.4597 38.2349 53.693C38.1854 53.9309 38.1751 54.1083 38.194 54.2323C38.211 54.3435 38.2457 54.3842 38.2788 54.4086C38.3243 54.4424 38.4441 54.5 38.7235 54.5L40.2089 54.4999C40.5249 54.4999 41.0737 54.4237 41.6339 54.2768C42.2056 54.1268 42.699 53.926 42.956 53.7219C43.0275 53.6651 43.098 53.589 43.1918 53.4796C43.2042 53.4651 43.2172 53.4498 43.2309 53.4337C43.3101 53.3405 43.4096 53.2235 43.5179 53.1202C47.1387 49.6673 48.5266 46.2084 49.4787 42.5036C49.7413 41.4818 49.9721 40.4314 50.209 39.353C50.8271 36.5393 51.4869 33.5354 52.8636 30.3532C53.001 30.0251 52.9845 29.6647 52.8139 29.3444L52.8067 29.3309L52.8004 29.317C52.2398 28.0896 52.0387 27.1507 51.9275 26.3163C51.8912 26.044 51.8652 25.7955 51.8404 25.5586C51.7873 25.0512 51.7398 24.5973 51.6088 24.0776C51.2413 22.6203 50.2074 20.7195 46.2869 16.8423C46.1441 16.7012 46.0147 16.5296 45.9154 16.398C45.8919 16.3669 45.8701 16.338 45.8502 16.3122C45.4905 15.8468 44.804 15.5869 44.1102 15.7306L39.5268 16.6797C38.5009 16.8921 38.0832 17.7939 38.3939 18.4834L37.938 18.6888L38.3939 18.4834C38.406 18.5102 38.42 18.5404 38.4352 18.573C38.4951 18.7016 38.5735 18.8699 38.6259 19.0355C39.8359 22.8569 40.854 25.276 41.9685 26.9401C43.0671 28.5803 44.27 29.5026 45.9014 30.3007Z" stroke="black"/>
<path d="M44.4475 12.0973H33.8511V20.4914H44.4475V12.0973Z" fill="#B76B4F"/>
<path d="M43.4672 16.4279C42.9959 16.4503 42.5787 16.8992 42.2737 17.1761C41.7406 17.66 41.1986 18.1537 40.7324 18.6896C40.6311 18.806 40.5461 18.9245 40.4759 19.057C40.4056 19.1894 40.4853 19.3418 40.2976 19.4243" stroke="#73402E" stroke-linecap="round"/>
</g>
</svg>
