<svg width="55" height="55" viewBox="0 0 55 55" fill="none" xmlns="http://www.w3.org/2000/svg">
<mask id="mask0_15_284" style="mask-type:alpha" maskUnits="userSpaceOnUse" x="6" y="2" width="42" height="25">
<path d="M28.8712 24.7134L29.0428 24.6039L29.2493 24.6498C32.5862 25.3904 35.1455 24.1904 37.7675 21.9768C39.0833 20.8659 40.3938 19.5173 41.8162 18.0526L41.8267 18.0418C43.2406 16.5858 44.7587 15.0224 46.4717 13.5067C46.9921 13.0463 47.1277 12.2858 46.9021 11.5475C46.6764 10.8089 46.124 10.2088 45.4127 10.0423C41.9564 9.23306 39.7126 8.15173 38.0881 7.07528C37.2783 6.53869 36.6302 6.00843 36.072 5.52689C35.9002 5.37865 35.7399 5.23778 35.5874 5.10381C35.2348 4.79402 34.9242 4.52109 34.6101 4.27903C34.1717 3.9412 33.766 3.6964 33.3141 3.54909C32.8652 3.40275 32.3392 3.34247 31.652 3.41833C30.2517 3.57292 28.2426 4.28376 24.9883 5.89231L24.8574 5.95703L24.708 5.9395C20.9948 5.50382 18.8245 5.4965 17.4594 5.80743C16.7894 5.96002 16.3277 6.18656 15.9748 6.46787C15.6196 6.75105 15.3493 7.10965 15.0889 7.56509C14.9024 7.89143 14.7324 8.24525 14.5396 8.64685C14.4561 8.82053 14.3684 9.00316 14.2732 9.19636C13.964 9.82391 13.5924 10.5258 13.0737 11.286C12.0332 12.8111 10.4205 14.5416 7.56595 16.4131C6.97848 16.7983 6.72591 17.5339 6.83609 18.2919C6.94623 19.0496 7.40101 19.7108 8.08264 19.9689C10.3266 20.8185 12.4105 21.7756 14.3514 22.6669L14.3656 22.6735C16.3179 23.5701 18.1164 24.3953 19.817 24.9985C23.2055 26.2003 26.0976 26.4827 28.8712 24.7134Z" fill="#D9D9D9" stroke="black"/>
</mask>
<g mask="url(#mask0_15_284)">
<path d="M28.8712 24.7134L29.0428 24.6039L29.2493 24.6498C32.5862 25.3904 35.1455 24.1904 37.7675 21.9768C39.0833 20.8659 40.3938 19.5173 41.8162 18.0526L41.8267 18.0418C43.2406 16.5858 44.7587 15.0224 46.4717 13.5067C46.9921 13.0463 47.1277 12.2858 46.9021 11.5475C46.6764 10.8089 46.124 10.2088 45.4127 10.0423C41.9564 9.23306 39.7126 8.15173 38.0881 7.07528C37.2783 6.53869 36.6302 6.00843 36.072 5.52689C35.9002 5.37865 35.7399 5.23778 35.5874 5.10381C35.2348 4.79402 34.9242 4.52109 34.6101 4.27903C34.1717 3.9412 33.766 3.6964 33.3141 3.54909C32.8652 3.40275 32.3392 3.34247 31.652 3.41833C30.2517 3.57292 28.2426 4.28376 24.9883 5.89231L24.8574 5.95703L24.708 5.9395C20.9948 5.50382 18.8245 5.4965 17.4594 5.80743C16.7894 5.96002 16.3277 6.18656 15.9748 6.46787C15.6196 6.75105 15.3493 7.10965 15.0889 7.56509C14.9024 7.89143 14.7324 8.24525 14.5396 8.64685C14.4561 8.82053 14.3684 9.00316 14.2732 9.19636C13.964 9.82391 13.5924 10.5258 13.0737 11.286C12.0332 12.8111 10.4205 14.5416 7.56595 16.4131C6.97848 16.7983 6.72591 17.5339 6.83609 18.2919C6.94623 19.0496 7.40101 19.7108 8.08264 19.9689C10.3266 20.8185 12.4105 21.7756 14.3514 22.6669L14.3656 22.6735C16.3179 23.5701 18.1164 24.3953 19.817 24.9985C23.2055 26.2003 26.0976 26.4827 28.8712 24.7134Z" fill="#B76B4F" stroke="black"/>
<path d="M17.8042 27.5604C18.9153 32.5102 24.8864 35.8383 31.3213 34.7551C37.7561 33.6719 41.8529 28.649 40.7419 23.6992C39.6309 18.7494 33.6597 15.4214 27.2248 16.5046C20.79 17.5878 16.6932 22.6106 17.8042 27.5604Z" fill="#3EB32E" stroke="black"/>
<ellipse cx="10.0206" cy="9.85229" rx="10.0206" ry="9.85229" transform="matrix(-0.986126 0.165999 0.219007 0.975723 37.4079 16.1844)" fill="#18660E"/>
<path d="M28.8712 24.7134L29.0428 24.6039L29.2493 24.6498C32.5862 25.3904 35.1455 24.1904 37.7675 21.9768C39.0833 20.8659 40.3938 19.5173 41.8162 18.0526L41.8267 18.0418C43.2406 16.5858 44.7587 15.0224 46.4717 13.5067C46.9921 13.0463 47.1277 12.2858 46.9021 11.5475C46.6764 10.8089 46.124 10.2088 45.4127 10.0423C41.9564 9.23306 39.7126 8.15173 38.0881 7.07528C37.2783 6.53869 36.6302 6.00843 36.072 5.52689C35.9002 5.37865 35.7399 5.23778 35.5874 5.10381C35.2348 4.79402 34.9242 4.52109 34.6101 4.27903C34.1717 3.9412 33.766 3.6964 33.3141 3.54909C32.8652 3.40275 32.3392 3.34247 31.652 3.41833C30.2517 3.57292 28.2426 4.28376 24.9883 5.89231L24.8574 5.95703L24.708 5.9395C20.9948 5.50382 18.8245 5.4965 17.4594 5.80743C16.7894 5.96002 16.3277 6.18656 15.9748 6.46787C15.6196 6.75105 15.3493 7.10965 15.0889 7.56509C14.9024 7.89143 14.7324 8.24525 14.5396 8.64685C14.4561 8.82053 14.3684 9.00316 14.2732 9.19636C13.964 9.82391 13.5924 10.5258 13.0737 11.286C12.0332 12.8111 10.4205 14.5416 7.56595 16.4131C6.97848 16.7983 6.72591 17.5339 6.83609 18.2919C6.94623 19.0496 7.40101 19.7108 8.08264 19.9689C10.3266 20.8185 12.4105 21.7756 14.3514 22.6669L14.3656 22.6735C16.3179 23.5701 18.1164 24.3953 19.817 24.9985C23.2055 26.2003 26.0976 26.4827 28.8712 24.7134Z" stroke="black"/>
<path d="M25.0912 6.52216C25.052 6.73071 25.1067 6.92031 25.1346 7.13583C25.1507 7.25973 25.2125 7.39404 25.2092 7.51845C25.2061 7.63284 25.1886 7.71247 25.2152 7.83123C25.3198 8.29713 25.391 8.76532 25.496 9.23346C25.5908 9.65584 25.6856 10.0782 25.7804 10.5006C25.8234 10.6921 25.8664 10.8835 25.9094 11.075C25.9488 11.2507 26.048 11.3898 26.0886 11.5711C26.1402 11.801 26.1918 12.0308 26.2434 12.2607C26.2987 12.507 26.3755 12.8353 26.5062 13.0616C26.6157 13.2512 26.7388 13.4359 26.8477 13.6251C26.8928 13.7034 26.9523 13.7399 27.0129 13.8065C27.0848 13.8854 27.1014 13.9769 27.1893 14.0458C27.3222 14.15 27.4961 14.2436 27.6128 14.3613C27.6946 14.4438 27.8294 14.4454 27.9085 14.5357" stroke="#73402E" stroke-linecap="round"/>
<path d="M26.2637 13.2585C25.929 13.6474 25.6797 14.123 25.4847 14.5784C25.4287 14.7093 25.3092 14.9158 25.1802 14.9949C25.0886 15.0511 25.0309 15.1504 24.9307 15.1864" stroke="#73402E" stroke-linecap="round"/>
<path d="M34.89 7.81445C34.1964 8.4874 33.5736 8.95197 32.7144 9.44796C32.1839 9.75425 31.6709 10.0048 31.1105 10.2506C30.5461 10.4981 29.9469 10.7793 29.3227 10.9005C28.6414 11.0328 27.9297 11.0799 27.2599 11.1926" stroke="#73402E" stroke-linecap="round"/>
<path d="M24.2677 11.8065C23.6499 11.9105 22.997 11.8153 22.3769 11.9044C22.1177 11.9417 21.869 11.942 21.6051 11.9364C20.8207 11.9199 20.0692 12.0967 19.2796 12.0187C18.4801 11.9397 17.707 11.773 16.917 11.6879C16.6312 11.6571 16.1171 11.5296 15.9076 11.3435C15.8005 11.2483 15.6442 11.2865 15.551 11.1801" stroke="#73402E" stroke-linecap="round"/>
</g>
<path d="M19.4301 24.8969C19.4301 26.5178 20.2243 27.8929 21.5553 28.8784C22.8934 29.8691 24.771 30.4593 26.8773 30.4593C28.9836 30.4593 30.8613 29.8691 32.1994 28.8784C33.5303 27.8929 34.3246 26.5178 34.3246 24.8969C34.3246 23.2473 33.5032 21.3826 32.1324 19.9232C30.766 18.4684 28.9038 17.4692 26.8773 17.4692C24.8508 17.4692 22.9886 18.4684 21.6223 19.9232C20.2515 21.3826 19.4301 23.2473 19.4301 24.8969Z" fill="#3EB32E" stroke="black"/>
<mask id="mask1_15_284" style="mask-type:alpha" maskUnits="userSpaceOnUse" x="39" y="11" width="16" height="41">
<path d="M47.4458 26.3219L47.8222 26.506L47.7067 26.9088C46.8636 29.8494 45.7513 32.2298 44.6289 34.6319C44.3179 35.2974 44.0061 35.9646 43.6991 36.6458C42.2811 39.792 40.9278 43.3059 40.1112 48.4994C40.0875 48.6498 40.0501 48.7997 40.0017 48.9421C39.9071 49.2211 39.8278 49.4808 39.7793 49.7142C39.7298 49.9521 39.7195 50.1295 39.7384 50.2534C39.7554 50.3647 39.7901 50.4053 39.8231 50.4298C39.8687 50.4635 39.9885 50.5212 40.2679 50.5211L41.7533 50.521C42.0693 50.521 42.6181 50.4449 43.1783 50.298C43.75 50.148 44.2434 49.9472 44.5004 49.743C44.5719 49.6862 44.6424 49.6101 44.7362 49.5007C44.7486 49.4863 44.7616 49.4709 44.7753 49.4549C44.8545 49.3617 44.954 49.2446 45.0623 49.1413C48.683 45.6884 50.071 42.2296 51.0231 38.5248C51.2857 37.5029 51.5165 36.4525 51.7534 35.3742C52.3715 32.5604 53.0313 29.5566 54.408 26.3744C54.5454 26.0463 54.5289 25.6859 54.3583 25.3655L54.3511 25.3521L54.3447 25.3382C53.7842 24.1108 53.5831 23.1718 53.4719 22.3374C53.4356 22.0651 53.4096 21.8166 53.3848 21.5797C53.3317 21.0724 53.2842 20.6184 53.1532 20.0988C52.7857 18.6415 51.7518 16.7406 47.8313 12.8635C47.6885 12.7223 47.5591 12.5508 47.4598 12.4191C47.4363 12.388 47.4145 12.3591 47.3946 12.3334C47.0348 11.868 46.3484 11.608 45.6546 11.7517L41.0712 12.7009C40.0453 12.9133 39.6276 13.8151 39.9383 14.5045L39.4824 14.7099L39.9383 14.5045C39.9504 14.5314 39.9644 14.5615 39.9796 14.5942C40.0395 14.7228 40.1179 14.8911 40.1703 15.0567C41.3803 18.878 42.3984 21.2972 43.5129 22.9612C44.6114 24.6015 45.8144 25.5237 47.4458 26.3219Z" fill="#3EB32E" stroke="black"/>
</mask>
<g mask="url(#mask1_15_284)">
<path d="M47.4458 26.3219L47.8222 26.506L47.7067 26.9088C46.8636 29.8494 45.7513 32.2298 44.6289 34.6319C44.3179 35.2974 44.0061 35.9646 43.6991 36.6458C42.2811 39.792 40.9278 43.3059 40.1112 48.4994C40.0875 48.6498 40.0501 48.7997 40.0017 48.9421C39.9071 49.2211 39.8278 49.4808 39.7793 49.7142C39.7298 49.9521 39.7195 50.1295 39.7384 50.2534C39.7554 50.3647 39.7901 50.4053 39.8231 50.4298C39.8687 50.4635 39.9885 50.5212 40.2679 50.5211L41.7533 50.521C42.0693 50.521 42.6181 50.4449 43.1783 50.298C43.75 50.148 44.2434 49.9472 44.5004 49.743C44.5719 49.6862 44.6424 49.6101 44.7362 49.5007C44.7486 49.4863 44.7616 49.4709 44.7753 49.4549C44.8545 49.3617 44.954 49.2446 45.0623 49.1413C48.683 45.6884 50.071 42.2296 51.0231 38.5248C51.2857 37.5029 51.5165 36.4525 51.7534 35.3742C52.3715 32.5604 53.0313 29.5566 54.408 26.3744C54.5454 26.0463 54.5289 25.6859 54.3583 25.3655L54.3511 25.3521L54.3447 25.3382C53.7842 24.1108 53.5831 23.1718 53.4719 22.3374C53.4356 22.0651 53.4096 21.8166 53.3848 21.5797C53.3317 21.0724 53.2842 20.6184 53.1532 20.0988C52.7857 18.6415 51.7518 16.7406 47.8313 12.8635C47.6885 12.7223 47.5591 12.5508 47.4598 12.4191C47.4363 12.388 47.4145 12.3591 47.3946 12.3334C47.0348 11.868 46.3484 11.608 45.6546 11.7517L41.0712 12.7009C40.0453 12.9133 39.6276 13.8151 39.9383 14.5045L39.4824 14.7099L39.9383 14.5045C39.9504 14.5314 39.9644 14.5615 39.9796 14.5942C40.0395 14.7228 40.1179 14.8911 40.1703 15.0567C41.3803 18.878 42.3984 21.2972 43.5129 22.9612C44.6114 24.6015 45.8144 25.5237 47.4458 26.3219Z" fill="#3EB32E" stroke="black"/>
<path d="M50.7602 9.05115H39.1042L41.2235 25.3729L53.9391 18.3779L50.7602 9.05115Z" fill="#2E5B1A"/>
<path d="M52.2708 17.2094L49.3427 8.6185H38.6137L40.5653 23.6487L52.2708 17.2094Z" fill="#B76B4F" stroke="black"/>
<path d="M47.4458 26.3219L47.8222 26.506L47.7067 26.9088C46.8636 29.8494 45.7513 32.2298 44.6289 34.6319C44.3179 35.2974 44.0061 35.9646 43.6991 36.6458C42.2811 39.792 40.9278 43.3059 40.1112 48.4994C40.0875 48.6498 40.0501 48.7997 40.0017 48.9421C39.9071 49.2211 39.8278 49.4808 39.7793 49.7142C39.7298 49.9521 39.7195 50.1295 39.7384 50.2534C39.7554 50.3647 39.7901 50.4053 39.8231 50.4298C39.8687 50.4635 39.9885 50.5212 40.2679 50.5211L41.7533 50.521C42.0693 50.521 42.6181 50.4449 43.1783 50.298C43.75 50.148 44.2434 49.9472 44.5004 49.743C44.5719 49.6862 44.6424 49.6101 44.7362 49.5007C44.7486 49.4863 44.7616 49.4709 44.7753 49.4549C44.8545 49.3617 44.954 49.2446 45.0623 49.1413C48.683 45.6884 50.071 42.2296 51.0231 38.5248C51.2857 37.5029 51.5165 36.4525 51.7534 35.3742C52.3715 32.5604 53.0313 29.5566 54.408 26.3744C54.5454 26.0463 54.5289 25.6859 54.3583 25.3655L54.3511 25.3521L54.3447 25.3382C53.7842 24.1108 53.5831 23.1718 53.4719 22.3374C53.4356 22.0651 53.4096 21.8166 53.3848 21.5797C53.3317 21.0724 53.2842 20.6184 53.1532 20.0988C52.7857 18.6415 51.7518 16.7406 47.8313 12.8635C47.6885 12.7223 47.5591 12.5508 47.4598 12.4191C47.4363 12.388 47.4145 12.3591 47.3946 12.3334C47.0348 11.868 46.3484 11.608 45.6546 11.7517L41.0712 12.7009C40.0453 12.9133 39.6276 13.8151 39.9383 14.5045L39.4824 14.7099L39.9383 14.5045C39.9504 14.5314 39.9644 14.5615 39.9796 14.5942C40.0395 14.7228 40.1179 14.8911 40.1703 15.0567C41.3803 18.878 42.3984 21.2972 43.5129 22.9612C44.6114 24.6015 45.8144 25.5237 47.4458 26.3219Z" stroke="black"/>
<path d="M45.9919 8.1185H35.3956V16.5125H45.9919V8.1185Z" fill="#B76B4F"/>
<path d="M45.0115 12.4491C44.5402 12.4715 44.123 12.9204 43.8181 13.1972C43.285 13.6811 42.743 14.1748 42.2768 14.7107C42.1755 14.8272 42.0905 14.9457 42.0203 15.0781C41.95 15.2106 42.0296 15.3629 41.842 15.4455" stroke="#73402E" stroke-linecap="round"/>
</g>
<mask id="mask2_15_284" style="mask-type:alpha" maskUnits="userSpaceOnUse" x="1" y="15" width="17" height="40">
<path d="M9.09855 30.3007L8.72215 30.4849L8.83764 30.8877C9.68073 33.8282 10.7931 36.2087 11.9155 38.6107C12.2265 39.2763 12.5383 39.9435 12.8453 40.6247C14.2633 43.7708 15.6166 47.2847 16.4332 52.4782C16.4568 52.6287 16.4943 52.7786 16.5426 52.921C16.6373 53.1999 16.7165 53.4597 16.7651 53.693C16.8146 53.9309 16.8249 54.1083 16.8059 54.2323C16.789 54.3435 16.7543 54.3842 16.7212 54.4086C16.6757 54.4424 16.5558 54.5 16.2765 54.5L14.7911 54.4999C14.4751 54.4999 13.9263 54.4237 13.3661 54.2768C12.7943 54.1268 12.3009 53.926 12.044 53.7219C11.9725 53.6651 11.902 53.589 11.8082 53.4796C11.7958 53.4651 11.7828 53.4498 11.7691 53.4337C11.6899 53.3405 11.5904 53.2235 11.4821 53.1202C7.86132 49.6673 6.47342 46.2084 5.52127 42.5036C5.25866 41.4818 5.0279 40.4314 4.79102 39.353C4.17291 36.5393 3.51304 33.5354 2.13637 30.3532C1.99895 30.0251 2.01546 29.6647 2.18611 29.3444L2.19329 29.3309L2.19963 29.317C2.7602 28.0896 2.96127 27.1507 3.0725 26.3163C3.10879 26.044 3.1348 25.7955 3.15959 25.5586C3.21269 25.0512 3.26019 24.5973 3.39121 24.0776C3.75865 22.6203 4.79257 20.7195 8.71311 16.8423C8.85587 16.7012 8.98527 16.5296 9.08459 16.398C9.10806 16.3669 9.12986 16.338 9.14975 16.3122C9.50953 15.8468 10.196 15.5869 10.8897 15.7306L15.4732 16.6797C16.4991 16.8921 16.9168 17.7939 16.6061 18.4834L17.0619 18.6888L16.6061 18.4834C16.594 18.5102 16.58 18.5404 16.5647 18.573C16.5049 18.7016 16.4265 18.8699 16.374 19.0355C15.1641 22.8569 14.146 25.276 13.0315 26.9401C11.9329 28.5803 10.73 29.5026 9.09855 30.3007Z" fill="#3EB32E" stroke="black"/>
</mask>
<g mask="url(#mask2_15_284)">
<path d="M9.09855 30.3007L8.72215 30.4849L8.83764 30.8877C9.68073 33.8282 10.7931 36.2087 11.9155 38.6107C12.2265 39.2763 12.5383 39.9435 12.8453 40.6247C14.2633 43.7708 15.6166 47.2847 16.4332 52.4782C16.4568 52.6287 16.4943 52.7786 16.5426 52.921C16.6373 53.1999 16.7165 53.4597 16.7651 53.693C16.8146 53.9309 16.8249 54.1083 16.8059 54.2323C16.789 54.3435 16.7543 54.3842 16.7212 54.4086C16.6757 54.4424 16.5558 54.5 16.2765 54.5L14.7911 54.4999C14.4751 54.4999 13.9263 54.4237 13.3661 54.2768C12.7943 54.1268 12.3009 53.926 12.044 53.7219C11.9725 53.6651 11.902 53.589 11.8082 53.4796C11.7958 53.4651 11.7828 53.4498 11.7691 53.4337C11.6899 53.3405 11.5904 53.2235 11.4821 53.1202C7.86132 49.6673 6.47342 46.2084 5.52127 42.5036C5.25866 41.4818 5.0279 40.4314 4.79102 39.353C4.17291 36.5393 3.51304 33.5354 2.13637 30.3532C1.99895 30.0251 2.01546 29.6647 2.18611 29.3444L2.19329 29.3309L2.19963 29.317C2.7602 28.0896 2.96127 27.1507 3.0725 26.3163C3.10879 26.044 3.1348 25.7955 3.15959 25.5586C3.21269 25.0512 3.26019 24.5973 3.39121 24.0776C3.75865 22.6203 4.79257 20.7195 8.71311 16.8423C8.85587 16.7012 8.98527 16.5296 9.08459 16.398C9.10806 16.3669 9.12986 16.338 9.14975 16.3122C9.50953 15.8468 10.196 15.5869 10.8897 15.7306L15.4732 16.6797C16.4991 16.8921 16.9168 17.7939 16.6061 18.4834L17.0619 18.6888L16.6061 18.4834C16.594 18.5102 16.58 18.5404 16.5647 18.573C16.5049 18.7016 16.4265 18.8699 16.374 19.0355C15.1641 22.8569 14.146 25.276 13.0315 26.9401C11.9329 28.5803 10.73 29.5026 9.09855 30.3007Z" fill="#3EB32E" stroke="black"/>
<path d="M5.78418 13.03H17.4401L15.3209 29.3517L2.60529 22.3567L5.78418 13.03Z" fill="#2E5B1A"/>
<path d="M4.27355 21.1882L7.20164 12.5973H17.9306L15.9791 27.6276L4.27355 21.1882Z" fill="#B76B4F" stroke="black"/>
<path d="M9.09855 30.3007L8.72215 30.4849L8.83764 30.8877C9.68073 33.8282 10.7931 36.2087 11.9155 38.6107C12.2265 39.2763 12.5383 39.9435 12.8453 40.6247C14.2633 43.7708 15.6166 47.2847 16.4332 52.4782C16.4568 52.6287 16.4943 52.7786 16.5426 52.921C16.6373 53.1999 16.7165 53.4597 16.7651 53.693C16.8146 53.9309 16.8249 54.1083 16.8059 54.2323C16.789 54.3435 16.7543 54.3842 16.7212 54.4086C16.6757 54.4424 16.5558 54.5 16.2765 54.5L14.7911 54.4999C14.4751 54.4999 13.9263 54.4237 13.3661 54.2768C12.7943 54.1268 12.3009 53.926 12.044 53.7219C11.9725 53.6651 11.902 53.589 11.8082 53.4796C11.7958 53.4651 11.7828 53.4498 11.7691 53.4337C11.6899 53.3405 11.5904 53.2235 11.4821 53.1202C7.86132 49.6673 6.47342 46.2084 5.52127 42.5036C5.25866 41.4818 5.0279 40.4314 4.79102 39.353C4.17291 36.5393 3.51304 33.5354 2.13637 30.3532C1.99895 30.0251 2.01546 29.6647 2.18611 29.3444L2.19329 29.3309L2.19963 29.317C2.7602 28.0896 2.96127 27.1507 3.0725 26.3163C3.10879 26.044 3.1348 25.7955 3.15959 25.5586C3.21269 25.0512 3.26019 24.5973 3.39121 24.0776C3.75865 22.6203 4.79257 20.7195 8.71311 16.8423C8.85587 16.7012 8.98527 16.5296 9.08459 16.398C9.10806 16.3669 9.12986 16.338 9.14975 16.3122C9.50953 15.8468 10.196 15.5869 10.8897 15.7306L15.4732 16.6797C16.4991 16.8921 16.9168 17.7939 16.6061 18.4834L17.0619 18.6888L16.6061 18.4834C16.594 18.5102 16.58 18.5404 16.5647 18.573C16.5049 18.7016 16.4265 18.8699 16.374 19.0355C15.1641 22.8569 14.146 25.276 13.0315 26.9401C11.9329 28.5803 10.73 29.5026 9.09855 30.3007Z" stroke="black"/>
<path d="M10.5525 12.0973H21.1488V20.4914H10.5525V12.0973Z" fill="#B76B4F"/>
<path d="M11.5328 16.4279C12.0041 16.4503 12.4213 16.8992 12.7263 17.1761C13.2594 17.66 13.8014 18.1537 14.2676 18.6896C14.3689 18.806 14.4539 18.9245 14.5241 19.057C14.5944 19.1894 14.5147 19.3418 14.7024 19.4243" stroke="#73402E" stroke-linecap="round"/>
</g>
</svg>
