<svg width="55" height="61" viewBox="0 0 55 61" fill="none" xmlns="http://www.w3.org/2000/svg">
<mask id="mask0_15_110" style="mask-type:alpha" maskUnits="userSpaceOnUse" x="8" y="3" width="40" height="24">
<path d="M25.36 24.7535L25.2008 24.6402L24.9973 24.6696C21.6841 25.1477 19.2538 23.8715 16.844 21.6454C15.6343 20.5278 14.4475 19.1869 13.1641 17.7269C13.1179 17.6743 13.0715 17.6215 13.0251 17.5686C11.7864 16.1591 10.4603 14.6501 8.96053 13.1657C8.4666 12.6768 8.38748 11.9005 8.67724 11.1648C8.9671 10.4288 9.57879 9.85536 10.312 9.73485C13.6898 9.17966 15.9218 8.29937 17.563 7.38957C18.3809 6.93617 19.0439 6.47991 19.6177 6.06552C19.7738 5.95273 19.9211 5.84482 20.0619 5.74167C20.4479 5.45879 20.785 5.21178 21.1228 4.99838C21.5719 4.71464 21.9859 4.51533 22.4406 4.41025C22.8936 4.30558 23.4187 4.28717 24.0935 4.40801C25.4664 4.65387 27.3976 5.46292 30.4784 7.19157L30.6009 7.26029L30.7468 7.25364C34.4167 7.08628 36.558 7.2191 37.8894 7.5987C38.5438 7.78527 38.9878 8.0278 39.3194 8.31391C39.6522 8.60112 39.8951 8.95236 40.1195 9.39189C40.2883 9.72246 40.437 10.0818 40.6073 10.4934C40.6694 10.6434 40.7343 10.8004 40.8041 10.9655C41.0608 11.5719 41.3703 12.2531 41.8157 12.9987C42.7094 14.4947 44.1318 16.2202 46.7348 18.1586C47.2998 18.5793 47.497 19.3399 47.3213 20.1023C47.1457 20.8644 46.6271 21.5024 45.916 21.7126C43.7566 22.3508 41.7335 23.0852 39.8437 23.7712C39.7728 23.7969 39.7021 23.8226 39.6316 23.8482C37.6739 24.5586 35.8688 25.2076 34.1734 25.6532C30.7961 26.541 27.9518 26.5972 25.36 24.7535Z" fill="#D9D9D9" stroke="black"/>
</mask>
<g mask="url(#mask0_15_110)">
<path d="M25.36 24.7535L25.2008 24.6402L24.9973 24.6696C21.6841 25.1477 19.2538 23.8715 16.844 21.6454C15.6343 20.5278 14.4475 19.1869 13.1641 17.7269C13.1179 17.6743 13.0715 17.6215 13.0251 17.5686C11.7864 16.1591 10.4603 14.6501 8.96053 13.1657C8.4666 12.6768 8.38748 11.9005 8.67724 11.1648C8.9671 10.4288 9.57879 9.85536 10.312 9.73485C13.6898 9.17966 15.9218 8.29937 17.563 7.38957C18.3809 6.93617 19.0439 6.47991 19.6177 6.06552C19.7738 5.95273 19.9211 5.84482 20.0619 5.74167C20.4479 5.45879 20.785 5.21178 21.1228 4.99838C21.5719 4.71464 21.9859 4.51533 22.4406 4.41025C22.8936 4.30558 23.4187 4.28717 24.0935 4.40801C25.4664 4.65387 27.3976 5.46292 30.4784 7.19157L30.6009 7.26029L30.7468 7.25364C34.4167 7.08628 36.558 7.2191 37.8894 7.5987C38.5438 7.78527 38.9878 8.0278 39.3194 8.31391C39.6522 8.60112 39.8951 8.95236 40.1195 9.39189C40.2883 9.72246 40.437 10.0818 40.6073 10.4934C40.6694 10.6434 40.7343 10.8004 40.8041 10.9655C41.0608 11.5719 41.3703 12.2531 41.8157 12.9987C42.7094 14.4947 44.1318 16.2202 46.7348 18.1586C47.2998 18.5793 47.497 19.3399 47.3213 20.1023C47.1457 20.8644 46.6271 21.5024 45.916 21.7126C43.7566 22.3508 41.7335 23.0852 39.8437 23.7712C39.7728 23.7969 39.7021 23.8226 39.6316 23.8482C37.6739 24.5586 35.8688 25.2076 34.1734 25.6532C30.7961 26.541 27.9518 26.5972 25.36 24.7535Z" fill="#B76B4F" stroke="black"/>
<path d="M36.0844 28.2071C34.6565 32.8026 28.5496 35.5798 22.2541 34.1239C15.9587 32.6679 12.2807 27.6276 13.7086 23.0321C15.1364 18.4367 21.2434 15.6594 27.5388 17.1154C33.8342 18.5714 37.5122 23.6117 36.0844 28.2071Z" fill="#3EB32E" stroke="black"/>
<ellipse cx="9.89917" cy="9.40526" rx="9.89917" ry="9.40526" transform="matrix(0.974283 0.225329 -0.296716 0.954966 17.511 16.1182)" fill="#18660E"/>
<path d="M25.36 24.7535L25.2008 24.6402L24.9973 24.6696C21.6841 25.1477 19.2538 23.8715 16.844 21.6454C15.6343 20.5278 14.4475 19.1869 13.1641 17.7269C13.1179 17.6743 13.0715 17.6215 13.0251 17.5686C11.7864 16.1591 10.4603 14.6501 8.96053 13.1657C8.4666 12.6768 8.38748 11.9005 8.67724 11.1648C8.9671 10.4288 9.57879 9.85536 10.312 9.73485C13.6898 9.17966 15.9218 8.29937 17.563 7.38957C18.3809 6.93617 19.0439 6.47991 19.6177 6.06552C19.7738 5.95273 19.9211 5.84482 20.0619 5.74167C20.4479 5.45879 20.785 5.21178 21.1228 4.99838C21.5719 4.71464 21.9859 4.51533 22.4406 4.41025C22.8936 4.30558 23.4187 4.28717 24.0935 4.40801C25.4664 4.65387 27.3976 5.46292 30.4784 7.19157L30.6009 7.26029L30.7468 7.25364C34.4167 7.08628 36.558 7.2191 37.8894 7.5987C38.5438 7.78527 38.9878 8.0278 39.3194 8.31391C39.6522 8.60112 39.8951 8.95236 40.1195 9.39189C40.2883 9.72246 40.437 10.0818 40.6073 10.4934C40.6694 10.6434 40.7343 10.8004 40.8041 10.9655C41.0608 11.5719 41.3703 12.2531 41.8157 12.9987C42.7094 14.4947 44.1318 16.2202 46.7348 18.1586C47.2998 18.5793 47.497 19.3399 47.3213 20.1023C47.1457 20.8644 46.6271 21.5024 45.916 21.7126C43.7566 22.3508 41.7335 23.0852 39.8437 23.7712C39.7728 23.7969 39.7021 23.8226 39.6316 23.8482C37.6739 24.5586 35.8688 25.2076 34.1734 25.6532C30.7961 26.541 27.9518 26.5972 25.36 24.7535Z" stroke="black"/>
<path d="M30.3378 7.75999C30.3622 7.96051 30.2952 8.13686 30.2528 8.33957C30.2284 8.45611 30.1581 8.5795 30.1529 8.6978C30.1481 8.80658 30.1599 8.88331 30.1254 8.99427C29.9902 9.42957 29.8878 9.86924 29.7519 10.3066C29.6293 10.7013 29.5066 11.0959 29.384 11.4905C29.3285 11.6694 29.2729 11.8483 29.2173 12.0272C29.1663 12.1914 29.0588 12.3169 29.0062 12.4863C28.9395 12.701 28.8727 12.9158 28.806 13.1305C28.7345 13.3607 28.6362 13.6672 28.4915 13.8734C28.3704 14.0461 28.2362 14.2133 28.1156 14.3857C28.0657 14.457 28.0044 14.4878 27.94 14.5469C27.8636 14.6171 27.8409 14.7029 27.7494 14.7624C27.6109 14.8526 27.4328 14.93 27.3094 15.034C27.223 15.1068 27.0898 15.0995 27.0055 15.18" stroke="#73402E" stroke-linecap="round"/>
<path d="M28.7176 14.0762C29.0214 14.4674 29.2349 14.9352 29.3963 15.3804C29.4426 15.5083 29.5464 15.7122 29.6684 15.7958C29.755 15.8551 29.8051 15.9532 29.9016 15.9939" stroke="#73402E" stroke-linecap="round"/>
<path d="M20.5721 8.34018C21.2109 9.02464 21.7941 9.50665 22.6085 10.0341C23.1115 10.3598 23.6008 10.6314 24.1374 10.9017C24.6778 11.1739 25.2503 11.4802 25.8584 11.6364C26.5221 11.8069 27.2218 11.8986 27.8755 12.0498" stroke="#73402E" stroke-linecap="round"/>
<path d="M30.7883 12.8298C31.3914 12.9693 32.0426 12.9219 32.6489 13.0475C32.9024 13.0999 33.148 13.1166 33.409 13.1287C34.1847 13.1648 34.9148 13.3822 35.6999 13.3602C36.4948 13.338 37.2698 13.2308 38.0559 13.2021C38.3402 13.1917 38.8567 13.1047 39.0763 12.9418C39.1886 12.8585 39.3404 12.9051 39.4397 12.8102" stroke="#73402E" stroke-linecap="round"/>
</g>
<path d="M33.054 27.5708C33.054 29.0954 32.2771 30.3963 30.9598 31.3337C29.6356 32.276 27.7751 32.8386 25.6866 32.8386C23.5981 32.8386 21.7376 32.276 20.4134 31.3337C19.0961 30.3963 18.3192 29.0954 18.3192 27.5708C18.3192 26.0155 19.1258 24.2493 20.4811 22.8625C21.8308 21.4814 23.6749 20.5283 25.6866 20.5283C27.6982 20.5283 29.5423 21.4814 30.8921 22.8625C32.2474 24.2493 33.054 26.0155 33.054 27.5708Z" fill="#3EB32E" stroke="black"/>
<mask id="mask1_15_110" style="mask-type:alpha" maskUnits="userSpaceOnUse" x="0" y="13" width="16" height="39">
<path d="M7.48306 27.8158L7.09367 27.9989L7.21668 28.4112C8.05224 31.212 9.15498 33.48 10.2663 35.7657C10.5733 36.3971 10.881 37.0298 11.1838 37.6755C12.5861 40.6652 13.924 44.0021 14.7323 48.9326C14.7578 49.0881 14.798 49.2427 14.8496 49.3891C14.9423 49.6526 15.019 49.8962 15.0655 50.1138C15.113 50.3362 15.1211 50.4971 15.1033 50.6057C15.088 50.6994 15.0588 50.7314 15.0285 50.7529C14.983 50.785 14.8622 50.8401 14.5841 50.8401L13.1136 50.84C12.8017 50.84 12.263 50.7685 11.712 50.6305C11.15 50.4898 10.6605 50.3008 10.4002 50.1071C10.3269 50.0526 10.2539 49.9781 10.1571 49.8704C10.143 49.8547 10.1281 49.8379 10.1124 49.8203C10.0313 49.7292 9.92989 49.6152 9.82115 49.5154C6.24753 46.2353 4.87894 42.9514 3.93887 39.4338C3.68022 38.4659 3.45259 37.4701 3.21878 36.4471C2.60666 33.7692 1.95217 30.9058 0.587792 27.8747C0.456825 27.5741 0.472066 27.2451 0.635747 26.9498L0.643323 26.9361L0.65003 26.922C1.20653 25.751 1.40664 24.854 1.51727 24.0568C1.55364 23.7947 1.57955 23.5567 1.60417 23.3305C1.65645 22.8502 1.70291 22.4233 1.83154 21.9324C2.19198 20.5569 3.20801 18.7544 7.08422 15.0691C7.22523 14.9351 7.35725 14.7683 7.45804 14.6409C7.48575 14.6059 7.5111 14.5739 7.53363 14.5464C7.88749 14.1137 8.56444 13.866 9.25427 14.0033L13.7917 14.9063C14.8184 15.1106 15.1941 15.9555 14.9141 16.5699C14.9007 16.5994 14.8842 16.6339 14.8659 16.6722C14.8051 16.7994 14.7247 16.9678 14.6718 17.1282C13.4759 20.7555 12.4701 23.0492 11.37 24.6263C10.286 26.1805 9.09783 27.0566 7.48306 27.8158Z" fill="#3EB32E" stroke="black"/>
</mask>
<g mask="url(#mask1_15_110)">
<path d="M7.48306 27.8158L7.09367 27.9989L7.21668 28.4112C8.05224 31.212 9.15498 33.48 10.2663 35.7657C10.5733 36.3971 10.881 37.0298 11.1838 37.6755C12.5861 40.6652 13.924 44.0021 14.7323 48.9326C14.7578 49.0881 14.798 49.2427 14.8496 49.3891C14.9423 49.6526 15.019 49.8962 15.0655 50.1138C15.113 50.3362 15.1211 50.4971 15.1033 50.6057C15.088 50.6994 15.0588 50.7314 15.0285 50.7529C14.983 50.785 14.8622 50.8401 14.5841 50.8401L13.1136 50.84C12.8017 50.84 12.263 50.7685 11.712 50.6305C11.15 50.4898 10.6605 50.3008 10.4002 50.1071C10.3269 50.0526 10.2539 49.9781 10.1571 49.8704C10.143 49.8547 10.1281 49.8379 10.1124 49.8203C10.0313 49.7292 9.92989 49.6152 9.82115 49.5154C6.24753 46.2353 4.87894 42.9514 3.93887 39.4338C3.68022 38.4659 3.45259 37.4701 3.21878 36.4471C2.60666 33.7692 1.95217 30.9058 0.587792 27.8747C0.456825 27.5741 0.472066 27.2451 0.635747 26.9498L0.643323 26.9361L0.65003 26.922C1.20653 25.751 1.40664 24.854 1.51727 24.0568C1.55364 23.7947 1.57955 23.5567 1.60417 23.3305C1.65645 22.8502 1.70291 22.4233 1.83154 21.9324C2.19198 20.5569 3.20801 18.7544 7.08422 15.0691C7.22523 14.9351 7.35725 14.7683 7.45804 14.6409C7.48575 14.6059 7.5111 14.5739 7.53363 14.5464C7.88749 14.1137 8.56444 13.866 9.25427 14.0033L13.7917 14.9063C14.8184 15.1106 15.1941 15.9555 14.9141 16.5699C14.9007 16.5994 14.8842 16.6339 14.8659 16.6722C14.8051 16.7994 14.7247 16.9678 14.6718 17.1282C13.4759 20.7555 12.4701 23.0492 11.37 24.6263C10.286 26.1805 9.09783 27.0566 7.48306 27.8158Z" fill="#3EB32E" stroke="black"/>
<path d="M4.19721 11.4094H15.7361L13.6381 26.9381L1.05025 20.2829L4.19721 11.4094Z" fill="#2E5B1A"/>
<path d="M2.71489 19.1555L5.59938 11.022H16.213L14.2875 25.2739L2.71489 19.1555Z" fill="#B76B4F" stroke="black"/>
<path d="M7.48306 27.8158L7.09367 27.9989L7.21668 28.4112C8.05224 31.212 9.15498 33.48 10.2663 35.7657C10.5733 36.3971 10.881 37.0298 11.1838 37.6755C12.5861 40.6652 13.924 44.0021 14.7323 48.9326C14.7578 49.0881 14.798 49.2427 14.8496 49.3891C14.9423 49.6526 15.019 49.8962 15.0655 50.1138C15.113 50.3362 15.1211 50.4971 15.1033 50.6057C15.088 50.6994 15.0588 50.7314 15.0285 50.7529C14.983 50.785 14.8622 50.8401 14.5841 50.8401L13.1136 50.84C12.8017 50.84 12.263 50.7685 11.712 50.6305C11.15 50.4898 10.6605 50.3008 10.4002 50.1071C10.3269 50.0526 10.2539 49.9781 10.1571 49.8704C10.143 49.8547 10.1281 49.8379 10.1124 49.8203C10.0313 49.7292 9.92989 49.6152 9.82115 49.5154C6.24753 46.2353 4.87894 42.9514 3.93887 39.4338C3.68022 38.4659 3.45259 37.4701 3.21878 36.4471C2.60666 33.7692 1.95217 30.9058 0.587792 27.8747C0.456825 27.5741 0.472066 27.2451 0.635747 26.9498L0.643323 26.9361L0.65003 26.922C1.20653 25.751 1.40664 24.854 1.51727 24.0568C1.55364 23.7947 1.57955 23.5567 1.60417 23.3305C1.65645 22.8502 1.70291 22.4233 1.83154 21.9324C2.19198 20.5569 3.20801 18.7544 7.08422 15.0691C7.22523 14.9351 7.35725 14.7683 7.45804 14.6409C7.48575 14.6059 7.5111 14.5739 7.53363 14.5464C7.88749 14.1137 8.56444 13.866 9.25427 14.0033L13.7917 14.9063C14.8184 15.1106 15.1941 15.9555 14.9141 16.5699C14.9007 16.5994 14.8842 16.6339 14.8659 16.6722C14.8051 16.7994 14.7247 16.9678 14.6718 17.1282C13.4759 20.7555 12.4701 23.0492 11.37 24.6263C10.286 26.1805 9.09783 27.0566 7.48306 27.8158Z" stroke="black"/>
<path d="M8.91766 10.522H19.4075V18.5082H8.91766V10.522Z" fill="#B76B4F"/>
<path d="M9.88812 14.6422C10.3547 14.6635 10.7677 15.0906 11.0696 15.354C11.5974 15.8144 12.1339 16.2841 12.5954 16.794C12.6957 16.9047 12.7798 17.0175 12.8493 17.1435C12.9189 17.2695 12.8401 17.4144 13.0258 17.493" stroke="#73402E" stroke-linecap="round"/>
</g>
<mask id="mask2_15_110" style="mask-type:alpha" maskUnits="userSpaceOnUse" x="35" y="17" width="17" height="44">
<path d="M43.7942 33.758L44.1356 33.9444L51.1196 33.9751L50.6518 33.7987C50.6521 33.7981 50.6523 33.7974 50.6525 33.7967C50.799 33.4068 50.7805 32.9756 50.6007 32.5988L50.5946 32.586L50.5892 32.5728C50.0375 31.2241 49.8406 30.1951 49.7315 29.2806C49.6965 28.9867 49.671 28.7157 49.6467 28.4557C49.5936 27.8896 49.5454 27.376 49.4135 26.7933C49.0429 25.1563 48.004 23.041 44.1134 18.7482C43.9706 18.5906 43.8491 18.4072 43.7552 18.2654C43.7415 18.2448 43.7285 18.2251 43.7161 18.2066C43.3544 17.6657 42.6762 17.3884 42.0111 17.5422L37.4737 18.5912C36.4948 18.8176 35.9953 19.8433 36.3642 20.7074C36.3716 20.7246 36.3794 20.7428 36.3876 20.7617C36.4443 20.8931 36.5173 21.0623 36.5665 21.2362C37.7683 25.48 38.7805 28.1729 39.8905 30.0268C40.9853 31.8552 42.1811 32.8768 43.7942 33.758Z" fill="#3EB32E" stroke="black"/>
</mask>
<g mask="url(#mask2_15_110)">
<path d="M43.7942 33.758L44.1356 33.9444L51.1196 33.9751L50.6518 33.7987C50.6521 33.7981 50.6523 33.7974 50.6525 33.7967C50.799 33.4068 50.7805 32.9756 50.6007 32.5988L50.5946 32.586L50.5892 32.5728C50.0375 31.2241 49.8406 30.1951 49.7315 29.2806C49.6965 28.9867 49.671 28.7157 49.6467 28.4557C49.5936 27.8896 49.5454 27.376 49.4135 26.7933C49.0429 25.1563 48.004 23.041 44.1134 18.7482C43.9706 18.5906 43.8491 18.4072 43.7552 18.2654C43.7415 18.2448 43.7285 18.2251 43.7161 18.2066C43.3544 17.6657 42.6762 17.3884 42.0111 17.5422L37.4737 18.5912C36.4948 18.8176 35.9953 19.8433 36.3642 20.7074C36.3716 20.7246 36.3794 20.7428 36.3876 20.7617C36.4443 20.8931 36.5173 21.0623 36.5665 21.2362C37.7683 25.48 38.7805 28.1729 39.8905 30.0268C40.9853 31.8552 42.1811 32.8768 43.7942 33.758Z" fill="#3EB32E" stroke="black"/>
<path d="M47.0532 14.6113H35.5143L37.6123 32.6514L50.2001 24.9199L47.0532 14.6113Z" fill="#2E5B1A"/>
<path d="M48.5601 23.6653L45.634 14.0804H35.0268L36.9694 30.7843L48.5601 23.6653Z" fill="#B76B4F" stroke="black"/>
<path d="M43.7942 33.758L44.1356 33.9444L51.1196 33.9751L50.6518 33.7987C50.6521 33.7981 50.6523 33.7974 50.6525 33.7967C50.799 33.4068 50.7805 32.9756 50.6007 32.5988L50.5946 32.586L50.5892 32.5728C50.0375 31.2241 49.8406 30.1951 49.7315 29.2806C49.6965 28.9867 49.671 28.7157 49.6467 28.4557C49.5936 27.8896 49.5454 27.376 49.4135 26.7933C49.0429 25.1563 48.004 23.041 44.1134 18.7482C43.9706 18.5906 43.8491 18.4072 43.7552 18.2654C43.7415 18.2448 43.7285 18.2251 43.7161 18.2066C43.3544 17.6657 42.6762 17.3884 42.0111 17.5422L37.4737 18.5912C36.4948 18.8176 35.9953 19.8433 36.3642 20.7074C36.3716 20.7246 36.3794 20.7428 36.3876 20.7617C36.4443 20.8931 36.5173 21.0623 36.5665 21.2362C37.7683 25.48 38.7805 28.1729 39.8905 30.0268C40.9853 31.8552 42.1811 32.8768 43.7942 33.758Z" stroke="black"/>
<path d="M42.3327 13.5804H31.8428V22.8582H42.3327V13.5804Z" fill="#B76B4F"/>
<path d="M41.3623 18.367C40.8957 18.3918 40.4827 18.8879 40.1808 19.1939C39.653 19.7287 39.1165 20.2744 38.655 20.8668C38.5547 20.9954 38.4705 21.1264 38.401 21.2728C38.3315 21.4192 38.4103 21.5876 38.2246 21.6789" stroke="#73402E" stroke-linecap="round"/>
</g>
</svg>
