<svg width="55" height="61" viewBox="0 0 55 61" fill="none" xmlns="http://www.w3.org/2000/svg">
<mask id="mask0_15_255" style="mask-type:alpha" maskUnits="userSpaceOnUse" x="7" y="3" width="40" height="24">
<path d="M29.64 24.7535L29.7992 24.6402L30.0027 24.6696C33.3159 25.1477 35.7462 23.8715 38.1559 21.6454C39.3657 20.5278 40.5525 19.1869 41.8359 17.7269C41.8821 17.6743 41.9285 17.6215 41.9749 17.5686C43.2136 16.1591 44.5397 14.6501 46.0395 13.1657C46.5334 12.6768 46.6125 11.9005 46.3228 11.1648C46.0329 10.4288 45.4212 9.85536 44.688 9.73485C41.3102 9.17966 39.0782 8.29937 37.437 7.38957C36.6191 6.93617 35.9561 6.47991 35.3823 6.06552C35.2262 5.95273 35.0789 5.84482 34.9381 5.74167C34.5521 5.45879 34.215 5.21178 33.8772 4.99838C33.4281 4.71464 33.0141 4.51533 32.5594 4.41025C32.1064 4.30558 31.5813 4.28717 30.9065 4.40801C29.5336 4.65387 27.6024 5.46292 24.5216 7.19157L24.3991 7.26029L24.2532 7.25364C20.5833 7.08628 18.442 7.2191 17.1106 7.5987C16.4562 7.78527 16.0122 8.0278 15.6806 8.31391C15.3478 8.60112 15.1049 8.95236 14.8805 9.39189C14.7117 9.72246 14.563 10.0818 14.3927 10.4934C14.3306 10.6434 14.2657 10.8004 14.1958 10.9655C13.9392 11.5719 13.6296 12.2531 13.1843 12.9987C12.2906 14.4947 10.8682 16.2202 8.26522 18.1586C7.7002 18.5793 7.503 19.3399 7.67869 20.1023C7.85433 20.8644 8.37289 21.5024 9.08401 21.7126C11.2433 22.3508 13.2665 23.0852 15.1563 23.7712C15.2272 23.7969 15.2979 23.8226 15.3684 23.8482C17.3261 24.5586 19.1312 25.2076 20.8266 25.6532C24.2039 26.541 27.0482 26.5972 29.64 24.7535Z" fill="#D9D9D9" stroke="black"/>
</mask>
<g mask="url(#mask0_15_255)">
<path d="M29.64 24.7535L29.7992 24.6402L30.0027 24.6696C33.3159 25.1477 35.7462 23.8715 38.1559 21.6454C39.3657 20.5278 40.5525 19.1869 41.8359 17.7269C41.8821 17.6743 41.9285 17.6215 41.9749 17.5686C43.2136 16.1591 44.5397 14.6501 46.0395 13.1657C46.5334 12.6768 46.6125 11.9005 46.3228 11.1648C46.0329 10.4288 45.4212 9.85536 44.688 9.73485C41.3102 9.17966 39.0782 8.29937 37.437 7.38957C36.6191 6.93617 35.9561 6.47991 35.3823 6.06552C35.2262 5.95273 35.0789 5.84482 34.9381 5.74167C34.5521 5.45879 34.215 5.21178 33.8772 4.99838C33.4281 4.71464 33.0141 4.51533 32.5594 4.41025C32.1064 4.30558 31.5813 4.28717 30.9065 4.40801C29.5336 4.65387 27.6024 5.46292 24.5216 7.19157L24.3991 7.26029L24.2532 7.25364C20.5833 7.08628 18.442 7.2191 17.1106 7.5987C16.4562 7.78527 16.0122 8.0278 15.6806 8.31391C15.3478 8.60112 15.1049 8.95236 14.8805 9.39189C14.7117 9.72246 14.563 10.0818 14.3927 10.4934C14.3306 10.6434 14.2657 10.8004 14.1958 10.9655C13.9392 11.5719 13.6296 12.2531 13.1843 12.9987C12.2906 14.4947 10.8682 16.2202 8.26522 18.1586C7.7002 18.5793 7.503 19.3399 7.67869 20.1023C7.85433 20.8644 8.37289 21.5024 9.08401 21.7126C11.2433 22.3508 13.2665 23.0852 15.1563 23.7712C15.2272 23.7969 15.2979 23.8226 15.3684 23.8482C17.3261 24.5586 19.1312 25.2076 20.8266 25.6532C24.2039 26.541 27.0482 26.5972 29.64 24.7535Z" fill="#B76B4F" stroke="black"/>
<path d="M18.9156 28.2071C20.3435 32.8026 26.4504 35.5798 32.7459 34.1239C39.0413 32.6679 42.7193 27.6276 41.2914 23.0321C39.8635 18.4367 33.7566 15.6594 27.4612 17.1154C21.1658 18.5714 17.4878 23.6117 18.9156 28.2071Z" fill="#3EB32E" stroke="black"/>
<ellipse cx="9.89917" cy="9.40526" rx="9.89917" ry="9.40526" transform="matrix(-0.974283 0.225329 0.296716 0.954966 37.489 16.1182)" fill="#18660E"/>
<path d="M29.64 24.7535L29.7992 24.6402L30.0027 24.6696C33.3159 25.1477 35.7462 23.8715 38.1559 21.6454C39.3657 20.5278 40.5525 19.1869 41.8359 17.7269C41.8821 17.6743 41.9285 17.6215 41.9749 17.5686C43.2136 16.1591 44.5397 14.6501 46.0395 13.1657C46.5334 12.6768 46.6125 11.9005 46.3228 11.1648C46.0329 10.4288 45.4212 9.85536 44.688 9.73485C41.3102 9.17966 39.0782 8.29937 37.437 7.38957C36.6191 6.93617 35.9561 6.47991 35.3823 6.06552C35.2262 5.95273 35.0789 5.84482 34.9381 5.74167C34.5521 5.45879 34.215 5.21178 33.8772 4.99838C33.4281 4.71464 33.0141 4.51533 32.5594 4.41025C32.1064 4.30558 31.5813 4.28717 30.9065 4.40801C29.5336 4.65387 27.6024 5.46292 24.5216 7.19157L24.3991 7.26029L24.2532 7.25364C20.5833 7.08628 18.442 7.2191 17.1106 7.5987C16.4562 7.78527 16.0122 8.0278 15.6806 8.31391C15.3478 8.60112 15.1049 8.95236 14.8805 9.39189C14.7117 9.72246 14.563 10.0818 14.3927 10.4934C14.3306 10.6434 14.2657 10.8004 14.1958 10.9655C13.9392 11.5719 13.6296 12.2531 13.1843 12.9987C12.2906 14.4947 10.8682 16.2202 8.26522 18.1586C7.7002 18.5793 7.503 19.3399 7.67869 20.1023C7.85433 20.8644 8.37289 21.5024 9.08401 21.7126C11.2433 22.3508 13.2665 23.0852 15.1563 23.7712C15.2272 23.7969 15.2979 23.8226 15.3684 23.8482C17.3261 24.5586 19.1312 25.2076 20.8266 25.6532C24.2039 26.541 27.0482 26.5972 29.64 24.7535Z" stroke="black"/>
<path d="M24.6622 7.75999C24.6378 7.96051 24.7048 8.13686 24.7472 8.33957C24.7716 8.45611 24.8419 8.5795 24.8471 8.6978C24.8519 8.80658 24.8401 8.88331 24.8746 8.99427C25.0098 9.42957 25.1122 9.86924 25.2481 10.3066C25.3707 10.7013 25.4933 11.0959 25.616 11.4905C25.6715 11.6694 25.7271 11.8483 25.7827 12.0272C25.8337 12.1914 25.9412 12.3169 25.9938 12.4863C26.0605 12.701 26.1273 12.9158 26.194 13.1305C26.2655 13.3607 26.3638 13.6672 26.5084 13.8734C26.6296 14.0461 26.7638 14.2133 26.8844 14.3857C26.9343 14.457 26.9956 14.4878 27.06 14.5469C27.1364 14.6171 27.1591 14.7029 27.2506 14.7624C27.3891 14.8526 27.5671 14.93 27.6906 15.034C27.777 15.1068 27.9102 15.0995 27.9945 15.18" stroke="#73402E" stroke-linecap="round"/>
<path d="M26.2824 14.0762C25.9786 14.4674 25.7651 14.9352 25.6037 15.3804C25.5574 15.5083 25.4536 15.7122 25.3316 15.7958C25.245 15.8551 25.1949 15.9532 25.0984 15.9939" stroke="#73402E" stroke-linecap="round"/>
<path d="M34.4279 8.34018C33.7891 9.02464 33.2059 9.50665 32.3915 10.0341C31.8885 10.3598 31.3992 10.6314 30.8626 10.9017C30.3222 11.1739 29.7497 11.4802 29.1416 11.6364C28.4779 11.8069 27.7782 11.8986 27.1245 12.0498" stroke="#73402E" stroke-linecap="round"/>
<path d="M24.2117 12.8298C23.6086 12.9693 22.9573 12.9219 22.3511 13.0475C22.0976 13.0999 21.852 13.1166 21.591 13.1287C20.8152 13.1648 20.0852 13.3822 19.3001 13.3602C18.5051 13.338 17.7302 13.2308 16.9441 13.2021C16.6598 13.1917 16.1433 13.1047 15.9237 12.9418C15.8113 12.8585 15.6596 12.9051 15.5603 12.8102" stroke="#73402E" stroke-linecap="round"/>
</g>
<path d="M21.946 27.5708C21.946 29.0954 22.7229 30.3963 24.0402 31.3337C25.3644 32.276 27.2249 32.8386 29.3134 32.8386C31.4019 32.8386 33.2624 32.276 34.5866 31.3337C35.9039 30.3963 36.6808 29.0954 36.6808 27.5708C36.6808 26.0155 35.8742 24.2493 34.5189 22.8625C33.1692 21.4814 31.3251 20.5283 29.3134 20.5283C27.3018 20.5283 25.4577 21.4814 24.1079 22.8625C22.7526 24.2493 21.946 26.0155 21.946 27.5708Z" fill="#3EB32E" stroke="black"/>
<mask id="mask1_15_255" style="mask-type:alpha" maskUnits="userSpaceOnUse" x="39" y="13" width="16" height="39">
<path d="M47.5169 27.8158L47.9063 27.9989L47.7833 28.4112C46.9478 31.212 45.845 33.48 44.7337 35.7657C44.4267 36.3971 44.119 37.0298 43.8162 37.6755C42.4139 40.6652 41.076 44.0021 40.2677 48.9326C40.2422 49.0881 40.202 49.2427 40.1504 49.3891C40.0577 49.6526 39.981 49.8962 39.9345 50.1138C39.887 50.3362 39.8789 50.4971 39.8967 50.6057C39.912 50.6994 39.9412 50.7314 39.9715 50.7529C40.017 50.785 40.1378 50.8401 40.4159 50.8401L41.8864 50.84C42.1983 50.84 42.737 50.7685 43.288 50.6305C43.85 50.4898 44.3395 50.3008 44.5998 50.1071C44.6731 50.0526 44.7461 49.9781 44.8429 49.8704C44.857 49.8547 44.8719 49.8379 44.8876 49.8203C44.9687 49.7292 45.0701 49.6152 45.1789 49.5154C48.7525 46.2353 50.1211 42.9514 51.0611 39.4338C51.3198 38.4659 51.5474 37.4701 51.7812 36.4471C52.3933 33.7692 53.0478 30.9058 54.4122 27.8747C54.5432 27.5741 54.5279 27.2451 54.3643 26.9498L54.3567 26.9361L54.35 26.922C53.7935 25.751 53.5934 24.854 53.4827 24.0568C53.4464 23.7947 53.4204 23.5567 53.3958 23.3305C53.3436 22.8502 53.2971 22.4233 53.1685 21.9324C52.808 20.5569 51.792 18.7544 47.9158 15.0691C47.7748 14.9351 47.6427 14.7683 47.542 14.6409C47.5143 14.6059 47.4889 14.5739 47.4664 14.5464C47.1125 14.1137 46.4356 13.866 45.7457 14.0033L41.2083 14.9063C40.1816 15.1106 39.8059 15.9555 40.0859 16.5699C40.0993 16.5994 40.1158 16.6339 40.1341 16.6722C40.1949 16.7994 40.2753 16.9678 40.3282 17.1282C41.5241 20.7555 42.5299 23.0492 43.63 24.6263C44.714 26.1805 45.9022 27.0566 47.5169 27.8158Z" fill="#3EB32E" stroke="black"/>
</mask>
<g mask="url(#mask1_15_255)">
<path d="M47.5169 27.8158L47.9063 27.9989L47.7833 28.4112C46.9478 31.212 45.845 33.48 44.7337 35.7657C44.4267 36.3971 44.119 37.0298 43.8162 37.6755C42.4139 40.6652 41.076 44.0021 40.2677 48.9326C40.2422 49.0881 40.202 49.2427 40.1504 49.3891C40.0577 49.6526 39.981 49.8962 39.9345 50.1138C39.887 50.3362 39.8789 50.4971 39.8967 50.6057C39.912 50.6994 39.9412 50.7314 39.9715 50.7529C40.017 50.785 40.1378 50.8401 40.4159 50.8401L41.8864 50.84C42.1983 50.84 42.737 50.7685 43.288 50.6305C43.85 50.4898 44.3395 50.3008 44.5998 50.1071C44.6731 50.0526 44.7461 49.9781 44.8429 49.8704C44.857 49.8547 44.8719 49.8379 44.8876 49.8203C44.9687 49.7292 45.0701 49.6152 45.1789 49.5154C48.7525 46.2353 50.1211 42.9514 51.0611 39.4338C51.3198 38.4659 51.5474 37.4701 51.7812 36.4471C52.3933 33.7692 53.0478 30.9058 54.4122 27.8747C54.5432 27.5741 54.5279 27.2451 54.3643 26.9498L54.3567 26.9361L54.35 26.922C53.7935 25.751 53.5934 24.854 53.4827 24.0568C53.4464 23.7947 53.4204 23.5567 53.3958 23.3305C53.3436 22.8502 53.2971 22.4233 53.1685 21.9324C52.808 20.5569 51.792 18.7544 47.9158 15.0691C47.7748 14.9351 47.6427 14.7683 47.542 14.6409C47.5143 14.6059 47.4889 14.5739 47.4664 14.5464C47.1125 14.1137 46.4356 13.866 45.7457 14.0033L41.2083 14.9063C40.1816 15.1106 39.8059 15.9555 40.0859 16.5699C40.0993 16.5994 40.1158 16.6339 40.1341 16.6722C40.1949 16.7994 40.2753 16.9678 40.3282 17.1282C41.5241 20.7555 42.5299 23.0492 43.63 24.6263C44.714 26.1805 45.9022 27.0566 47.5169 27.8158Z" fill="#3EB32E" stroke="black"/>
<path d="M50.8028 11.4094H39.2639L41.3619 26.9381L53.9498 20.2829L50.8028 11.4094Z" fill="#2E5B1A"/>
<path d="M52.2851 19.1555L49.4006 11.022H38.787L40.7125 25.2739L52.2851 19.1555Z" fill="#B76B4F" stroke="black"/>
<path d="M47.5169 27.8158L47.9063 27.9989L47.7833 28.4112C46.9478 31.212 45.845 33.48 44.7337 35.7657C44.4267 36.3971 44.119 37.0298 43.8162 37.6755C42.4139 40.6652 41.076 44.0021 40.2677 48.9326C40.2422 49.0881 40.202 49.2427 40.1504 49.3891C40.0577 49.6526 39.981 49.8962 39.9345 50.1138C39.887 50.3362 39.8789 50.4971 39.8967 50.6057C39.912 50.6994 39.9412 50.7314 39.9715 50.7529C40.017 50.785 40.1378 50.8401 40.4159 50.8401L41.8864 50.84C42.1983 50.84 42.737 50.7685 43.288 50.6305C43.85 50.4898 44.3395 50.3008 44.5998 50.1071C44.6731 50.0526 44.7461 49.9781 44.8429 49.8704C44.857 49.8547 44.8719 49.8379 44.8876 49.8203C44.9687 49.7292 45.0701 49.6152 45.1789 49.5154C48.7525 46.2353 50.1211 42.9514 51.0611 39.4338C51.3198 38.4659 51.5474 37.4701 51.7812 36.4471C52.3933 33.7692 53.0478 30.9058 54.4122 27.8747C54.5432 27.5741 54.5279 27.2451 54.3643 26.9498L54.3567 26.9361L54.35 26.922C53.7935 25.751 53.5934 24.854 53.4827 24.0568C53.4464 23.7947 53.4204 23.5567 53.3958 23.3305C53.3436 22.8502 53.2971 22.4233 53.1685 21.9324C52.808 20.5569 51.792 18.7544 47.9158 15.0691C47.7748 14.9351 47.6427 14.7683 47.542 14.6409C47.5143 14.6059 47.4889 14.5739 47.4664 14.5464C47.1125 14.1137 46.4356 13.866 45.7457 14.0033L41.2083 14.9063C40.1816 15.1106 39.8059 15.9555 40.0859 16.5699C40.0993 16.5994 40.1158 16.6339 40.1341 16.6722C40.1949 16.7994 40.2753 16.9678 40.3282 17.1282C41.5241 20.7555 42.5299 23.0492 43.63 24.6263C44.714 26.1805 45.9022 27.0566 47.5169 27.8158Z" stroke="black"/>
<path d="M46.0823 10.522H35.5925V18.5082H46.0823V10.522Z" fill="#B76B4F"/>
<path d="M45.1119 14.6422C44.6453 14.6635 44.2323 15.0906 43.9304 15.354C43.4026 15.8144 42.8661 16.2841 42.4046 16.794C42.3043 16.9047 42.2202 17.0175 42.1506 17.1435C42.0811 17.2695 42.1599 17.4144 41.9742 17.493" stroke="#73402E" stroke-linecap="round"/>
</g>
<mask id="mask2_15_255" style="mask-type:alpha" maskUnits="userSpaceOnUse" x="3" y="17" width="17" height="44">
<path d="M11.2058 33.758L10.8644 33.9444L3.88036 33.9751L4.3482 33.7987C4.34796 33.7981 4.34771 33.7974 4.34746 33.7967C4.20102 33.4068 4.21954 32.9756 4.39933 32.5988L4.40546 32.586L4.41084 32.5728C4.96253 31.2241 5.15942 30.1951 5.26849 29.2806C5.30354 28.9867 5.32896 28.7157 5.35335 28.4557C5.40645 27.8896 5.45464 27.376 5.58653 26.7933C5.9571 25.1563 6.99602 23.041 10.8866 18.7482C11.0294 18.5906 11.1509 18.4072 11.2448 18.2654C11.2585 18.2448 11.2715 18.2251 11.2839 18.2066C11.6456 17.6657 12.3238 17.3884 12.9889 17.5422L17.5263 18.5912C18.5052 18.8176 19.0047 19.8433 18.6358 20.7074C18.6284 20.7246 18.6206 20.7428 18.6124 20.7617C18.5557 20.8931 18.4827 21.0623 18.4335 21.2362C17.2317 25.48 16.2196 28.1729 15.1095 30.0268C14.0147 31.8552 12.8189 32.8768 11.2058 33.758Z" fill="#3EB32E" stroke="black"/>
</mask>
<g mask="url(#mask2_15_255)">
<path d="M11.2058 33.758L10.8644 33.9444L3.88036 33.9751L4.3482 33.7987C4.34796 33.7981 4.34771 33.7974 4.34746 33.7967C4.20102 33.4068 4.21954 32.9756 4.39933 32.5988L4.40546 32.586L4.41084 32.5728C4.96253 31.2241 5.15942 30.1951 5.26849 29.2806C5.30354 28.9867 5.32896 28.7157 5.35335 28.4557C5.40645 27.8896 5.45464 27.376 5.58653 26.7933C5.9571 25.1563 6.99602 23.041 10.8866 18.7482C11.0294 18.5906 11.1509 18.4072 11.2448 18.2654C11.2585 18.2448 11.2715 18.2251 11.2839 18.2066C11.6456 17.6657 12.3238 17.3884 12.9889 17.5422L17.5263 18.5912C18.5052 18.8176 19.0047 19.8433 18.6358 20.7074C18.6284 20.7246 18.6206 20.7428 18.6124 20.7617C18.5557 20.8931 18.4827 21.0623 18.4335 21.2362C17.2317 25.48 16.2196 28.1729 15.1095 30.0268C14.0147 31.8552 12.8189 32.8768 11.2058 33.758Z" fill="#3EB32E" stroke="black"/>
<path d="M7.94686 14.6113H19.4857L17.3877 32.6514L4.7999 24.9199L7.94686 14.6113Z" fill="#2E5B1A"/>
<path d="M6.43996 23.6653L9.36598 14.0804H19.9732L18.0306 30.7843L6.43996 23.6653Z" fill="#B76B4F" stroke="black"/>
<path d="M11.2058 33.758L10.8644 33.9444L3.88036 33.9751L4.3482 33.7987C4.34796 33.7981 4.34771 33.7974 4.34746 33.7967C4.20102 33.4068 4.21954 32.9756 4.39933 32.5988L4.40546 32.586L4.41084 32.5728C4.96253 31.2241 5.15942 30.1951 5.26849 29.2806C5.30354 28.9867 5.32896 28.7157 5.35335 28.4557C5.40645 27.8896 5.45464 27.376 5.58653 26.7933C5.9571 25.1563 6.99602 23.041 10.8866 18.7482C11.0294 18.5906 11.1509 18.4072 11.2448 18.2654C11.2585 18.2448 11.2715 18.2251 11.2839 18.2066C11.6456 17.6657 12.3238 17.3884 12.9889 17.5422L17.5263 18.5912C18.5052 18.8176 19.0047 19.8433 18.6358 20.7074C18.6284 20.7246 18.6206 20.7428 18.6124 20.7617C18.5557 20.8931 18.4827 21.0623 18.4335 21.2362C17.2317 25.48 16.2196 28.1729 15.1095 30.0268C14.0147 31.8552 12.8189 32.8768 11.2058 33.758Z" stroke="black"/>
<path d="M12.6673 13.5804H23.1572V22.8582H12.6673V13.5804Z" fill="#B76B4F"/>
<path d="M13.6378 18.367C14.1043 18.3918 14.5173 18.8879 14.8192 19.1939C15.347 19.7287 15.8835 20.2744 16.345 20.8668C16.4453 20.9954 16.5295 21.1264 16.599 21.2728C16.6685 21.4192 16.5897 21.5876 16.7755 21.6789" stroke="#73402E" stroke-linecap="round"/>
</g>
</svg>
