<svg width="98" height="103" viewBox="0 0 98 103" fill="none" xmlns="http://www.w3.org/2000/svg">
<g filter="url(#filter0_d_12_363)">
<mask id="mask0_12_363" style="mask-type:alpha" maskUnits="userSpaceOnUse" x="4" y="5" width="86" height="90">
<path d="M88.0457 48.8408C85.0423 58.594 83.9802 67.159 82.6503 81.3138L73.9543 78.7556C73.9543 78.7556 70.6384 69.6044 73.6764 67.2715C74.6354 66.5351 74.4749 64.822 73.8062 62.8222C71.79 56.7924 70.4777 50.3344 72.2365 44.3907C72.5727 43.2547 73.8202 42.7177 74.9358 43.1162C71.3797 41.8458 69.2157 38.1793 69.8012 34.4164C68.3597 33.6854 66.6231 33.992 65.523 35.1717L62.6528 38.2495C61.7489 39.2188 60.5022 39.7854 59.1826 39.8265L46.8978 40.2096L35.8712 45.6387C34.6867 46.2219 33.32 46.3069 32.0668 45.8755L28.0876 44.5054C26.5625 43.9803 24.8852 44.5248 23.9556 45.847C26.2391 48.8946 26.0498 53.1478 23.5063 55.9391C24.3043 55.0634 25.6579 54.9519 26.488 55.7971C30.8313 60.2194 32.7045 66.5375 33.7551 72.8081C34.1035 74.8877 34.7661 76.4756 35.9585 76.6756C39.7362 77.3092 41.1046 86.9459 41.1046 86.9459L34.6276 93.2872C26.808 81.4136 21.8492 74.3498 14.6185 67.1483C11.9637 64.5042 10.321 60.9594 10.2861 57.2001L10.1612 43.7211L5.9201 33.0226L5.69132 32.1051C5.18359 30.0686 5.66338 27.9159 6.98275 26.3108C8.06922 24.989 9.62839 24.1577 11.3231 23.9967L13.5099 23.7889L18.7605 17.1057C20.1475 15.3403 22.4041 14.4969 24.6089 14.9198L31.4078 16.224L31.3881 16.1451C31.2232 15.4839 31.7314 14.8527 32.4025 14.8853L40.684 15.2872L47.8074 11.0444C48.3846 10.7006 49.1297 11.0193 49.2945 11.6805L49.3142 11.7594L54.7049 7.41606C56.4531 6.00749 58.8415 5.69277 60.8949 6.60038L68.6686 10.0363L70.697 9.19308C72.2688 8.53965 74.0358 8.54165 75.6156 9.19866C77.5341 9.99651 78.9684 11.672 79.4762 13.7084L79.7049 14.626L80.9829 26.0633L87.2006 38.0232C88.9347 41.3588 89.1484 45.2599 88.0457 48.8408Z" fill="#D9D9D9"/>
<path d="M40.3511 15.4854L47.8074 11.0444C48.3846 10.7006 49.1297 11.0193 49.2945 11.6805L49.3142 11.7594L54.7049 7.41606C56.4531 6.00749 58.8415 5.69277 60.8949 6.60038L68.6686 10.0363L70.697 9.19308C72.2688 8.53965 74.0358 8.54165 75.6156 9.19866C77.5341 9.99651 78.9684 11.672 79.4762 13.7084L79.7049 14.626L80.9829 26.0633L87.2006 38.0232C88.9347 41.3588 89.1484 45.2599 88.0457 48.8408C85.0423 58.594 83.9802 67.159 82.6503 81.3138L73.9543 78.7556C73.9543 78.7556 70.6384 69.6044 73.6764 67.2715C74.6354 66.5351 74.4749 64.822 73.8062 62.8222C71.79 56.7924 70.4777 50.3344 72.2365 44.3907C72.5727 43.2547 73.8202 42.7177 74.9358 43.1162V43.1162M46.5185 40.2214L59.1826 39.8265C60.5022 39.7853 61.7489 39.2188 62.6528 38.2495L65.523 35.1717C66.6231 33.992 68.3597 33.6854 69.8012 34.4164M69.8012 34.4164L70.0249 34.5289C72.4643 35.7563 75.2828 35.9337 77.8379 35.0205L78.0873 34.9314M69.8012 34.4164C69.2157 38.1793 71.3797 41.8458 74.9358 43.1162M74.9358 43.1162L77.11 43.893M41.0709 15.3059L32.4025 14.8853C31.7314 14.8527 31.2232 15.4839 31.3881 16.1451L31.4078 16.224L24.6089 14.9198C22.4041 14.4969 20.1475 15.3403 18.7605 17.1057L13.5099 23.7889L11.3231 23.9967C9.6284 24.1577 8.06922 24.989 6.98275 26.3108C5.66338 27.9159 5.18358 30.0686 5.69132 32.1051L5.9201 33.0226L10.1612 43.7211L10.2861 57.2001C10.321 60.9594 11.9637 64.5042 14.6185 67.1483C21.8492 74.3498 26.808 81.4136 34.6276 93.2872L41.1046 86.9459C41.1046 86.9459 39.7362 77.3092 35.9585 76.6756C34.7661 76.4756 34.1035 74.8877 33.7551 72.8081C32.7045 66.5375 30.8313 60.2194 26.488 55.7971C25.6579 54.9519 24.3043 55.0634 23.5063 55.9391V55.9391M47.2383 40.042L35.8712 45.6387C34.6867 46.2219 33.32 46.3069 32.0668 45.8755L28.0876 44.5054C26.5625 43.9803 24.8852 44.5248 23.9556 45.847M23.9556 45.847L23.8109 46.0514C22.2333 48.2803 19.828 49.7601 17.1432 50.1534L16.8812 50.1918M23.9556 45.847C26.2391 48.8946 26.0498 53.1478 23.5063 55.9391M23.5063 55.9391L21.9513 57.6456" stroke="black"/>
</mask>
<g mask="url(#mask0_12_363)">
<path d="M88.0457 48.8408C85.0423 58.594 83.9802 67.159 82.6503 81.3138L73.9543 78.7556C73.9543 78.7556 70.6384 69.6044 73.6764 67.2715C74.6354 66.5351 74.4749 64.822 73.8062 62.8222C71.79 56.7924 70.4777 50.3344 72.2365 44.3907C72.5727 43.2547 73.8202 42.7177 74.9358 43.1162C71.3797 41.8458 69.2157 38.1793 69.8012 34.4164C68.3597 33.6854 66.6231 33.992 65.523 35.1717L62.6528 38.2495C61.7489 39.2188 60.5022 39.7854 59.1826 39.8265L46.8978 40.2096L35.8712 45.6387C34.6867 46.2219 33.32 46.3069 32.0668 45.8755L28.0876 44.5054C26.5625 43.9803 24.8852 44.5248 23.9556 45.847C26.2391 48.8946 26.0498 53.1478 23.5063 55.9391C24.3043 55.0634 25.6579 54.9519 26.488 55.7971C30.8313 60.2194 32.7045 66.5375 33.7551 72.8081C34.1035 74.8877 34.7661 76.4756 35.9585 76.6756C39.7362 77.3092 41.1046 86.9459 41.1046 86.9459L34.6276 93.2872C26.808 81.4136 21.8492 74.3498 14.6185 67.1483C11.9637 64.5042 10.321 60.9594 10.2861 57.2001L10.1612 43.7211L5.9201 33.0226L5.69132 32.1051C5.18359 30.0686 5.66338 27.9159 6.98275 26.3108C8.06922 24.989 9.62839 24.1577 11.3231 23.9967L13.5099 23.7889L18.7605 17.1057C20.1475 15.3403 22.4041 14.4969 24.6089 14.9198L31.4078 16.224L31.3881 16.1451C31.2232 15.4839 31.7314 14.8527 32.4025 14.8853L40.684 15.2872L47.8074 11.0444C48.3846 10.7006 49.1297 11.0193 49.2945 11.6805L49.3142 11.7594L54.7049 7.41606C56.4531 6.00749 58.8415 5.69277 60.8949 6.60038L68.6686 10.0363L70.697 9.19308C72.2688 8.53965 74.0358 8.54165 75.6156 9.19866C77.5341 9.99651 78.9684 11.672 79.4762 13.7084L79.7049 14.626L80.9829 26.0633L87.2006 38.0232C88.9347 41.3588 89.1484 45.2599 88.0457 48.8408Z" fill="#3EB32E"/>
<path d="M40.3511 15.4854L47.8074 11.0444C48.3846 10.7006 49.1297 11.0193 49.2945 11.6805L49.3142 11.7594L54.7049 7.41606C56.4531 6.00749 58.8415 5.69277 60.8949 6.60038L68.6686 10.0363L70.697 9.19308C72.2688 8.53965 74.0358 8.54165 75.6156 9.19866C77.5341 9.99651 78.9684 11.672 79.4762 13.7084L79.7049 14.626L80.9829 26.0633L87.2006 38.0232C88.9347 41.3588 89.1484 45.2599 88.0457 48.8408C85.0423 58.594 83.9802 67.159 82.6503 81.3138L73.9543 78.7556C73.9543 78.7556 70.6384 69.6044 73.6764 67.2715C74.6354 66.5351 74.4749 64.822 73.8062 62.8222C71.79 56.7924 70.4777 50.3344 72.2365 44.3907C72.5727 43.2547 73.8202 42.7177 74.9358 43.1162V43.1162M46.5185 40.2214L59.1826 39.8265C60.5022 39.7853 61.7489 39.2188 62.6528 38.2495L65.523 35.1717C66.6231 33.992 68.3597 33.6854 69.8012 34.4164M69.8012 34.4164L70.0249 34.5289C72.4643 35.7563 75.2828 35.9337 77.8379 35.0205L78.0873 34.9314M69.8012 34.4164C69.2157 38.1793 71.3797 41.8458 74.9358 43.1162M74.9358 43.1162L77.11 43.893M41.0709 15.3059L32.4025 14.8853C31.7314 14.8527 31.2232 15.4839 31.3881 16.1451L31.4078 16.224L24.6089 14.9198C22.4041 14.4969 20.1475 15.3403 18.7605 17.1057L13.5099 23.7889L11.3231 23.9967C9.6284 24.1577 8.06922 24.989 6.98275 26.3108C5.66338 27.9159 5.18358 30.0686 5.69132 32.1051L5.9201 33.0226L10.1612 43.7211L10.2861 57.2001C10.321 60.9594 11.9637 64.5042 14.6185 67.1483C21.8492 74.3498 26.808 81.4136 34.6276 93.2872L41.1046 86.9459C41.1046 86.9459 39.7362 77.3092 35.9585 76.6756C34.7661 76.4756 34.1035 74.8877 33.7551 72.8081C32.7045 66.5375 30.8313 60.2194 26.488 55.7971C25.6579 54.9519 24.3043 55.0634 23.5063 55.9391V55.9391M47.2383 40.042L35.8712 45.6387C34.6867 46.2219 33.32 46.3069 32.0668 45.8755L28.0876 44.5054C26.5625 43.9803 24.8852 44.5248 23.9556 45.847M23.9556 45.847L23.8109 46.0514C22.2333 48.2803 19.828 49.7601 17.1432 50.1534L16.8812 50.1918M23.9556 45.847C26.2391 48.8946 26.0498 53.1478 23.5063 55.9391M23.5063 55.9391L21.9513 57.6456" stroke="black"/>
<ellipse opacity="0.54" cx="52.5" cy="32.5" rx="52.5" ry="32.5" transform="matrix(-0.970296 0.241922 0.241922 0.970296 88.7755 -10.9073)" fill="#21100A"/>
<path d="M-5.24181 43.9675C-3.12797 52.4456 4.35737 58.8123 14.9053 62.1906C25.4446 65.5662 38.9638 65.9254 52.9551 62.437C66.9464 58.9486 78.7144 52.2845 86.4353 44.3562C94.1626 36.4213 97.7828 27.2858 95.6689 18.8076C93.5551 10.3295 86.0698 3.96283 75.5218 0.584492C64.9825 -2.79109 51.4634 -3.15034 37.4721 0.338085C23.4808 3.82651 11.7127 10.4906 3.99178 18.4189C-3.73544 26.3538 -7.35565 35.4893 -5.24181 43.9675Z" fill="#B76B4F" stroke="black"/>
<circle cx="16" cy="16" r="15.5" transform="matrix(-0.970296 0.241922 0.241922 0.970296 58.6832 17.2078)" fill="#319224" stroke="black"/>
<ellipse cx="13" cy="17.5" rx="13" ry="17.5" transform="matrix(-0.970296 0.241922 0.241922 0.970296 56.0143 18.9038)" fill="#18660E"/>
<path opacity="0.51" d="M70.0705 36.0115C70.6326 36.2486 71.594 37.3599 72.2157 37.37C72.8919 37.381 73.5336 37.3715 74.2045 37.4868C74.3688 37.515 75.9827 37.0971 75.9954 37.0403" stroke="#31170E" stroke-width="3" stroke-linecap="round"/>
<path opacity="0.51" d="M72.9762 43.5319C73.5383 43.769 74.4996 44.8804 75.1213 44.8905C75.7976 44.9015 76.4393 44.892 77.1101 45.0072C77.2744 45.0354 78.8884 44.6175 78.9011 44.5607" stroke="#31170E" stroke-width="3" stroke-linecap="round"/>
<path opacity="0.51" d="M23.9815 47.5027C23.5965 47.976 23.2694 49.4086 22.7252 49.7094C22.1333 50.0365 21.5622 50.3294 21.024 50.7461C20.8922 50.8482 19.271 51.2369 19.2331 51.1927" stroke="#31170E" stroke-width="3" stroke-linecap="round"/>
<path opacity="0.51" d="M24.9466 55.507C24.5615 55.9803 24.2345 57.4129 23.6903 57.7137C23.0984 58.0408 22.5273 58.3337 21.9891 58.7504C21.8573 58.8525 20.236 59.2412 20.1982 59.197" stroke="#31170E" stroke-width="3" stroke-linecap="round"/>
<path d="M40.3511 15.4854L47.8074 11.0444C48.3846 10.7006 49.1297 11.0193 49.2945 11.6805L49.3142 11.7594L54.7049 7.41606C56.4531 6.00749 58.8415 5.69277 60.8949 6.60038L68.6686 10.0363L70.697 9.19308C72.2688 8.53965 74.0358 8.54165 75.6156 9.19866C77.5341 9.99651 78.9684 11.672 79.4762 13.7084L79.7049 14.626L80.9829 26.0633L87.2006 38.0232C88.9347 41.3588 89.1484 45.2599 88.0457 48.8408C85.0423 58.594 83.9802 67.159 82.6503 81.3138L73.9543 78.7556C73.9543 78.7556 70.6384 69.6044 73.6764 67.2715C74.6354 66.5351 74.4749 64.822 73.8062 62.8222C71.79 56.7924 70.4777 50.3344 72.2365 44.3907C72.5727 43.2547 73.8202 42.7177 74.9358 43.1162V43.1162M46.5185 40.2214L59.1826 39.8265C60.5022 39.7853 61.7489 39.2188 62.6528 38.2495L65.523 35.1717C66.6231 33.992 68.3597 33.6854 69.8012 34.4164M69.8012 34.4164L70.0249 34.5289C72.4643 35.7563 75.2828 35.9337 77.8379 35.0205L78.0873 34.9314M69.8012 34.4164C69.2157 38.1793 71.3797 41.8458 74.9358 43.1162M74.9358 43.1162L77.11 43.893M41.0709 15.3059L32.4025 14.8853C31.7314 14.8527 31.2232 15.4839 31.3881 16.1451L31.4078 16.224L24.6089 14.9198C22.4041 14.4969 20.1475 15.3403 18.7605 17.1057L13.5099 23.7889L11.3231 23.9967C9.6284 24.1577 8.06922 24.989 6.98275 26.3108C5.66338 27.9159 5.18358 30.0686 5.69132 32.1051L5.9201 33.0226L10.1612 43.7211L10.2861 57.2001C10.321 60.9594 11.9637 64.5042 14.6185 67.1483C21.8492 74.3498 26.808 81.4136 34.6276 93.2872L41.1046 86.9459C41.1046 86.9459 39.7362 77.3092 35.9585 76.6756C34.7661 76.4756 34.1035 74.8877 33.7551 72.8081C32.7045 66.5375 30.8313 60.2194 26.488 55.7971C25.6579 54.9519 24.3043 55.0634 23.5063 55.9391V55.9391M47.2383 40.042L35.8712 45.6387C34.6867 46.2219 33.32 46.3069 32.0668 45.8755L28.0876 44.5054C26.5625 43.9803 24.8852 44.5248 23.9556 45.847M23.9556 45.847L23.8109 46.0514C22.2333 48.2803 19.828 49.7601 17.1432 50.1534L16.8812 50.1918M23.9556 45.847C26.2391 48.8946 26.0498 53.1478 23.5063 55.9391M23.5063 55.9391L21.9513 57.6456" stroke="black"/>
<path d="M69.6694 14.8727C68.0142 16.2751 67.0108 18.7653 66.3316 20.7835C65.7377 22.548 65.5499 24.5552 65.2585 26.3909C65.1077 27.3417 65.1524 27.9246 65.3773 28.8267" stroke="#31170E" stroke-width="2" stroke-linecap="round"/>
<path d="M16.4362 27.7411C18.556 28.2024 20.6111 29.93 22.1583 31.393C23.511 32.6723 24.6192 34.3563 25.7382 35.8404C26.3178 36.609 26.552 37.1446 26.7769 38.0468" stroke="#31170E" stroke-width="2" stroke-linecap="round"/>
</g>
<path d="M38.4295 38.3396C38.4295 41.477 39.6909 43.683 41.7124 45.1227C43.757 46.5788 46.6237 47.2806 49.8549 47.2806C53.0861 47.2806 55.9529 46.5788 57.9975 45.1227C60.019 43.683 61.2804 41.477 61.2804 38.3396C61.2804 35.1678 59.989 31.5437 57.8862 28.7146C55.7797 25.8806 52.9299 23.9328 49.8549 23.9328C46.78 23.9328 43.9301 25.8806 41.8236 28.7146C39.7209 31.5437 38.4295 35.1678 38.4295 38.3396Z" fill="#3EB32E" stroke="black"/>
</g>
<defs>
<filter id="filter0_d_12_363" x="0.992981" y="5.58813" width="92.2311" height="96.4809" filterUnits="userSpaceOnUse" color-interpolation-filters="sRGB">
<feFlood flood-opacity="0" result="BackgroundImageFix"/>
<feColorMatrix in="SourceAlpha" type="matrix" values="0 0 0 0 0 0 0 0 0 0 0 0 0 0 0 0 0 0 127 0" result="hardAlpha"/>
<feOffset dy="4"/>
<feGaussianBlur stdDeviation="2"/>
<feComposite in2="hardAlpha" operator="out"/>
<feColorMatrix type="matrix" values="0 0 0 0 0 0 0 0 0 0 0 0 0 0 0 0 0 0 0.25 0"/>
<feBlend mode="normal" in2="BackgroundImageFix" result="effect1_dropShadow_12_363"/>
<feBlend mode="normal" in="SourceGraphic" in2="effect1_dropShadow_12_363" result="shape"/>
</filter>
</defs>
</svg>
