<svg width="91" height="96" viewBox="0 0 91 96" fill="none" xmlns="http://www.w3.org/2000/svg">
<g filter="url(#filter0_d_12_347)">
<mask id="mask0_12_347" style="mask-type:alpha" maskUnits="userSpaceOnUse" x="4" y="3" width="83" height="85">
<path d="M84.3812 50.2768C80.0496 59.517 77.8059 67.8508 74.5189 81.6829L66.2636 77.9393C66.2636 77.9393 64.2536 68.4157 67.5867 66.5283C68.6388 65.9325 68.7184 64.2138 68.3345 62.1403C67.1771 55.8886 66.7764 49.3108 69.3452 43.6698C69.8362 42.5916 71.1463 42.2334 72.1957 42.7834C68.8509 41.0303 67.2183 37.0984 68.3218 33.4536C66.996 32.5291 65.2337 32.591 63.9801 33.6061L60.7095 36.2545C59.6795 37.0886 58.366 37.4761 57.0536 37.3332L44.835 36.0029L33.1601 39.8445C31.906 40.2572 30.5407 40.1512 29.3598 39.5495L25.61 37.639C24.1728 36.9067 22.4361 37.2126 21.3315 38.3925C23.1687 41.7282 22.3892 45.9137 19.482 48.3238C20.3941 47.5677 21.7501 47.6457 22.4545 48.5982C26.1401 53.5819 27.1157 60.0992 27.2834 66.455C27.339 68.5629 27.7741 70.2276 28.9271 70.5916C32.5798 71.7447 32.5938 81.4781 32.5938 81.4781L25.2972 86.8563C19.2062 74.0099 15.2788 66.3247 9.12074 58.187C6.85974 55.1991 5.72633 51.4602 6.21501 47.7327L7.9672 34.3675L5.25633 23.1829L5.15748 22.2424C4.9381 20.1551 5.71282 18.0901 7.24275 16.6842C8.5026 15.5265 10.1623 14.9203 11.8629 14.9967L14.0573 15.0953L20.187 9.20783C21.8062 7.65263 24.1582 7.13151 26.2827 7.8572L32.8339 10.0949L32.8254 10.014C32.7541 9.33631 33.3452 8.78203 34.0052 8.90766L42.1502 10.4582L49.7948 7.24811C50.4142 6.98801 51.1076 7.40728 51.1789 8.08499L51.1874 8.16586L57.1301 4.61501C59.0574 3.46346 61.4663 3.48419 63.3734 4.66875L70.5932 9.15311L72.7192 8.6004C74.3668 8.17209 76.1162 8.41999 77.5892 9.29047C79.378 10.3476 80.5652 12.2064 80.7846 14.2936L80.8834 15.2341L80.5572 26.738L85.0499 39.4468C86.3029 42.9913 85.9716 46.8841 84.3812 50.2768Z" fill="#D9D9D9"/>
<path d="M41.793 10.6081L49.7948 7.24811C50.4142 6.98801 51.1076 7.40728 51.1789 8.08499L51.1874 8.16586L57.1301 4.61501C59.0574 3.46346 61.4663 3.48419 63.3734 4.66875L70.5932 9.15311L72.7192 8.6004C74.3668 8.17209 76.1162 8.41999 77.5892 9.29047C79.378 10.3476 80.5652 12.2064 80.7846 14.2936L80.8834 15.2341L80.5572 26.738L85.0499 39.4468C86.3029 42.9913 85.9716 46.8841 84.3812 50.2768C80.0496 59.517 77.8059 67.8508 74.5189 81.6829L66.2636 77.9393C66.2636 77.9393 64.2536 68.4157 67.5867 66.5283C68.6388 65.9325 68.7184 64.2138 68.3345 62.1403C67.1771 55.8886 66.7764 49.3108 69.3452 43.6698C69.8362 42.5916 71.1463 42.2334 72.1957 42.7834V42.7834M44.4578 35.9618L57.0536 37.3332C58.366 37.4761 59.6795 37.0886 60.7095 36.2545L63.9801 33.6061C65.2337 32.591 66.996 32.5291 68.3218 33.4536M68.3218 33.4536L68.5276 33.5962C70.7724 35.1511 73.5388 35.719 76.1962 35.1703L76.4556 35.1168M68.3218 33.4536C67.2183 37.0984 68.8509 41.0303 72.1957 42.7834M72.1957 42.7834L74.2406 43.8551M42.5307 10.5306L34.0052 8.90766C33.3452 8.78203 32.7541 9.33631 32.8254 10.014L32.8339 10.0949L26.2827 7.8572C24.1582 7.13151 21.8062 7.65263 20.187 9.20783L14.0573 15.0953L11.8629 14.9967C10.1623 14.9203 8.5026 15.5265 7.24275 16.6842C5.71283 18.0901 4.9381 20.1551 5.15748 22.2424L5.25633 23.1829L7.9672 34.3675L6.21501 47.7327C5.72633 51.4602 6.85975 55.1991 9.12074 58.187C15.2788 66.3247 19.2062 74.0099 25.2972 86.8563L32.5938 81.4781C32.5938 81.4781 32.5798 71.7447 28.9271 70.5916C27.7741 70.2276 27.339 68.5629 27.2834 66.455C27.1157 60.0992 26.1401 53.5819 22.4545 48.5982C21.7501 47.6456 20.3941 47.5677 19.482 48.3238V48.3238M45.1955 35.8842L33.1601 39.8445C31.906 40.2572 30.5407 40.1512 29.3598 39.5495L25.61 37.639C24.1728 36.9067 22.4361 37.2126 21.3315 38.3925M21.3315 38.3925L21.1598 38.5747C19.2873 40.5624 16.6994 41.693 13.9861 41.7089L13.7212 41.7104M21.3315 38.3925C23.1687 41.7282 22.3892 45.9137 19.482 48.3238M19.482 48.3238L17.7047 49.7973" stroke="black"/>
</mask>
<g mask="url(#mask0_12_347)">
<path d="M84.3812 50.2768C80.0496 59.517 77.8059 67.8508 74.5189 81.6829L66.2636 77.9393C66.2636 77.9393 64.2536 68.4157 67.5867 66.5283C68.6388 65.9325 68.7184 64.2138 68.3345 62.1403C67.1771 55.8886 66.7764 49.3108 69.3452 43.6698C69.8362 42.5916 71.1463 42.2334 72.1957 42.7834C68.8509 41.0303 67.2183 37.0984 68.3218 33.4536C66.996 32.5291 65.2337 32.591 63.9801 33.6061L60.7095 36.2545C59.6795 37.0886 58.366 37.4761 57.0536 37.3332L44.835 36.0029L33.1601 39.8445C31.906 40.2572 30.5407 40.1512 29.3598 39.5495L25.61 37.639C24.1728 36.9067 22.4361 37.2126 21.3315 38.3925C23.1687 41.7282 22.3892 45.9137 19.482 48.3238C20.3941 47.5677 21.7501 47.6457 22.4545 48.5982C26.1401 53.5819 27.1157 60.0992 27.2834 66.455C27.339 68.5629 27.7741 70.2276 28.9271 70.5916C32.5798 71.7447 32.5938 81.4781 32.5938 81.4781L25.2972 86.8563C19.2062 74.0099 15.2788 66.3247 9.12074 58.187C6.85974 55.1991 5.72633 51.4602 6.21501 47.7327L7.9672 34.3675L5.25633 23.1829L5.15748 22.2424C4.9381 20.1551 5.71282 18.0901 7.24275 16.6842C8.5026 15.5265 10.1623 14.9203 11.8629 14.9967L14.0573 15.0953L20.187 9.20783C21.8062 7.65263 24.1582 7.13151 26.2827 7.8572L32.8339 10.0949L32.8254 10.014C32.7541 9.33631 33.3452 8.78203 34.0052 8.90766L42.1502 10.4582L49.7948 7.24811C50.4142 6.98801 51.1076 7.40728 51.1789 8.08499L51.1874 8.16586L57.1301 4.61501C59.0574 3.46346 61.4663 3.48419 63.3734 4.66875L70.5932 9.15311L72.7192 8.6004C74.3668 8.17209 76.1162 8.41999 77.5892 9.29047C79.378 10.3476 80.5652 12.2064 80.7846 14.2936L80.8834 15.2341L80.5572 26.738L85.0499 39.4468C86.3029 42.9913 85.9716 46.8841 84.3812 50.2768Z" fill="#3EB32E"/>
<path d="M41.793 10.6081L49.7948 7.24811C50.4142 6.98801 51.1076 7.40728 51.1789 8.08499L51.1874 8.16586L57.1301 4.61501C59.0574 3.46346 61.4663 3.48419 63.3734 4.66875L70.5932 9.15311L72.7192 8.6004C74.3668 8.17209 76.1162 8.41999 77.5892 9.29047C79.378 10.3476 80.5652 12.2064 80.7846 14.2936L80.8834 15.2341L80.5572 26.738L85.0499 39.4468C86.3029 42.9913 85.9716 46.8841 84.3812 50.2768C80.0496 59.517 77.8059 67.8508 74.5189 81.6829L66.2636 77.9393C66.2636 77.9393 64.2536 68.4157 67.5867 66.5283C68.6388 65.9325 68.7184 64.2138 68.3345 62.1403C67.1771 55.8886 66.7764 49.3108 69.3452 43.6698C69.8362 42.5916 71.1463 42.2334 72.1957 42.7834V42.7834M44.4578 35.9618L57.0536 37.3332C58.366 37.4761 59.6795 37.0886 60.7095 36.2545L63.9801 33.6061C65.2337 32.591 66.996 32.5291 68.3218 33.4536M68.3218 33.4536L68.5276 33.5962C70.7724 35.1511 73.5388 35.719 76.1962 35.1703L76.4556 35.1168M68.3218 33.4536C67.2183 37.0984 68.8509 41.0303 72.1957 42.7834M72.1957 42.7834L74.2406 43.8551M42.5307 10.5306L34.0052 8.90766C33.3452 8.78203 32.7541 9.33631 32.8254 10.014L32.8339 10.0949L26.2827 7.8572C24.1582 7.13151 21.8062 7.65263 20.187 9.20783L14.0573 15.0953L11.8629 14.9967C10.1623 14.9203 8.5026 15.5265 7.24275 16.6842C5.71283 18.0901 4.9381 20.1551 5.15748 22.2424L5.25633 23.1829L7.9672 34.3675L6.21501 47.7327C5.72633 51.4602 6.85975 55.1991 9.12074 58.187C15.2788 66.3247 19.2062 74.0099 25.2972 86.8563L32.5938 81.4781C32.5938 81.4781 32.5798 71.7447 28.9271 70.5916C27.7741 70.2276 27.339 68.5629 27.2834 66.455C27.1157 60.0992 26.1401 53.5819 22.4545 48.5982C21.7501 47.6456 20.3941 47.5677 19.482 48.3238V48.3238M45.1955 35.8842L33.1601 39.8445C31.906 40.2572 30.5407 40.1512 29.3598 39.5495L25.61 37.639C24.1728 36.9067 22.4361 37.2126 21.3315 38.3925M21.3315 38.3925L21.1598 38.5747C19.2873 40.5624 16.6994 41.693 13.9861 41.7089L13.7212 41.7104M21.3315 38.3925C23.1687 41.7282 22.3892 45.9137 19.482 48.3238M19.482 48.3238L17.7047 49.7973" stroke="black"/>
<ellipse opacity="0.54" cx="52.5" cy="32.5" rx="52.5" ry="32.5" transform="matrix(-0.994522 0.104528 0.104528 0.994522 93.4192 -8.78839)" fill="#21100A"/>
<path d="M-7.32022 32.4678C-6.40688 41.1576 0.119552 48.504 10.0946 53.3175C20.0616 58.127 33.3992 60.3643 47.7398 58.857C62.0805 57.3497 74.6615 52.3883 83.4107 45.6117C92.167 38.8295 97.0234 30.2866 96.1101 21.5968C95.1967 12.907 88.6703 5.56056 78.6952 0.747115C68.7282 -4.0624 55.3907 -6.29966 41.05 -4.7924C26.7094 -3.28514 14.1284 1.67627 5.37918 8.45294C-3.37715 15.2351 -8.23356 23.778 -7.32022 32.4678Z" fill="#B76B4F" stroke="black"/>
<circle cx="16" cy="16" r="15.5" transform="matrix(-0.994522 0.104528 0.104528 0.994522 59.707 14.8651)" fill="#319224" stroke="black"/>
<ellipse cx="13" cy="17.5" rx="13" ry="17.5" transform="matrix(-0.994522 0.104528 0.104528 0.994522 56.8279 16.1732)" fill="#18660E"/>
<path opacity="0.51" d="M68.3665 35.0706C68.8901 35.3837 69.6874 36.618 70.3017 36.7145C70.9698 36.8195 71.6066 36.8994 72.2549 37.1069C72.4136 37.1577 74.0701 36.9685 74.0905 36.914" stroke="#31170E" stroke-width="3" stroke-linecap="round"/>
<path opacity="0.51" d="M70.1972 42.9223C70.7209 43.2353 71.5182 44.4696 72.1324 44.5661C72.8006 44.6711 73.4374 44.751 74.0857 44.9585C74.2444 45.0093 75.9008 44.8201 75.9213 44.7656" stroke="#31170E" stroke-width="3" stroke-linecap="round"/>
<path opacity="0.51" d="M21.1267 40.0357C20.6796 40.4507 20.1563 41.8239 19.5755 42.046C18.9438 42.2876 18.3376 42.4981 17.7466 42.8359C17.6019 42.9186 15.9423 43.0779 15.911 43.0288" stroke="#31170E" stroke-width="3" stroke-linecap="round"/>
<path opacity="0.51" d="M20.9684 48.0964C20.5213 48.5115 19.9981 49.8846 19.4173 50.1067C18.7856 50.3483 18.1793 50.5589 17.5883 50.8966C17.4436 50.9793 15.784 51.1387 15.7527 51.0896" stroke="#31170E" stroke-width="3" stroke-linecap="round"/>
<path d="M41.793 10.6081L49.7948 7.24811C50.4142 6.98801 51.1076 7.40728 51.1789 8.08499L51.1874 8.16586L57.1301 4.61501C59.0574 3.46346 61.4663 3.48419 63.3734 4.66875L70.5932 9.15311L72.7192 8.6004C74.3668 8.17209 76.1162 8.41999 77.5892 9.29047C79.378 10.3476 80.5652 12.2064 80.7846 14.2936L80.8834 15.2341L80.5572 26.738L85.0499 39.4468C86.3029 42.9913 85.9716 46.8841 84.3812 50.2768C80.0496 59.517 77.8059 67.8508 74.5189 81.6829L66.2636 77.9393C66.2636 77.9393 64.2536 68.4157 67.5867 66.5283C68.6388 65.9325 68.7184 64.2138 68.3345 62.1403C67.1771 55.8886 66.7764 49.3108 69.3452 43.6698C69.8362 42.5916 71.1463 42.2334 72.1957 42.7834V42.7834M44.4578 35.9618L57.0536 37.3332C58.366 37.4761 59.6795 37.0886 60.7095 36.2545L63.9801 33.6061C65.2337 32.591 66.996 32.5291 68.3218 33.4536M68.3218 33.4536L68.5276 33.5962C70.7724 35.1511 73.5388 35.719 76.1962 35.1703L76.4556 35.1168M68.3218 33.4536C67.2183 37.0984 68.8509 41.0303 72.1957 42.7834M72.1957 42.7834L74.2406 43.8551M42.5307 10.5306L34.0052 8.90766C33.3452 8.78203 32.7541 9.33631 32.8254 10.014L32.8339 10.0949L26.2827 7.8572C24.1582 7.13151 21.8062 7.65263 20.187 9.20783L14.0573 15.0953L11.8629 14.9967C10.1623 14.9203 8.5026 15.5265 7.24275 16.6842C5.71283 18.0901 4.9381 20.1551 5.15748 22.2424L5.25633 23.1829L7.9672 34.3675L6.21501 47.7327C5.72633 51.4602 6.85975 55.1991 9.12074 58.187C15.2788 66.3247 19.2062 74.0099 25.2972 86.8563L32.5938 81.4781C32.5938 81.4781 32.5798 71.7447 28.9271 70.5916C27.7741 70.2276 27.339 68.5629 27.2834 66.455C27.1157 60.0992 26.1401 53.5819 22.4545 48.5982C21.7501 47.6456 20.3941 47.5677 19.482 48.3238V48.3238M45.1955 35.8842L33.1601 39.8445C31.906 40.2572 30.5407 40.1512 29.3598 39.5495L25.61 37.639C24.1728 36.9067 22.4361 37.2126 21.3315 38.3925M21.3315 38.3925L21.1598 38.5747C19.2873 40.5624 16.6994 41.693 13.9861 41.7089L13.7212 41.7104M21.3315 38.3925C23.1687 41.7282 22.3892 45.9137 19.482 48.3238M19.482 48.3238L17.7047 49.7973" stroke="black"/>
<path d="M70.9112 14.0817C69.0769 15.2402 67.7367 17.5664 66.7832 19.4705C65.9495 21.1352 65.4842 23.0967 64.9402 24.874C64.6585 25.7945 64.6216 26.3779 64.7188 27.3026" stroke="#31170E" stroke-width="2" stroke-linecap="round"/>
<path d="M16.4051 19.4163C18.4401 20.1681 20.2347 22.1649 21.5633 23.829C22.7248 25.2841 23.5878 27.1059 24.4894 28.7313C24.9564 29.5732 25.1137 30.1362 25.2109 31.0608" stroke="#31170E" stroke-width="2" stroke-linecap="round"/>
</g>
<path d="M35.1944 34.3396C35.1944 37.477 36.4558 39.683 38.4773 41.1227C40.5219 42.5788 43.3886 43.2806 46.6198 43.2806C49.851 43.2806 52.7178 42.5788 54.7623 41.1227C56.7839 39.683 58.0453 37.477 58.0453 34.3396C58.0453 31.1678 56.7539 27.5437 54.6511 24.7146C52.5446 21.8806 49.6947 19.9328 46.6198 19.9328C43.5449 19.9328 40.695 21.8806 38.5885 24.7146C36.4858 27.5437 35.1944 31.1678 35.1944 34.3396Z" fill="#3EB32E" stroke="black"/>
</g>
<defs>
<filter id="filter0_d_12_347" x="0.62085" y="3.26562" width="89.6937" height="92.3532" filterUnits="userSpaceOnUse" color-interpolation-filters="sRGB">
<feFlood flood-opacity="0" result="BackgroundImageFix"/>
<feColorMatrix in="SourceAlpha" type="matrix" values="0 0 0 0 0 0 0 0 0 0 0 0 0 0 0 0 0 0 127 0" result="hardAlpha"/>
<feOffset dy="4"/>
<feGaussianBlur stdDeviation="2"/>
<feComposite in2="hardAlpha" operator="out"/>
<feColorMatrix type="matrix" values="0 0 0 0 0 0 0 0 0 0 0 0 0 0 0 0 0 0 0.25 0"/>
<feBlend mode="normal" in2="BackgroundImageFix" result="effect1_dropShadow_12_347"/>
<feBlend mode="normal" in="SourceGraphic" in2="effect1_dropShadow_12_347" result="shape"/>
</filter>
</defs>
</svg>
