<svg width="91" height="96" viewBox="0 0 91 96" fill="none" xmlns="http://www.w3.org/2000/svg">
<g filter="url(#filter0_d_12_279)">
<mask id="mask0_12_279" style="mask-type:alpha" maskUnits="userSpaceOnUse" x="4" y="2" width="83" height="86">
<path d="M6.34573 49.7881C10.6773 59.0284 12.921 67.3622 16.208 81.1942L24.4633 77.4506C24.4633 77.4506 26.4733 67.927 23.1402 66.0396C22.0881 65.4439 22.0086 63.7251 22.3924 61.6517C23.5498 55.3999 23.9506 48.8222 21.3817 43.1811C20.8907 42.1029 19.5806 41.7448 18.5313 42.2947C21.876 40.5417 23.5086 36.6098 22.4051 32.9649C23.7309 32.0405 25.4933 32.1024 26.7468 33.1174L30.0175 35.7659C31.0475 36.5999 32.3609 36.9875 33.6734 36.8446L45.8919 35.5142L57.5668 39.3559C58.8209 39.7685 60.1862 39.6625 61.3671 39.0609L65.1169 37.1503C66.5541 36.4181 68.2908 36.7239 69.3954 37.9038C67.5583 41.2396 68.3377 45.425 71.2449 47.8351C70.3328 47.079 68.9769 47.157 68.2724 48.1095C64.5869 53.0932 63.6113 59.6106 63.4436 65.9663C63.388 68.0743 62.9528 69.7389 61.7998 70.1029C58.1471 71.2561 58.1332 80.9895 58.1332 80.9895L65.4297 86.3676C71.5207 73.5213 75.4481 65.836 81.6062 57.6983C83.8672 54.7105 85.0006 50.9715 84.5119 47.244L82.7597 33.8788L85.4706 22.6942L85.5695 21.7537C85.7888 19.6665 85.0141 17.6014 83.4842 16.1955C82.2243 15.0378 80.5646 14.4316 78.8641 14.508L76.6696 14.6066L70.5399 8.71918C68.9207 7.16399 66.5688 6.64286 64.4442 7.36855L57.8931 9.60624L57.9016 9.52537C57.9728 8.84766 57.3817 8.29338 56.7217 8.41902L48.5768 9.96952L40.9321 6.75946C40.3127 6.49936 39.6193 6.91863 39.5481 7.59634L39.5396 7.67721L33.5968 4.12636C31.6696 2.97481 29.2607 2.99555 27.3535 4.18011L20.1337 8.66446L18.0077 8.11176C16.3602 7.68344 14.6107 7.93134 13.1377 8.80183C11.3489 9.85892 10.1617 11.7177 9.94237 13.805L9.84352 14.7455L10.1697 26.2493L5.67705 38.9582C4.42406 42.5026 4.75535 46.3955 6.34573 49.7881Z" fill="#D9D9D9"/>
<path d="M48.9339 10.1195L40.9321 6.75946C40.3127 6.49936 39.6193 6.91863 39.5481 7.59634L39.5396 7.67721L33.5968 4.12636C31.6696 2.97481 29.2607 2.99555 27.3535 4.18011L20.1337 8.66446L18.0077 8.11176C16.3602 7.68344 14.6107 7.93134 13.1377 8.80183C11.3489 9.85892 10.1617 11.7177 9.94237 13.805L9.84352 14.7455L10.1697 26.2493L5.67705 38.9582C4.42406 42.5026 4.75535 46.3955 6.34573 49.7881C10.6773 59.0284 12.921 67.3622 16.208 81.1942L24.4633 77.4506C24.4633 77.4506 26.4733 67.927 23.1402 66.0396C22.0881 65.4439 22.0086 63.7251 22.3924 61.6517C23.5498 55.3999 23.9506 48.8222 21.3817 43.1811C20.8907 42.1029 19.5806 41.7448 18.5313 42.2947V42.2947M46.2691 35.4731L33.6734 36.8446C32.3609 36.9875 31.0475 36.5999 30.0175 35.7659L26.7468 33.1174C25.4933 32.1024 23.7309 32.0405 22.4051 32.9649M22.4051 32.9649L22.1993 33.1075C19.9545 34.6625 17.1881 35.2303 14.5308 34.6817L14.2714 34.6281M22.4051 32.9649C23.5086 36.6098 21.876 40.5417 18.5313 42.2947M18.5313 42.2947L16.4864 43.3665M48.1962 10.042L56.7217 8.41902C57.3817 8.29338 57.9728 8.84766 57.9016 9.52537L57.8931 9.60624L64.4442 7.36855C66.5688 6.64286 68.9207 7.16399 70.5399 8.71918L76.6696 14.6066L78.8641 14.508C80.5646 14.4316 82.2243 15.0378 83.4842 16.1955C85.0141 17.6014 85.7888 19.6665 85.5695 21.7537L85.4706 22.6942L82.7597 33.8788L84.5119 47.244C85.0006 50.9715 83.8672 54.7105 81.6062 57.6983C75.4481 65.836 71.5207 73.5213 65.4297 86.3676L58.1332 80.9895C58.1332 80.9895 58.1471 71.2561 61.7998 70.1029C62.9528 69.7389 63.388 68.0743 63.4436 65.9663C63.6113 59.6106 64.5869 53.0932 68.2724 48.1095C68.9769 47.157 70.3328 47.079 71.2449 47.8351V47.8351M45.5315 35.3956L57.5668 39.3559C58.8209 39.7685 60.1862 39.6625 61.3671 39.0609L65.1169 37.1503C66.5541 36.4181 68.2908 36.7239 69.3954 37.9038M69.3954 37.9038L69.5671 38.0861C71.4396 40.0738 74.0275 41.2044 76.7408 41.2202L77.0057 41.2218M69.3954 37.9038C67.5583 41.2396 68.3377 45.425 71.2449 47.8351M71.2449 47.8351L73.0223 49.3086" stroke="black"/>
</mask>
<g mask="url(#mask0_12_279)">
<path d="M6.34573 49.7881C10.6773 59.0284 12.921 67.3622 16.208 81.1942L24.4633 77.4506C24.4633 77.4506 26.4733 67.927 23.1402 66.0396C22.0881 65.4439 22.0086 63.7251 22.3924 61.6517C23.5498 55.3999 23.9506 48.8222 21.3817 43.1811C20.8907 42.1029 19.5806 41.7448 18.5313 42.2947C21.876 40.5417 23.5086 36.6098 22.4051 32.9649C23.7309 32.0405 25.4933 32.1024 26.7468 33.1174L30.0175 35.7659C31.0475 36.5999 32.3609 36.9875 33.6734 36.8446L45.8919 35.5142L57.5668 39.3559C58.8209 39.7685 60.1862 39.6625 61.3671 39.0609L65.1169 37.1503C66.5541 36.4181 68.2908 36.7239 69.3954 37.9038C67.5583 41.2396 68.3377 45.425 71.2449 47.8351C70.3328 47.079 68.9769 47.157 68.2724 48.1095C64.5869 53.0932 63.6113 59.6106 63.4436 65.9663C63.388 68.0743 62.9528 69.7389 61.7998 70.1029C58.1471 71.2561 58.1332 80.9895 58.1332 80.9895L65.4297 86.3676C71.5207 73.5213 75.4481 65.836 81.6062 57.6983C83.8672 54.7105 85.0006 50.9715 84.5119 47.244L82.7597 33.8788L85.4706 22.6942L85.5695 21.7537C85.7888 19.6665 85.0141 17.6014 83.4842 16.1955C82.2243 15.0378 80.5646 14.4316 78.8641 14.508L76.6696 14.6066L70.5399 8.71918C68.9207 7.16399 66.5688 6.64286 64.4442 7.36855L57.8931 9.60624L57.9016 9.52537C57.9728 8.84766 57.3817 8.29338 56.7217 8.41902L48.5768 9.96952L40.9321 6.75946C40.3127 6.49936 39.6193 6.91863 39.5481 7.59634L39.5396 7.67721L33.5968 4.12636C31.6696 2.97481 29.2607 2.99555 27.3535 4.18011L20.1337 8.66446L18.0077 8.11176C16.3602 7.68344 14.6107 7.93134 13.1377 8.80183C11.3489 9.85892 10.1617 11.7177 9.94237 13.805L9.84352 14.7455L10.1697 26.2493L5.67705 38.9582C4.42406 42.5026 4.75535 46.3955 6.34573 49.7881Z" fill="#3EB32E"/>
<path d="M48.9339 10.1195L40.9321 6.75946C40.3127 6.49936 39.6193 6.91863 39.5481 7.59634L39.5396 7.67721L33.5968 4.12636C31.6696 2.97481 29.2607 2.99555 27.3535 4.18011L20.1337 8.66446L18.0077 8.11176C16.3602 7.68344 14.6107 7.93134 13.1377 8.80183C11.3489 9.85892 10.1617 11.7177 9.94237 13.805L9.84352 14.7455L10.1697 26.2493L5.67705 38.9582C4.42406 42.5026 4.75535 46.3955 6.34573 49.7881C10.6773 59.0284 12.921 67.3622 16.208 81.1942L24.4633 77.4506C24.4633 77.4506 26.4733 67.927 23.1402 66.0396C22.0881 65.4439 22.0086 63.7251 22.3924 61.6517C23.5498 55.3999 23.9506 48.8222 21.3817 43.1811C20.8907 42.1029 19.5806 41.7448 18.5313 42.2947V42.2947M46.2691 35.4731L33.6734 36.8446C32.3609 36.9875 31.0475 36.5999 30.0175 35.7659L26.7468 33.1174C25.4933 32.1024 23.7309 32.0405 22.4051 32.9649M22.4051 32.9649L22.1993 33.1075C19.9545 34.6625 17.1881 35.2303 14.5308 34.6817L14.2714 34.6281M22.4051 32.9649C23.5086 36.6098 21.876 40.5417 18.5313 42.2947M18.5313 42.2947L16.4864 43.3665M48.1962 10.042L56.7217 8.41902C57.3817 8.29338 57.9728 8.84766 57.9016 9.52537L57.8931 9.60624L64.4442 7.36855C66.5688 6.64286 68.9207 7.16399 70.5399 8.71918L76.6696 14.6066L78.8641 14.508C80.5646 14.4316 82.2243 15.0378 83.4842 16.1955C85.0141 17.6014 85.7888 19.6665 85.5695 21.7537L85.4706 22.6942L82.7597 33.8788L84.5119 47.244C85.0006 50.9715 83.8672 54.7105 81.6062 57.6983C75.4481 65.836 71.5207 73.5213 65.4297 86.3676L58.1332 80.9895C58.1332 80.9895 58.1471 71.2561 61.7998 70.1029C62.9528 69.7389 63.388 68.0743 63.4436 65.9663C63.6113 59.6106 64.5869 53.0932 68.2724 48.1095C68.9769 47.157 70.3328 47.079 71.2449 47.8351V47.8351M45.5315 35.3956L57.5668 39.3559C58.8209 39.7685 60.1862 39.6625 61.3671 39.0609L65.1169 37.1503C66.5541 36.4181 68.2908 36.7239 69.3954 37.9038M69.3954 37.9038L69.5671 38.0861C71.4396 40.0738 74.0275 41.2044 76.7408 41.2202L77.0057 41.2218M69.3954 37.9038C67.5583 41.2396 68.3377 45.425 71.2449 47.8351M71.2449 47.8351L73.0223 49.3086" stroke="black"/>
<ellipse opacity="0.54" cx="46.1229" cy="28.5327" rx="52.5" ry="32.5" transform="rotate(6 46.1229 28.5327)" fill="#21100A"/>
<path d="M98.0471 31.9791C97.1338 40.669 90.6074 48.0154 80.6323 52.8288C70.6653 57.6384 57.3277 59.8756 42.9871 58.3684C28.6464 56.8611 16.0655 51.8997 7.31626 45.123C-1.44007 38.3408 -6.29648 29.798 -5.38314 21.1082C-4.46981 12.4183 2.05663 5.07191 12.0317 0.258468C21.9987 -4.55105 35.3363 -6.78831 49.6769 -5.28105C64.0176 -3.77378 76.5985 1.18763 85.3477 7.96429C94.1041 14.7465 98.9605 23.2893 98.0471 31.9791Z" fill="#B76B4F" stroke="black"/>
<circle cx="45.2598" cy="31.9613" r="15.5" transform="rotate(6 45.2598 31.9613)" fill="#319224" stroke="black"/>
<ellipse cx="44.9985" cy="34.4476" rx="13" ry="17.5" transform="rotate(6 44.9985 34.4476)" fill="#18660E"/>
<path opacity="0.51" d="M22.3604 34.582C21.8368 34.895 21.0395 36.1293 20.4252 36.2259C19.7571 36.3309 19.1203 36.4107 18.472 36.6183C18.3133 36.6691 16.6569 36.4798 16.6364 36.4253" stroke="#31170E" stroke-width="3" stroke-linecap="round"/>
<path opacity="0.51" d="M20.5297 42.4336C20.0061 42.7466 19.2088 43.981 18.5945 44.0775C17.9264 44.1825 17.2896 44.2624 16.6413 44.4699C16.4825 44.5207 14.8261 44.3315 14.8057 44.277" stroke="#31170E" stroke-width="3" stroke-linecap="round"/>
<path opacity="0.51" d="M69.6002 39.547C70.0473 39.9621 70.5706 41.3352 71.1514 41.5574C71.7831 41.799 72.3893 42.0095 72.9803 42.3473C73.125 42.43 74.7846 42.5893 74.8159 42.5402" stroke="#31170E" stroke-width="3" stroke-linecap="round"/>
<path opacity="0.51" d="M69.7585 47.6078C70.2056 48.0228 70.7289 49.3959 71.3096 49.6181C71.9413 49.8597 72.5476 50.0702 73.1386 50.408C73.2833 50.4907 74.9429 50.65 74.9742 50.6009" stroke="#31170E" stroke-width="3" stroke-linecap="round"/>
<path d="M48.9339 10.1195L40.9321 6.75946C40.3127 6.49936 39.6193 6.91863 39.5481 7.59634L39.5396 7.67721L33.5968 4.12636C31.6696 2.97481 29.2607 2.99555 27.3535 4.18011L20.1337 8.66446L18.0077 8.11176C16.3602 7.68344 14.6107 7.93134 13.1377 8.80183C11.3489 9.85892 10.1617 11.7177 9.94237 13.805L9.84352 14.7455L10.1697 26.2493L5.67705 38.9582C4.42406 42.5026 4.75535 46.3955 6.34573 49.7881C10.6773 59.0284 12.921 67.3622 16.208 81.1942L24.4633 77.4506C24.4633 77.4506 26.4733 67.927 23.1402 66.0396C22.0881 65.4439 22.0086 63.7251 22.3924 61.6517C23.5498 55.3999 23.9506 48.8222 21.3817 43.1811C20.8907 42.1029 19.5806 41.7448 18.5313 42.2947V42.2947M46.2691 35.4731L33.6734 36.8446C32.3609 36.9875 31.0475 36.5999 30.0175 35.7659L26.7468 33.1174C25.4933 32.1024 23.7309 32.0405 22.4051 32.9649M22.4051 32.9649L22.1993 33.1075C19.9545 34.6625 17.1881 35.2303 14.5308 34.6817L14.2714 34.6281M22.4051 32.9649C23.5086 36.6098 21.876 40.5417 18.5313 42.2947M18.5313 42.2947L16.4864 43.3665M48.1962 10.042L56.7217 8.41902C57.3817 8.29338 57.9728 8.84766 57.9016 9.52537L57.8931 9.60624L64.4442 7.36855C66.5688 6.64286 68.9207 7.16399 70.5399 8.71918L76.6696 14.6066L78.8641 14.508C80.5646 14.4316 82.2243 15.0378 83.4842 16.1955C85.0141 17.6014 85.7888 19.6665 85.5695 21.7537L85.4706 22.6942L82.7597 33.8788L84.5119 47.244C85.0006 50.9715 83.8672 54.7105 81.6062 57.6983C75.4481 65.836 71.5207 73.5213 65.4297 86.3676L58.1332 80.9895C58.1332 80.9895 58.1471 71.2561 61.7998 70.1029C62.9528 69.7389 63.388 68.0743 63.4436 65.9663C63.6113 59.6106 64.5869 53.0932 68.2724 48.1095C68.9769 47.157 70.3328 47.079 71.2449 47.8351V47.8351M45.5315 35.3956L57.5668 39.3559C58.8209 39.7685 60.1862 39.6625 61.3671 39.0609L65.1169 37.1503C66.5541 36.4181 68.2908 36.7239 69.3954 37.9038M69.3954 37.9038L69.5671 38.0861C71.4396 40.0738 74.0275 41.2044 76.7408 41.2202L77.0057 41.2218M69.3954 37.9038C67.5583 41.2396 68.3377 45.425 71.2449 47.8351M71.2449 47.8351L73.0223 49.3086" stroke="black"/>
<path d="M19.8157 13.5931C21.65 14.7515 22.9902 17.0778 23.9437 18.9818C24.7774 20.6466 25.2427 22.608 25.7867 24.3853C26.0684 25.3059 26.1053 25.8893 26.0081 26.814" stroke="#31170E" stroke-width="2" stroke-linecap="round"/>
<path d="M74.3218 18.9277C72.2868 19.6794 70.4922 21.6762 69.1636 23.3404C68.0021 24.7954 67.1391 26.6173 66.2375 28.2427C65.7705 29.0845 65.6132 29.6475 65.516 30.5722" stroke="#31170E" stroke-width="2" stroke-linecap="round"/>
</g>
<path d="M55.5326 33.851C55.5326 36.9884 54.2712 39.1943 52.2496 40.6341C50.205 42.0902 47.3383 42.792 44.1071 42.792C40.8759 42.792 38.0092 42.0902 35.9646 40.6341C33.943 39.1943 32.6816 36.9884 32.6816 33.851C32.6816 30.6792 33.973 27.055 36.0758 24.226C38.1823 21.392 41.0322 19.4442 44.1071 19.4442C47.182 19.4442 50.0319 21.392 52.1384 24.226C54.2412 27.055 55.5326 30.6792 55.5326 33.851Z" fill="#3EB32E" stroke="black"/>
</g>
<defs>
<filter id="filter0_d_12_279" x="0.412338" y="2.77698" width="89.6937" height="92.3532" filterUnits="userSpaceOnUse" color-interpolation-filters="sRGB">
<feFlood flood-opacity="0" result="BackgroundImageFix"/>
<feColorMatrix in="SourceAlpha" type="matrix" values="0 0 0 0 0 0 0 0 0 0 0 0 0 0 0 0 0 0 127 0" result="hardAlpha"/>
<feOffset dy="4"/>
<feGaussianBlur stdDeviation="2"/>
<feComposite in2="hardAlpha" operator="out"/>
<feColorMatrix type="matrix" values="0 0 0 0 0 0 0 0 0 0 0 0 0 0 0 0 0 0 0.25 0"/>
<feBlend mode="normal" in2="BackgroundImageFix" result="effect1_dropShadow_12_279"/>
<feBlend mode="normal" in="SourceGraphic" in2="effect1_dropShadow_12_279" result="shape"/>
</filter>
</defs>
</svg>
