<svg width="91" height="96" viewBox="0 0 91 96" fill="none" xmlns="http://www.w3.org/2000/svg">
<g filter="url(#filter0_d_12_379)">
<mask id="mask0_12_379" style="mask-type:alpha" maskUnits="userSpaceOnUse" x="4" y="3" width="83" height="85">
<path d="M84.6163 50.2768C80.2847 59.517 78.041 67.8508 74.754 81.6829L66.4987 77.9393C66.4987 77.9393 64.4887 68.4157 67.8218 66.5283C68.8739 65.9325 68.9534 64.2138 68.5696 62.1403C67.4122 55.8886 67.0114 49.3108 69.5803 43.6698C70.0713 42.5916 71.3814 42.2334 72.4307 42.7834C69.086 41.0303 67.4534 37.0984 68.5569 33.4536C67.2311 32.5291 65.4687 32.591 64.2152 33.6061L60.9445 36.2545C59.9145 37.0886 58.6011 37.4761 57.2886 37.3332L45.0701 36.0029L33.3952 39.8445C32.1411 40.2572 30.7758 40.1512 29.5949 39.5495L25.8451 37.639C24.4079 36.9067 22.6712 37.2126 21.5666 38.3925C23.4037 41.7282 22.6243 45.9137 19.7171 48.3238C20.6292 47.5677 21.9851 47.6457 22.6896 48.5982C26.3751 53.5819 27.3507 60.0992 27.5184 66.455C27.5741 68.5629 28.0092 70.2276 29.1622 70.5916C32.8149 71.7447 32.8288 81.4781 32.8288 81.4781L25.5323 86.8563C19.4413 74.0099 15.5139 66.3247 9.35582 58.187C7.09482 55.1991 5.96141 51.4602 6.45009 47.7327L8.20227 34.3675L5.4914 23.1829L5.39255 22.2424C5.17317 20.1551 5.9479 18.0901 7.47783 16.6842C8.73768 15.5265 10.3974 14.9203 12.098 14.9967L14.2924 15.0953L20.4221 9.20783C22.0413 7.65263 24.3932 7.13151 26.5178 7.8572L33.0689 10.0949L33.0604 10.014C32.9892 9.33631 33.5803 8.78203 34.2403 8.90766L42.3852 10.4582L50.0299 7.24811C50.6493 6.98801 51.3427 7.40728 51.4139 8.08499L51.4224 8.16586L57.3652 4.61501C59.2924 3.46346 61.7013 3.48419 63.6085 4.66875L70.8283 9.15311L72.9543 8.6004C74.6018 8.17209 76.3513 8.41999 77.8243 9.29047C79.6131 10.3476 80.8003 12.2064 81.0196 14.2936L81.1185 15.2341L80.7923 26.738L85.285 39.4468C86.5379 42.9913 86.2067 46.8841 84.6163 50.2768Z" fill="#D9D9D9"/>
<path d="M42.0281 10.6081L50.0299 7.24811C50.6493 6.98801 51.3427 7.40728 51.4139 8.08499L51.4224 8.16586L57.3652 4.61501C59.2924 3.46346 61.7013 3.48419 63.6085 4.66875L70.8283 9.15311L72.9543 8.6004C74.6018 8.17209 76.3513 8.41999 77.8243 9.29047C79.6131 10.3476 80.8003 12.2064 81.0196 14.2936L81.1185 15.2341L80.7923 26.738L85.285 39.4468C86.5379 42.9913 86.2067 46.8841 84.6163 50.2768C80.2847 59.517 78.041 67.8508 74.754 81.6829L66.4987 77.9393C66.4987 77.9393 64.4887 68.4157 67.8218 66.5283C68.8739 65.9325 68.9534 64.2138 68.5696 62.1403C67.4122 55.8886 67.0114 49.3108 69.5803 43.6698C70.0713 42.5916 71.3814 42.2334 72.4307 42.7834V42.7834M44.6929 35.9618L57.2886 37.3332C58.6011 37.4761 59.9145 37.0886 60.9445 36.2545L64.2152 33.6061C65.4687 32.591 67.2311 32.5291 68.5569 33.4536M68.5569 33.4536L68.7627 33.5962C71.0075 35.1511 73.7739 35.719 76.4312 35.1703L76.6906 35.1168M68.5569 33.4536C67.4534 37.0984 69.086 41.0303 72.4307 42.7834M72.4307 42.7834L74.4756 43.8551M42.7658 10.5306L34.2403 8.90766C33.5803 8.78203 32.9892 9.33631 33.0604 10.014L33.0689 10.0949L26.5178 7.8572C24.3932 7.13151 22.0413 7.65263 20.4221 9.20783L14.2924 15.0953L12.098 14.9967C10.3974 14.9203 8.73768 15.5265 7.47783 16.6842C5.9479 18.0901 5.17317 20.1551 5.39255 22.2424L5.4914 23.1829L8.20227 34.3675L6.45009 47.7327C5.96141 51.4602 7.09482 55.1991 9.35582 58.187C15.5139 66.3247 19.4413 74.0099 25.5323 86.8563L32.8288 81.4781C32.8288 81.4781 32.8149 71.7447 29.1622 70.5916C28.0092 70.2276 27.5741 68.5629 27.5184 66.455C27.3507 60.0992 26.3751 53.5819 22.6896 48.5982C21.9851 47.6456 20.6292 47.5677 19.7171 48.3238V48.3238M45.4306 35.8842L33.3952 39.8445C32.1411 40.2572 30.7758 40.1512 29.5949 39.5495L25.8451 37.639C24.4079 36.9067 22.6712 37.2126 21.5666 38.3925M21.5666 38.3925L21.3949 38.5747C19.5224 40.5624 16.9345 41.693 14.2212 41.7089L13.9563 41.7104M21.5666 38.3925C23.4037 41.7282 22.6243 45.9137 19.7171 48.3238M19.7171 48.3238L17.9397 49.7973" stroke="black"/>
</mask>
<g mask="url(#mask0_12_379)">
<path d="M84.6163 50.2768C80.2847 59.517 78.041 67.8508 74.754 81.6829L66.4987 77.9393C66.4987 77.9393 64.4887 68.4157 67.8218 66.5283C68.8739 65.9325 68.9534 64.2138 68.5696 62.1403C67.4122 55.8886 67.0114 49.3108 69.5803 43.6698C70.0713 42.5916 71.3814 42.2334 72.4307 42.7834C69.086 41.0303 67.4534 37.0984 68.5569 33.4536C67.2311 32.5291 65.4687 32.591 64.2152 33.6061L60.9445 36.2545C59.9145 37.0886 58.6011 37.4761 57.2886 37.3332L45.0701 36.0029L33.3952 39.8445C32.1411 40.2572 30.7758 40.1512 29.5949 39.5495L25.8451 37.639C24.4079 36.9067 22.6712 37.2126 21.5666 38.3925C23.4037 41.7282 22.6243 45.9137 19.7171 48.3238C20.6292 47.5677 21.9851 47.6457 22.6896 48.5982C26.3751 53.5819 27.3507 60.0992 27.5184 66.455C27.5741 68.5629 28.0092 70.2276 29.1622 70.5916C32.8149 71.7447 32.8288 81.4781 32.8288 81.4781L25.5323 86.8563C19.4413 74.0099 15.5139 66.3247 9.35582 58.187C7.09482 55.1991 5.96141 51.4602 6.45009 47.7327L8.20227 34.3675L5.4914 23.1829L5.39255 22.2424C5.17317 20.1551 5.9479 18.0901 7.47783 16.6842C8.73768 15.5265 10.3974 14.9203 12.098 14.9967L14.2924 15.0953L20.4221 9.20783C22.0413 7.65263 24.3932 7.13151 26.5178 7.8572L33.0689 10.0949L33.0604 10.014C32.9892 9.33631 33.5803 8.78203 34.2403 8.90766L42.3852 10.4582L50.0299 7.24811C50.6493 6.98801 51.3427 7.40728 51.4139 8.08499L51.4224 8.16586L57.3652 4.61501C59.2924 3.46346 61.7013 3.48419 63.6085 4.66875L70.8283 9.15311L72.9543 8.6004C74.6018 8.17209 76.3513 8.41999 77.8243 9.29047C79.6131 10.3476 80.8003 12.2064 81.0196 14.2936L81.1185 15.2341L80.7923 26.738L85.285 39.4468C86.5379 42.9913 86.2067 46.8841 84.6163 50.2768Z" fill="#3EB32E"/>
<path d="M42.0281 10.6081L50.0299 7.24811C50.6493 6.98801 51.3427 7.40728 51.4139 8.08499L51.4224 8.16586L57.3652 4.61501C59.2924 3.46346 61.7013 3.48419 63.6085 4.66875L70.8283 9.15311L72.9543 8.6004C74.6018 8.17209 76.3513 8.41999 77.8243 9.29047C79.6131 10.3476 80.8003 12.2064 81.0196 14.2936L81.1185 15.2341L80.7923 26.738L85.285 39.4468C86.5379 42.9913 86.2067 46.8841 84.6163 50.2768C80.2847 59.517 78.041 67.8508 74.754 81.6829L66.4987 77.9393C66.4987 77.9393 64.4887 68.4157 67.8218 66.5283C68.8739 65.9325 68.9534 64.2138 68.5696 62.1403C67.4122 55.8886 67.0114 49.3108 69.5803 43.6698C70.0713 42.5916 71.3814 42.2334 72.4307 42.7834V42.7834M44.6929 35.9618L57.2886 37.3332C58.6011 37.4761 59.9145 37.0886 60.9445 36.2545L64.2152 33.6061C65.4687 32.591 67.2311 32.5291 68.5569 33.4536M68.5569 33.4536L68.7627 33.5962C71.0075 35.1511 73.7739 35.719 76.4312 35.1703L76.6906 35.1168M68.5569 33.4536C67.4534 37.0984 69.086 41.0303 72.4307 42.7834M72.4307 42.7834L74.4756 43.8551M42.7658 10.5306L34.2403 8.90766C33.5803 8.78203 32.9892 9.33631 33.0604 10.014L33.0689 10.0949L26.5178 7.8572C24.3932 7.13151 22.0413 7.65263 20.4221 9.20783L14.2924 15.0953L12.098 14.9967C10.3974 14.9203 8.73768 15.5265 7.47783 16.6842C5.9479 18.0901 5.17317 20.1551 5.39255 22.2424L5.4914 23.1829L8.20227 34.3675L6.45009 47.7327C5.96141 51.4602 7.09482 55.1991 9.35582 58.187C15.5139 66.3247 19.4413 74.0099 25.5323 86.8563L32.8288 81.4781C32.8288 81.4781 32.8149 71.7447 29.1622 70.5916C28.0092 70.2276 27.5741 68.5629 27.5184 66.455C27.3507 60.0992 26.3751 53.5819 22.6896 48.5982C21.9851 47.6456 20.6292 47.5677 19.7171 48.3238V48.3238M45.4306 35.8842L33.3952 39.8445C32.1411 40.2572 30.7758 40.1512 29.5949 39.5495L25.8451 37.639C24.4079 36.9067 22.6712 37.2126 21.5666 38.3925M21.5666 38.3925L21.3949 38.5747C19.5224 40.5624 16.9345 41.693 14.2212 41.7089L13.9563 41.7104M21.5666 38.3925C23.4037 41.7282 22.6243 45.9137 19.7171 48.3238M19.7171 48.3238L17.9397 49.7973" stroke="black"/>
<ellipse opacity="0.54" cx="52.5" cy="32.5" rx="52.5" ry="32.5" transform="matrix(-0.994522 0.104528 0.104528 0.994522 93.6543 -8.78839)" fill="#21100A"/>
<path d="M-7.08511 32.4678C-6.17178 41.1576 0.354659 48.504 10.3297 53.3175C20.2967 58.127 33.6343 60.3643 47.9749 58.857C62.3156 57.3497 74.8966 52.3883 83.6458 45.6117C92.4021 38.8295 97.2585 30.2866 96.3452 21.5968C95.4318 12.907 88.9054 5.56056 78.9303 0.747115C68.9634 -4.0624 55.6258 -6.29966 41.2851 -4.7924C26.9445 -3.28514 14.3635 1.67627 5.61429 8.45294C-3.14204 15.2351 -7.99845 23.778 -7.08511 32.4678Z" fill="#B76B4F" stroke="black"/>
<circle cx="16" cy="16" r="15.5" transform="matrix(-0.994522 0.104528 0.104528 0.994522 59.9421 14.8651)" fill="#319224" stroke="black"/>
<ellipse cx="13" cy="17.5" rx="13" ry="17.5" transform="matrix(-0.994522 0.104528 0.104528 0.994522 57.063 16.1732)" fill="#18660E"/>
<path opacity="0.51" d="M68.6016 35.0706C69.1252 35.3837 69.9225 36.618 70.5368 36.7145C71.2049 36.8195 71.8417 36.8994 72.49 37.1069C72.6487 37.1577 74.3052 36.9685 74.3256 36.914" stroke="#31170E" stroke-width="3" stroke-linecap="round"/>
<path opacity="0.51" d="M70.4323 42.9223C70.956 43.2353 71.7532 44.4696 72.3675 44.5661C73.0356 44.6711 73.6724 44.751 74.3207 44.9585C74.4795 45.0093 76.1359 44.8201 76.1564 44.7656" stroke="#31170E" stroke-width="3" stroke-linecap="round"/>
<path opacity="0.51" d="M21.3618 40.0357C20.9147 40.4507 20.3914 41.8239 19.8107 42.046C19.179 42.2876 18.5727 42.4981 17.9817 42.8359C17.837 42.9186 16.1774 43.0779 16.1461 43.0288" stroke="#31170E" stroke-width="3" stroke-linecap="round"/>
<path opacity="0.51" d="M21.2035 48.0964C20.7564 48.5115 20.2331 49.8846 19.6524 50.1067C19.0207 50.3483 18.4144 50.5589 17.8234 50.8966C17.6787 50.9793 16.0191 51.1387 15.9878 51.0896" stroke="#31170E" stroke-width="3" stroke-linecap="round"/>
<path d="M42.0281 10.6081L50.0299 7.24811C50.6493 6.98801 51.3427 7.40728 51.4139 8.08499L51.4224 8.16586L57.3652 4.61501C59.2924 3.46346 61.7013 3.48419 63.6085 4.66875L70.8283 9.15311L72.9543 8.6004C74.6018 8.17209 76.3513 8.41999 77.8243 9.29047C79.6131 10.3476 80.8003 12.2064 81.0196 14.2936L81.1185 15.2341L80.7923 26.738L85.285 39.4468C86.5379 42.9913 86.2067 46.8841 84.6163 50.2768C80.2847 59.517 78.041 67.8508 74.754 81.6829L66.4987 77.9393C66.4987 77.9393 64.4887 68.4157 67.8218 66.5283C68.8739 65.9325 68.9534 64.2138 68.5696 62.1403C67.4122 55.8886 67.0114 49.3108 69.5803 43.6698C70.0713 42.5916 71.3814 42.2334 72.4307 42.7834V42.7834M44.6929 35.9618L57.2886 37.3332C58.6011 37.4761 59.9145 37.0886 60.9445 36.2545L64.2152 33.6061C65.4687 32.591 67.2311 32.5291 68.5569 33.4536M68.5569 33.4536L68.7627 33.5962C71.0075 35.1511 73.7739 35.719 76.4312 35.1703L76.6906 35.1168M68.5569 33.4536C67.4534 37.0984 69.086 41.0303 72.4307 42.7834M72.4307 42.7834L74.4756 43.8551M42.7658 10.5306L34.2403 8.90766C33.5803 8.78203 32.9892 9.33631 33.0604 10.014L33.0689 10.0949L26.5178 7.8572C24.3932 7.13151 22.0413 7.65263 20.4221 9.20783L14.2924 15.0953L12.098 14.9967C10.3974 14.9203 8.73768 15.5265 7.47783 16.6842C5.9479 18.0901 5.17317 20.1551 5.39255 22.2424L5.4914 23.1829L8.20227 34.3675L6.45009 47.7327C5.96141 51.4602 7.09482 55.1991 9.35582 58.187C15.5139 66.3247 19.4413 74.0099 25.5323 86.8563L32.8288 81.4781C32.8288 81.4781 32.8149 71.7447 29.1622 70.5916C28.0092 70.2276 27.5741 68.5629 27.5184 66.455C27.3507 60.0992 26.3751 53.5819 22.6896 48.5982C21.9851 47.6456 20.6292 47.5677 19.7171 48.3238V48.3238M45.4306 35.8842L33.3952 39.8445C32.1411 40.2572 30.7758 40.1512 29.5949 39.5495L25.8451 37.639C24.4079 36.9067 22.6712 37.2126 21.5666 38.3925M21.5666 38.3925L21.3949 38.5747C19.5224 40.5624 16.9345 41.693 14.2212 41.7089L13.9563 41.7104M21.5666 38.3925C23.4037 41.7282 22.6243 45.9137 19.7171 48.3238M19.7171 48.3238L17.9397 49.7973" stroke="black"/>
<path d="M71.1463 14.0817C69.312 15.2402 67.9718 17.5664 67.0183 19.4705C66.1846 21.1352 65.7193 23.0967 65.1753 24.874C64.8936 25.7945 64.8567 26.3779 64.9539 27.3026" stroke="#31170E" stroke-width="2" stroke-linecap="round"/>
<path d="M16.6402 19.4163C18.6752 20.1681 20.4699 22.1649 21.7984 23.829C22.9599 25.2841 23.8229 27.1059 24.7245 28.7313C25.1915 29.5732 25.3488 30.1362 25.446 31.0608" stroke="#31170E" stroke-width="2" stroke-linecap="round"/>
</g>
<path d="M35.4294 34.3396C35.4294 37.477 36.6908 39.683 38.7123 41.1227C40.7569 42.5788 43.6237 43.2806 46.8549 43.2806C50.0861 43.2806 52.9528 42.5788 54.9974 41.1227C57.0189 39.683 58.2803 37.477 58.2803 34.3396C58.2803 31.1678 56.9889 27.5437 54.8862 24.7146C52.7797 21.8806 49.9298 19.9328 46.8549 19.9328C43.7799 19.9328 40.9301 21.8806 38.8236 24.7146C36.7208 27.5437 35.4294 31.1678 35.4294 34.3396Z" fill="#3EB32E" stroke="black"/>
</g>
<defs>
<filter id="filter0_d_12_379" x="0.855927" y="3.26562" width="89.6938" height="92.3532" filterUnits="userSpaceOnUse" color-interpolation-filters="sRGB">
<feFlood flood-opacity="0" result="BackgroundImageFix"/>
<feColorMatrix in="SourceAlpha" type="matrix" values="0 0 0 0 0 0 0 0 0 0 0 0 0 0 0 0 0 0 127 0" result="hardAlpha"/>
<feOffset dy="4"/>
<feGaussianBlur stdDeviation="2"/>
<feComposite in2="hardAlpha" operator="out"/>
<feColorMatrix type="matrix" values="0 0 0 0 0 0 0 0 0 0 0 0 0 0 0 0 0 0 0.25 0"/>
<feBlend mode="normal" in2="BackgroundImageFix" result="effect1_dropShadow_12_379"/>
<feBlend mode="normal" in="SourceGraphic" in2="effect1_dropShadow_12_379" result="shape"/>
</filter>
</defs>
</svg>
