<svg width="98" height="103" viewBox="0 0 98 103" fill="none" xmlns="http://www.w3.org/2000/svg">
<g filter="url(#filter0_d_12_296)">
<mask id="mask0_12_296" style="mask-type:alpha" maskUnits="userSpaceOnUse" x="8" y="6" width="85" height="89">
<path d="M9.68126 49.3522C12.6847 59.1053 13.7467 67.6703 15.0767 81.8252L23.7726 79.267C23.7726 79.267 27.0885 70.1158 24.0505 67.7829C23.0916 67.0465 23.252 65.3334 23.9207 63.3335C25.9369 57.3037 27.2492 50.8458 25.4904 44.9021C25.1543 43.7661 23.9068 43.229 22.7911 43.6276C26.3473 42.3571 28.5112 38.6907 27.9257 34.9277C29.3673 34.1968 31.1038 34.5034 32.2039 35.683L35.0741 38.7609C35.978 39.7302 37.2248 40.2967 38.5443 40.3379L50.8291 40.7209L61.8558 46.15C63.0402 46.7332 64.407 46.8183 65.6601 46.3868L69.6394 45.0167C71.1645 44.4916 72.8417 45.0362 73.7714 46.3583C71.4878 49.406 71.6771 53.6591 74.2206 56.4504C73.4227 55.5747 72.0691 55.4632 71.2389 56.3085C66.8956 60.7307 65.0225 67.0489 63.9719 73.3194C63.6234 75.3991 62.9608 76.987 61.7684 77.187C57.9908 77.8206 56.6223 87.4573 56.6223 87.4573L63.0994 93.7986C70.9189 81.925 75.8777 74.8611 83.1084 67.6596C85.7632 65.0155 87.406 61.4707 87.4408 57.7115L87.5658 44.2325L91.8068 33.534L92.0356 32.6164C92.5434 30.58 92.0636 28.4273 90.7442 26.8221C89.6577 25.5003 88.0985 24.669 86.4039 24.508L84.2171 24.3002L78.9664 17.617C77.5794 15.8516 75.3229 15.0082 73.118 15.4312L66.3192 16.7353L66.3389 16.6564C66.5037 15.9952 65.9955 15.3641 65.3245 15.3967L57.043 15.7985L49.9195 11.5558C49.3423 11.212 48.5973 11.5307 48.4324 12.1919L48.4128 12.2708L43.022 7.92741C41.2738 6.51884 38.8855 6.20412 36.832 7.11173L29.0584 10.5476L27.03 9.70443C25.4581 9.051 23.6911 9.053 22.1113 9.71001C20.1928 10.5079 18.7585 12.1834 18.2508 14.2198L18.022 15.1374L16.744 26.5746L10.5263 38.5345C8.79225 41.8701 8.57853 45.7712 9.68126 49.3522Z" fill="#D9D9D9"/>
<path d="M57.3758 15.9967L49.9195 11.5558C49.3423 11.212 48.5973 11.5307 48.4324 12.1919L48.4128 12.2708L43.022 7.92741C41.2738 6.51884 38.8855 6.20412 36.832 7.11173L29.0584 10.5476L27.03 9.70443C25.4581 9.051 23.6911 9.053 22.1113 9.71001C20.1928 10.5079 18.7585 12.1834 18.2508 14.2198L18.022 15.1374L16.744 26.5746L10.5263 38.5345C8.79225 41.8701 8.57853 45.7712 9.68126 49.3522C12.6847 59.1053 13.7467 67.6703 15.0767 81.8252L23.7726 79.267C23.7726 79.267 27.0885 70.1158 24.0505 67.7829C23.0916 67.0465 23.252 65.3334 23.9207 63.3335C25.9369 57.3037 27.2492 50.8458 25.4904 44.9021C25.1543 43.7661 23.9068 43.229 22.7911 43.6276V43.6276M51.2084 40.7328L38.5443 40.3379C37.2248 40.2967 35.978 39.7301 35.0741 38.7609L32.2039 35.683C31.1038 34.5034 29.3673 34.1968 27.9257 34.9277M27.9257 34.9277L27.702 35.0403C25.2627 36.2677 22.4442 36.445 19.889 35.5319L19.6396 35.4427M27.9257 34.9277C28.5112 38.6907 26.3473 42.3571 22.7911 43.6276M22.7911 43.6276L20.6169 44.4043M56.6561 15.8173L65.3245 15.3967C65.9955 15.3641 66.5037 15.9952 66.3389 16.6564L66.3192 16.7353L73.118 15.4312C75.3229 15.0082 77.5794 15.8516 78.9664 17.617L84.2171 24.3002L86.4039 24.508C88.0985 24.669 89.6577 25.5003 90.7442 26.8221C92.0636 28.4273 92.5434 30.58 92.0356 32.6164L91.8068 33.534L87.5658 44.2325L87.4408 57.7115C87.406 61.4707 85.7632 65.0155 83.1084 67.6596C75.8777 74.8611 70.9189 81.925 63.0994 93.7986L56.6223 87.4573C56.6223 87.4573 57.9908 77.8206 61.7684 77.187C62.9608 76.987 63.6234 75.3991 63.9719 73.3194C65.0225 67.0489 66.8956 60.7307 71.2389 56.3085C72.0691 55.4632 73.4227 55.5747 74.2206 56.4504V56.4504M50.4887 40.5533L61.8558 46.15C63.0402 46.7332 64.407 46.8183 65.6601 46.3868L69.6394 45.0167C71.1645 44.4916 72.8417 45.0362 73.7714 46.3583M73.7714 46.3583L73.916 46.5627C75.4936 48.7917 77.899 50.2715 80.5837 50.6648L80.8458 50.7031M73.7714 46.3583C71.4878 49.406 71.6771 53.6591 74.2206 56.4504M74.2206 56.4504L75.7756 58.1569" stroke="black"/>
</mask>
<g mask="url(#mask0_12_296)">
<path d="M9.68126 49.3522C12.6847 59.1053 13.7467 67.6703 15.0767 81.8252L23.7726 79.267C23.7726 79.267 27.0885 70.1158 24.0505 67.7829C23.0916 67.0465 23.252 65.3334 23.9207 63.3335C25.9369 57.3037 27.2492 50.8458 25.4904 44.9021C25.1543 43.7661 23.9068 43.229 22.7911 43.6276C26.3473 42.3571 28.5112 38.6907 27.9257 34.9277C29.3673 34.1968 31.1038 34.5034 32.2039 35.683L35.0741 38.7609C35.978 39.7302 37.2248 40.2967 38.5443 40.3379L50.8291 40.7209L61.8558 46.15C63.0402 46.7332 64.407 46.8183 65.6601 46.3868L69.6394 45.0167C71.1645 44.4916 72.8417 45.0362 73.7714 46.3583C71.4878 49.406 71.6771 53.6591 74.2206 56.4504C73.4227 55.5747 72.0691 55.4632 71.2389 56.3085C66.8956 60.7307 65.0225 67.0489 63.9719 73.3194C63.6234 75.3991 62.9608 76.987 61.7684 77.187C57.9908 77.8206 56.6223 87.4573 56.6223 87.4573L63.0994 93.7986C70.9189 81.925 75.8777 74.8611 83.1084 67.6596C85.7632 65.0155 87.406 61.4707 87.4408 57.7115L87.5658 44.2325L91.8068 33.534L92.0356 32.6164C92.5434 30.58 92.0636 28.4273 90.7442 26.8221C89.6577 25.5003 88.0985 24.669 86.4039 24.508L84.2171 24.3002L78.9664 17.617C77.5794 15.8516 75.3229 15.0082 73.118 15.4312L66.3192 16.7353L66.3389 16.6564C66.5037 15.9952 65.9955 15.3641 65.3245 15.3967L57.043 15.7985L49.9195 11.5558C49.3423 11.212 48.5973 11.5307 48.4324 12.1919L48.4128 12.2708L43.022 7.92741C41.2738 6.51884 38.8855 6.20412 36.832 7.11173L29.0584 10.5476L27.03 9.70443C25.4581 9.051 23.6911 9.053 22.1113 9.71001C20.1928 10.5079 18.7585 12.1834 18.2508 14.2198L18.022 15.1374L16.744 26.5746L10.5263 38.5345C8.79225 41.8701 8.57853 45.7712 9.68126 49.3522Z" fill="#3EB32E"/>
<path d="M57.3758 15.9967L49.9195 11.5558C49.3423 11.212 48.5973 11.5307 48.4324 12.1919L48.4128 12.2708L43.022 7.92741C41.2738 6.51884 38.8855 6.20412 36.832 7.11173L29.0584 10.5476L27.03 9.70443C25.4581 9.051 23.6911 9.053 22.1113 9.71001C20.1928 10.5079 18.7585 12.1834 18.2508 14.2198L18.022 15.1374L16.744 26.5746L10.5263 38.5345C8.79225 41.8701 8.57853 45.7712 9.68126 49.3522C12.6847 59.1053 13.7467 67.6703 15.0767 81.8252L23.7726 79.267C23.7726 79.267 27.0885 70.1158 24.0505 67.7829C23.0916 67.0465 23.252 65.3334 23.9207 63.3335C25.9369 57.3037 27.2492 50.8458 25.4904 44.9021C25.1543 43.7661 23.9068 43.229 22.7911 43.6276V43.6276M51.2084 40.7328L38.5443 40.3379C37.2248 40.2967 35.978 39.7301 35.0741 38.7609L32.2039 35.683C31.1038 34.5034 29.3673 34.1968 27.9257 34.9277M27.9257 34.9277L27.702 35.0403C25.2627 36.2677 22.4442 36.445 19.889 35.5319L19.6396 35.4427M27.9257 34.9277C28.5112 38.6907 26.3473 42.3571 22.7911 43.6276M22.7911 43.6276L20.6169 44.4043M56.6561 15.8173L65.3245 15.3967C65.9955 15.3641 66.5037 15.9952 66.3389 16.6564L66.3192 16.7353L73.118 15.4312C75.3229 15.0082 77.5794 15.8516 78.9664 17.617L84.2171 24.3002L86.4039 24.508C88.0985 24.669 89.6577 25.5003 90.7442 26.8221C92.0636 28.4273 92.5434 30.58 92.0356 32.6164L91.8068 33.534L87.5658 44.2325L87.4408 57.7115C87.406 61.4707 85.7632 65.0155 83.1084 67.6596C75.8777 74.8611 70.9189 81.925 63.0994 93.7986L56.6223 87.4573C56.6223 87.4573 57.9908 77.8206 61.7684 77.187C62.9608 76.987 63.6234 75.3991 63.9719 73.3194C65.0225 67.0489 66.8956 60.7307 71.2389 56.3085C72.0691 55.4632 73.4227 55.5747 74.2206 56.4504V56.4504M50.4887 40.5533L61.8558 46.15C63.0402 46.7332 64.407 46.8183 65.6601 46.3868L69.6394 45.0167C71.1645 44.4916 72.8417 45.0362 73.7714 46.3583M73.7714 46.3583L73.916 46.5627C75.4936 48.7917 77.899 50.2715 80.5837 50.6648L80.8458 50.7031M73.7714 46.3583C71.4878 49.406 71.6771 53.6591 74.2206 56.4504M74.2206 56.4504L75.7756 58.1569" stroke="black"/>
<ellipse opacity="0.54" cx="52.0295" cy="33.8395" rx="52.5" ry="32.5" transform="rotate(14 52.0295 33.8395)" fill="#21100A"/>
<path d="M102.969 44.4788C100.855 52.957 93.3696 59.3236 82.8217 62.702C72.2824 66.0775 58.7632 66.4368 44.7719 62.9484C30.7806 59.4599 19.0125 52.7959 11.2916 44.8675C3.56439 36.9327 -0.0558263 27.7971 2.05801 19.319C4.17185 10.8408 11.6572 4.47418 22.2051 1.09584C32.7444 -2.27974 46.2636 -2.63899 60.2549 0.849438C74.2462 4.33786 86.0142 11.0019 93.7352 18.9303C101.462 26.8651 105.083 36.0007 102.969 44.4788Z" fill="#B76B4F" stroke="black"/>
<circle cx="50.6977" cy="37.1146" r="15.5" transform="rotate(14 50.6977 37.1146)" fill="#319224" stroke="black"/>
<ellipse cx="50.0929" cy="39.5403" rx="13" ry="17.5" transform="rotate(14 50.0929 39.5403)" fill="#18660E"/>
<path opacity="0.51" d="M27.6564 36.5228C27.0943 36.7599 26.133 37.8713 25.5113 37.8814C24.835 37.8924 24.1933 37.8829 23.5224 37.9981C23.3582 38.0264 21.7442 37.6084 21.7315 37.5516" stroke="#31170E" stroke-width="3" stroke-linecap="round"/>
<path opacity="0.51" d="M24.7507 44.0433C24.1886 44.2804 23.2273 45.3917 22.6056 45.4018C21.9294 45.4128 21.2876 45.4033 20.6168 45.5186C20.4525 45.5468 18.8385 45.1289 18.8259 45.0721" stroke="#31170E" stroke-width="3" stroke-linecap="round"/>
<path opacity="0.51" d="M73.7455 48.0141C74.1305 48.4873 74.4575 49.9199 75.0017 50.2207C75.5936 50.5479 76.1647 50.8408 76.7029 51.2575C76.8347 51.3595 78.456 51.7482 78.4938 51.704" stroke="#31170E" stroke-width="3" stroke-linecap="round"/>
<path opacity="0.51" d="M72.7804 56.0184C73.1654 56.4916 73.4924 57.9242 74.0366 58.225C74.6285 58.5522 75.1996 58.8451 75.7378 59.2618C75.8696 59.3638 77.4909 59.7525 77.5287 59.7083" stroke="#31170E" stroke-width="3" stroke-linecap="round"/>
<path d="M57.3758 15.9967L49.9195 11.5558C49.3423 11.212 48.5973 11.5307 48.4324 12.1919L48.4128 12.2708L43.022 7.92741C41.2738 6.51884 38.8855 6.20412 36.832 7.11173L29.0584 10.5476L27.03 9.70443C25.4581 9.051 23.6911 9.053 22.1113 9.71001C20.1928 10.5079 18.7585 12.1834 18.2508 14.2198L18.022 15.1374L16.744 26.5746L10.5263 38.5345C8.79225 41.8701 8.57853 45.7712 9.68126 49.3522C12.6847 59.1053 13.7467 67.6703 15.0767 81.8252L23.7726 79.267C23.7726 79.267 27.0885 70.1158 24.0505 67.7829C23.0916 67.0465 23.252 65.3334 23.9207 63.3335C25.9369 57.3037 27.2492 50.8458 25.4904 44.9021C25.1543 43.7661 23.9068 43.229 22.7911 43.6276V43.6276M51.2084 40.7328L38.5443 40.3379C37.2248 40.2967 35.978 39.7301 35.0741 38.7609L32.2039 35.683C31.1038 34.5034 29.3673 34.1968 27.9257 34.9277M27.9257 34.9277L27.702 35.0403C25.2627 36.2677 22.4442 36.445 19.889 35.5319L19.6396 35.4427M27.9257 34.9277C28.5112 38.6907 26.3473 42.3571 22.7911 43.6276M22.7911 43.6276L20.6169 44.4043M56.6561 15.8173L65.3245 15.3967C65.9955 15.3641 66.5037 15.9952 66.3389 16.6564L66.3192 16.7353L73.118 15.4312C75.3229 15.0082 77.5794 15.8516 78.9664 17.617L84.2171 24.3002L86.4039 24.508C88.0985 24.669 89.6577 25.5003 90.7442 26.8221C92.0636 28.4273 92.5434 30.58 92.0356 32.6164L91.8068 33.534L87.5658 44.2325L87.4408 57.7115C87.406 61.4707 85.7632 65.0155 83.1084 67.6596C75.8777 74.8611 70.9189 81.925 63.0994 93.7986L56.6223 87.4573C56.6223 87.4573 57.9908 77.8206 61.7684 77.187C62.9608 76.987 63.6234 75.3991 63.9719 73.3194C65.0225 67.0489 66.8956 60.7307 71.2389 56.3085C72.0691 55.4632 73.4227 55.5747 74.2206 56.4504V56.4504M50.4887 40.5533L61.8558 46.15C63.0402 46.7332 64.407 46.8183 65.6601 46.3868L69.6394 45.0167C71.1645 44.4916 72.8417 45.0362 73.7714 46.3583M73.7714 46.3583L73.916 46.5627C75.4936 48.7917 77.899 50.2715 80.5837 50.6648L80.8458 50.7031M73.7714 46.3583C71.4878 49.406 71.6771 53.6591 74.2206 56.4504M74.2206 56.4504L75.7756 58.1569" stroke="black"/>
<path d="M28.0575 15.384C29.7127 16.7865 30.7162 19.2766 31.3954 21.2948C31.9892 23.0594 32.1771 25.0666 32.4684 26.9023C32.6193 27.8531 32.5746 28.4359 32.3496 29.3381" stroke="#31170E" stroke-width="2" stroke-linecap="round"/>
<path d="M81.2908 28.2525C79.1709 28.7137 77.1158 30.4413 75.5687 31.9044C74.2159 33.1836 73.1077 34.8676 71.9887 36.3517C71.4091 37.1204 71.175 37.656 70.95 38.5582" stroke="#31170E" stroke-width="2" stroke-linecap="round"/>
</g>
<path d="M59.2975 38.851C59.2975 41.9884 58.0361 44.1943 56.0145 45.6341C53.9699 47.0902 51.1032 47.792 47.872 47.792C44.6408 47.792 41.7741 47.0902 39.7295 45.6341C37.708 44.1943 36.4466 41.9884 36.4466 38.851C36.4466 35.6792 37.738 32.055 39.8407 29.226C41.9472 26.392 44.7971 24.4442 47.872 24.4442C50.9469 24.4442 53.7968 26.392 55.9033 29.226C58.0061 32.055 59.2975 35.6792 59.2975 38.851Z" fill="#3EB32E" stroke="black"/>
</g>
<defs>
<filter id="filter0_d_12_296" x="4.50281" y="6.09949" width="92.2312" height="96.4809" filterUnits="userSpaceOnUse" color-interpolation-filters="sRGB">
<feFlood flood-opacity="0" result="BackgroundImageFix"/>
<feColorMatrix in="SourceAlpha" type="matrix" values="0 0 0 0 0 0 0 0 0 0 0 0 0 0 0 0 0 0 127 0" result="hardAlpha"/>
<feOffset dy="4"/>
<feGaussianBlur stdDeviation="2"/>
<feComposite in2="hardAlpha" operator="out"/>
<feColorMatrix type="matrix" values="0 0 0 0 0 0 0 0 0 0 0 0 0 0 0 0 0 0 0.25 0"/>
<feBlend mode="normal" in2="BackgroundImageFix" result="effect1_dropShadow_12_296"/>
<feBlend mode="normal" in="SourceGraphic" in2="effect1_dropShadow_12_296" result="shape"/>
</filter>
</defs>
</svg>
