<svg width="90" height="89" viewBox="0 0 90 89" fill="none" xmlns="http://www.w3.org/2000/svg">
<g filter="url(#filter0_d_12_330)">
<mask id="mask0_12_330" style="mask-type:alpha" maskUnits="userSpaceOnUse" x="4" y="0" width="82" height="81">
<path d="M7.16249 49.7968C12.4362 58.5337 15.5388 66.5873 20.2536 80L28.0723 75.414C28.0723 75.414 29.0759 65.7325 25.5637 64.2038C24.4551 63.7213 24.1963 62.0203 24.3614 59.9181C24.8589 53.5796 24.5699 46.996 21.4255 41.6544C20.8245 40.6334 19.4841 40.4141 18.498 41.0708C21.6412 38.9777 22.8539 34.8967 21.3754 31.3871C22.5973 30.3292 24.3565 30.2065 25.7092 31.085L29.2388 33.3771C30.3504 34.0989 31.6971 34.347 32.9875 34.0677L45 31.4674L57.0125 34.0677C58.3029 34.347 59.6496 34.0989 60.7612 33.3771L64.2907 31.085C65.6435 30.2065 67.4027 30.3292 68.6246 31.3871C67.1461 34.8967 68.3588 38.9777 71.502 41.0708C70.5159 40.4141 69.1755 40.6334 68.5745 41.6544C65.4301 46.996 65.1411 53.5796 65.6386 59.9181C65.8037 62.0203 65.5449 63.7213 64.4363 64.2038C60.9241 65.7325 61.9277 75.414 61.9277 75.414L69.7464 80C74.4612 66.5873 77.5638 58.5337 82.8375 49.7968C84.7738 46.589 85.5102 42.7521 84.6346 39.0961L81.4949 25.9873L83.0218 14.5806V13.6349C83.0218 11.5361 82.0355 9.56341 80.367 8.32512C78.993 7.30543 77.2791 6.87603 75.5958 7.12978L73.4237 7.45723L66.7121 2.24276C64.9393 0.865343 62.5457 0.592921 60.5087 1.53671L54.2273 4.44693V4.36561C54.2273 3.68417 53.5815 3.19471 52.9383 3.38864L45 5.78203L37.0617 3.38864C36.4185 3.19471 35.7727 3.68417 35.7727 4.36561V4.44693L29.4913 1.53671C27.4543 0.592921 25.0607 0.865343 23.2879 2.24276L16.5763 7.45723L14.4042 7.12978C12.7209 6.87603 11.007 7.30543 9.63301 8.32512C7.96451 9.56341 6.97817 11.5361 6.97817 13.6349V14.5806L8.50508 25.9873L5.36544 39.0961C4.48981 42.7521 5.2262 46.589 7.16249 49.7968Z" fill="#D9D9D9"/>
<path d="M45.3709 5.89385L37.0617 3.38864C36.4185 3.19471 35.7727 3.68417 35.7727 4.36561V4.44693L29.4913 1.53671C27.4543 0.592921 25.0607 0.865343 23.2879 2.24276L16.5763 7.45723L14.4042 7.12978C12.7209 6.87603 11.007 7.30543 9.63301 8.32512C7.96451 9.56341 6.97817 11.5361 6.97817 13.6349V14.5806L8.50508 25.9873L5.36544 39.0961C4.48981 42.7521 5.2262 46.589 7.16249 49.7968C12.4362 58.5337 15.5388 66.5873 20.2536 80L28.0723 75.414C28.0723 75.414 29.0759 65.7325 25.5637 64.2038C24.4551 63.7213 24.1963 62.0203 24.3614 59.9181C24.8589 53.5796 24.5699 46.996 21.4255 41.6544C20.8245 40.6334 19.4841 40.4141 18.498 41.0708V41.0708M45.3709 31.3871L32.9875 34.0677C31.6971 34.347 30.3504 34.0989 29.2388 33.3771L25.7092 31.085C24.3565 30.2065 22.5973 30.3292 21.3754 31.3871M21.3754 31.3871L21.1856 31.5505C19.1156 33.3315 16.4238 34.1855 13.7236 33.9176L13.4601 33.8914M21.3754 31.3871C22.8539 34.8967 21.6412 38.9777 18.498 41.0708M18.498 41.0708L16.5763 42.3504M44.6291 5.89385L52.9383 3.38864C53.5815 3.19471 54.2273 3.68417 54.2273 4.36561V4.44693L60.5087 1.53671C62.5457 0.592921 64.9393 0.865343 66.7121 2.24276L73.4237 7.45723L75.5958 7.12978C77.279 6.87603 78.993 7.30543 80.367 8.32512C82.0355 9.56341 83.0218 11.5361 83.0218 13.6349V14.5806L81.4949 25.9873L84.6346 39.0961C85.5102 42.7521 84.7738 46.589 82.8375 49.7968C77.5638 58.5337 74.4612 66.5873 69.7464 80L61.9277 75.414C61.9277 75.414 60.9241 65.7325 64.4363 64.2038C65.5449 63.7213 65.8037 62.0203 65.6386 59.9181C65.1411 53.5796 65.4301 46.996 68.5745 41.6544C69.1755 40.6334 70.5159 40.4141 71.502 41.0708V41.0708M44.6291 31.3871L57.0125 34.0677C58.3029 34.347 59.6496 34.0989 60.7612 33.3771L64.2907 31.085C65.6435 30.2065 67.4027 30.3292 68.6246 31.3871M68.6246 31.3871L68.8144 31.5505C70.8844 33.3315 73.5762 34.1855 76.2764 33.9176L76.5399 33.8914M68.6246 31.3871C67.1461 34.8967 68.3588 38.9777 71.502 41.0708M71.502 41.0708L73.4237 42.3504" stroke="black"/>
</mask>
<g mask="url(#mask0_12_330)">
<path d="M7.16249 49.7968C12.4362 58.5337 15.5388 66.5873 20.2536 80L28.0723 75.414C28.0723 75.414 29.0759 65.7325 25.5637 64.2038C24.4551 63.7213 24.1963 62.0203 24.3614 59.9181C24.8589 53.5796 24.5699 46.996 21.4255 41.6544C20.8245 40.6334 19.4841 40.4141 18.498 41.0708C21.6412 38.9777 22.8539 34.8967 21.3754 31.3871C22.5973 30.3292 24.3565 30.2065 25.7092 31.085L29.2388 33.3771C30.3504 34.0989 31.6971 34.347 32.9875 34.0677L45 31.4674L57.0125 34.0677C58.3029 34.347 59.6496 34.0989 60.7612 33.3771L64.2907 31.085C65.6435 30.2065 67.4027 30.3292 68.6246 31.3871C67.1461 34.8967 68.3588 38.9777 71.502 41.0708C70.5159 40.4141 69.1755 40.6334 68.5745 41.6544C65.4301 46.996 65.1411 53.5796 65.6386 59.9181C65.8037 62.0203 65.5449 63.7213 64.4363 64.2038C60.9241 65.7325 61.9277 75.414 61.9277 75.414L69.7464 80C74.4612 66.5873 77.5638 58.5337 82.8375 49.7968C84.7738 46.589 85.5102 42.7521 84.6346 39.0961L81.4949 25.9873L83.0218 14.5806V13.6349C83.0218 11.5361 82.0355 9.56341 80.367 8.32512C78.993 7.30543 77.2791 6.87603 75.5958 7.12978L73.4237 7.45723L66.7121 2.24276C64.9393 0.865343 62.5457 0.592921 60.5087 1.53671L54.2273 4.44693V4.36561C54.2273 3.68417 53.5815 3.19471 52.9383 3.38864L45 5.78203L37.0617 3.38864C36.4185 3.19471 35.7727 3.68417 35.7727 4.36561V4.44693L29.4913 1.53671C27.4543 0.592921 25.0607 0.865343 23.2879 2.24276L16.5763 7.45723L14.4042 7.12978C12.7209 6.87603 11.007 7.30543 9.63301 8.32512C7.96451 9.56341 6.97817 11.5361 6.97817 13.6349V14.5806L8.50508 25.9873L5.36544 39.0961C4.48981 42.7521 5.2262 46.589 7.16249 49.7968Z" fill="#3EB32E"/>
<path d="M45.3709 5.89385L37.0617 3.38864C36.4185 3.19471 35.7727 3.68417 35.7727 4.36561V4.44693L29.4913 1.53671C27.4543 0.592921 25.0607 0.865343 23.2879 2.24276L16.5763 7.45723L14.4042 7.12978C12.7209 6.87603 11.007 7.30543 9.63301 8.32512C7.96451 9.56341 6.97817 11.5361 6.97817 13.6349V14.5806L8.50508 25.9873L5.36544 39.0961C4.48981 42.7521 5.2262 46.589 7.16249 49.7968C12.4362 58.5337 15.5388 66.5873 20.2536 80L28.0723 75.414C28.0723 75.414 29.0759 65.7325 25.5637 64.2038C24.4551 63.7213 24.1963 62.0203 24.3614 59.9181C24.8589 53.5796 24.5699 46.996 21.4255 41.6544C20.8245 40.6334 19.4841 40.4141 18.498 41.0708V41.0708M45.3709 31.3871L32.9875 34.0677C31.6971 34.347 30.3504 34.0989 29.2388 33.3771L25.7092 31.085C24.3565 30.2065 22.5973 30.3292 21.3754 31.3871M21.3754 31.3871L21.1856 31.5505C19.1156 33.3315 16.4238 34.1855 13.7236 33.9176L13.4601 33.8914M21.3754 31.3871C22.8539 34.8967 21.6412 38.9777 18.498 41.0708M18.498 41.0708L16.5763 42.3504M44.6291 5.89385L52.9383 3.38864C53.5815 3.19471 54.2273 3.68417 54.2273 4.36561V4.44693L60.5087 1.53671C62.5457 0.592921 64.9393 0.865343 66.7121 2.24276L73.4237 7.45723L75.5958 7.12978C77.279 6.87603 78.993 7.30543 80.367 8.32512C82.0355 9.56341 83.0218 11.5361 83.0218 13.6349V14.5806L81.4949 25.9873L84.6346 39.0961C85.5102 42.7521 84.7738 46.589 82.8375 49.7968C77.5638 58.5337 74.4612 66.5873 69.7464 80L61.9277 75.414C61.9277 75.414 60.9241 65.7325 64.4363 64.2038C65.5449 63.7213 65.8037 62.0203 65.6386 59.9181C65.1411 53.5796 65.4301 46.996 68.5745 41.6544C69.1755 40.6334 70.5159 40.4141 71.502 41.0708V41.0708M44.6291 31.3871L57.0125 34.0677C58.3029 34.347 59.6496 34.0989 60.7612 33.3771L64.2907 31.085C65.6435 30.2065 67.4027 30.3292 68.6246 31.3871M68.6246 31.3871L68.8144 31.5505C70.8844 33.3315 73.5762 34.1855 76.2764 33.9176L76.5399 33.8914M68.6246 31.3871C67.1461 34.8967 68.3588 38.9777 71.502 41.0708M71.502 41.0708L73.4237 42.3504" stroke="black"/>
<ellipse opacity="0.54" cx="44.5" cy="24.5" rx="52.5" ry="32.5" fill="#21100A"/>
<path d="M96.5 22.5C96.5 31.2377 90.7772 39.2261 81.3599 45.0558C71.9503 50.8808 58.9196 54.5 44.5 54.5C30.0804 54.5 17.0497 50.8808 7.64007 45.0558C-1.77723 39.2261 -7.5 31.2377 -7.5 22.5C-7.5 13.7623 -1.77723 5.77392 7.64007 -0.0558376C17.0497 -5.88084 30.0804 -9.5 44.5 -9.5C58.9196 -9.5 71.9503 -5.88084 81.3599 -0.0558376C90.7772 5.77392 96.5 13.7623 96.5 22.5Z" fill="#B76B4F" stroke="black"/>
<circle cx="44" cy="28" r="15.5" fill="#319224" stroke="black"/>
<ellipse cx="44" cy="30.5" rx="13" ry="17.5" fill="#18660E"/>
<path opacity="0.51" d="M21.5 33C21.0119 33.366 20.3481 34.6769 19.7472 34.8372C19.0937 35.0114 18.4688 35.1574 17.8457 35.4316C17.6932 35.4987 16.026 35.4837 16 35.4316" stroke="#31170E" stroke-width="3" stroke-linecap="round"/>
<path opacity="0.51" d="M20.5 41C20.0119 41.366 19.3481 42.6769 18.7472 42.8372C18.0937 43.0114 17.4688 43.1574 16.8457 43.4316C16.6932 43.4987 15.026 43.4837 15 43.4316" stroke="#31170E" stroke-width="3" stroke-linecap="round"/>
<path opacity="0.51" d="M69 33C69.4881 33.366 70.1519 34.6769 70.7528 34.8372C71.4063 35.0114 72.0312 35.1574 72.6543 35.4316C72.8068 35.4987 74.474 35.4837 74.5 35.4316" stroke="#31170E" stroke-width="3" stroke-linecap="round"/>
<path opacity="0.51" d="M70 41C70.4881 41.366 71.1519 42.6769 71.7528 42.8372C72.4063 43.0114 73.0312 43.1574 73.6543 43.4316C73.8068 43.4987 75.474 43.4837 75.5 43.4316" stroke="#31170E" stroke-width="3" stroke-linecap="round"/>
<path d="M45.3709 5.89385L37.0617 3.38864C36.4185 3.19471 35.7727 3.68417 35.7727 4.36561V4.44693L29.4913 1.53671C27.4543 0.592921 25.0607 0.865343 23.2879 2.24276L16.5763 7.45723L14.4042 7.12978C12.7209 6.87603 11.007 7.30543 9.63301 8.32512C7.96451 9.56341 6.97817 11.5361 6.97817 13.6349V14.5806L8.50508 25.9873L5.36544 39.0961C4.48981 42.7521 5.2262 46.589 7.16249 49.7968C12.4362 58.5337 15.5388 66.5873 20.2536 80L28.0723 75.414C28.0723 75.414 29.0759 65.7325 25.5637 64.2038C24.4551 63.7213 24.1963 62.0203 24.3614 59.9181C24.8589 53.5796 24.5699 46.996 21.4255 41.6544C20.8245 40.6334 19.4841 40.4141 18.498 41.0708V41.0708M45.3709 31.3871L32.9875 34.0677C31.6971 34.347 30.3504 34.0989 29.2388 33.3771L25.7092 31.085C24.3565 30.2065 22.5973 30.3292 21.3754 31.3871M21.3754 31.3871L21.1856 31.5505C19.1156 33.3315 16.4238 34.1855 13.7236 33.9176L13.4601 33.8914M21.3754 31.3871C22.8539 34.8967 21.6412 38.9777 18.498 41.0708M18.498 41.0708L16.5763 42.3504M44.6291 5.89385L52.9383 3.38864C53.5815 3.19471 54.2273 3.68417 54.2273 4.36561V4.44693L60.5087 1.53671C62.5457 0.592921 64.9393 0.865343 66.7121 2.24276L73.4237 7.45723L75.5958 7.12978C77.279 6.87603 78.993 7.30543 80.367 8.32512C82.0355 9.56341 83.0218 11.5361 83.0218 13.6349V14.5806L81.4949 25.9873L84.6346 39.0961C85.5102 42.7521 84.7738 46.589 82.8375 49.7968C77.5638 58.5337 74.4612 66.5873 69.7464 80L61.9277 75.414C61.9277 75.414 60.9241 65.7325 64.4363 64.2038C65.5449 63.7213 65.8037 62.0203 65.6386 59.9181C65.1411 53.5796 65.4301 46.996 68.5745 41.6544C69.1755 40.6334 70.5159 40.4141 71.502 41.0708V41.0708M44.6291 31.3871L57.0125 34.0677C58.3029 34.347 59.6496 34.0989 60.7612 33.3771L64.2907 31.085C65.6435 30.2065 67.4027 30.3292 68.6246 31.3871M68.6246 31.3871L68.8144 31.5505C70.8844 33.3315 73.5762 34.1855 76.2764 33.9176L76.5399 33.8914M68.6246 31.3871C67.1461 34.8967 68.3588 38.9777 71.502 41.0708M71.502 41.0708L73.4237 42.3504" stroke="black"/>
<path d="M16.7753 12.3921C18.7206 13.3524 20.2966 15.5259 21.4439 17.3198C22.447 18.8883 23.1149 20.7904 23.8416 22.5011C24.2181 23.3871 24.3157 23.9635 24.3157 24.8933" stroke="#31170E" stroke-width="2" stroke-linecap="round"/>
<path d="M71.5404 12C69.5951 12.9603 68.019 15.1338 66.8717 16.9277C65.8686 18.4962 65.2008 20.3983 64.474 22.109C64.0976 22.9951 64 23.5714 64 24.5012" stroke="#31170E" stroke-width="2" stroke-linecap="round"/>
</g>
<path d="M55.5326 29.8509C55.5326 32.9883 54.2712 35.1943 52.2496 36.634C50.205 38.0901 47.3383 38.7919 44.1071 38.7919C40.8759 38.7919 38.0092 38.0901 35.9646 36.634C33.943 35.1943 32.6816 32.9883 32.6816 29.8509C32.6816 26.6791 33.973 23.0549 36.0758 20.2259C38.1823 17.3919 41.0322 15.4441 44.1071 15.4441C47.182 15.4441 50.0319 17.3919 52.1384 20.2259C54.2412 23.0549 55.5326 26.6791 55.5326 29.8509Z" fill="#3EB32E" stroke="black"/>
</g>
<defs>
<filter id="filter0_d_12_330" x="0.499939" y="0.480713" width="89.0001" height="88.2576" filterUnits="userSpaceOnUse" color-interpolation-filters="sRGB">
<feFlood flood-opacity="0" result="BackgroundImageFix"/>
<feColorMatrix in="SourceAlpha" type="matrix" values="0 0 0 0 0 0 0 0 0 0 0 0 0 0 0 0 0 0 127 0" result="hardAlpha"/>
<feOffset dy="4"/>
<feGaussianBlur stdDeviation="2"/>
<feComposite in2="hardAlpha" operator="out"/>
<feColorMatrix type="matrix" values="0 0 0 0 0 0 0 0 0 0 0 0 0 0 0 0 0 0 0.25 0"/>
<feBlend mode="normal" in2="BackgroundImageFix" result="effect1_dropShadow_12_330"/>
<feBlend mode="normal" in="SourceGraphic" in2="effect1_dropShadow_12_330" result="shape"/>
</filter>
</defs>
</svg>
