<svg width="90" height="96" viewBox="0 0 90 96" fill="none" xmlns="http://www.w3.org/2000/svg">
<g filter="url(#filter0_d_12_313)">
<mask id="mask0_12_313" style="mask-type:alpha" maskUnits="userSpaceOnUse" x="4" y="2" width="82" height="86">
<path d="M6.11062 49.7881C10.4422 59.0284 12.6859 67.3622 15.9729 81.1942L24.2282 77.4506C24.2282 77.4506 26.2382 67.927 22.9051 66.0396C21.853 65.4439 21.7735 63.7251 22.1573 61.6517C23.3147 55.3999 23.7155 48.8222 21.1466 43.1811C20.6556 42.1029 19.3455 41.7448 18.2962 42.2947C21.6409 40.5417 23.2735 36.6098 22.17 32.9649C23.4958 32.0405 25.2582 32.1024 26.5117 33.1174L29.7824 35.7659C30.8124 36.5999 32.1258 36.9875 33.4383 36.8446L45.6568 35.5142L57.3317 39.3559C58.5858 39.7685 59.9511 39.6625 61.132 39.0609L64.8818 37.1503C66.319 36.4181 68.0557 36.7239 69.1603 37.9038C67.3232 41.2396 68.1026 45.425 71.0098 47.8351C70.0977 47.079 68.7418 47.157 68.0373 48.1095C64.3518 53.0932 63.3762 59.6106 63.2085 65.9663C63.1528 68.0743 62.7177 69.7389 61.5647 70.1029C57.912 71.2561 57.898 80.9895 57.898 80.9895L65.1946 86.3676C71.2856 73.5213 75.213 65.836 81.3711 57.6983C83.6321 54.7105 84.7655 50.9715 84.2768 47.244L82.5246 33.8788L85.2355 22.6942L85.3343 21.7537C85.5537 19.6665 84.779 17.6014 83.2491 16.1955C81.9892 15.0378 80.3295 14.4316 78.6289 14.508L76.4345 14.6066L70.3048 8.71918C68.6856 7.16399 66.3337 6.64286 64.2091 7.36855L57.658 9.60624L57.6665 9.52537C57.7377 8.84766 57.1466 8.29338 56.4866 8.41902L48.3417 9.96952L40.697 6.75946C40.0776 6.49936 39.3842 6.91863 39.313 7.59634L39.3045 7.67721L33.3617 4.12636C31.4345 2.97481 29.0256 2.99555 27.1184 4.18011L19.8986 8.66446L17.7726 8.11176C16.1251 7.68344 14.3756 7.93134 12.9026 8.80183C11.1138 9.85892 9.92664 11.7177 9.70726 13.805L9.60841 14.7455L9.93463 26.2493L5.44195 38.9582C4.18895 42.5026 4.52024 46.3955 6.11062 49.7881Z" fill="#D9D9D9"/>
<path d="M48.6988 10.1195L40.697 6.75946C40.0776 6.49936 39.3842 6.91863 39.313 7.59634L39.3045 7.67721L33.3617 4.12636C31.4345 2.97481 29.0256 2.99555 27.1184 4.18011L19.8986 8.66446L17.7726 8.11176C16.1251 7.68344 14.3756 7.93134 12.9026 8.80183C11.1138 9.85892 9.92664 11.7177 9.70726 13.805L9.60841 14.7455L9.93463 26.2493L5.44195 38.9582C4.18895 42.5026 4.52024 46.3955 6.11062 49.7881C10.4422 59.0284 12.6859 67.3622 15.9729 81.1942L24.2282 77.4506C24.2282 77.4506 26.2382 67.927 22.9051 66.0396C21.853 65.4439 21.7735 63.7251 22.1573 61.6517C23.3147 55.3999 23.7155 48.8222 21.1466 43.1811C20.6556 42.1029 19.3455 41.7448 18.2962 42.2947V42.2947M46.034 35.4731L33.4383 36.8446C32.1258 36.9875 30.8124 36.5999 29.7824 35.7659L26.5117 33.1174C25.2582 32.1024 23.4958 32.0405 22.17 32.9649M22.17 32.9649L21.9642 33.1075C19.7194 34.6625 16.953 35.2303 14.2957 34.6817L14.0362 34.6281M22.17 32.9649C23.2735 36.6098 21.6409 40.5417 18.2962 42.2947M18.2962 42.2947L16.2513 43.3665M47.9611 10.042L56.4866 8.41902C57.1466 8.29338 57.7377 8.84766 57.6665 9.52537L57.658 9.60624L64.2091 7.36855C66.3337 6.64286 68.6856 7.16399 70.3048 8.71918L76.4345 14.6066L78.6289 14.508C80.3295 14.4316 81.9892 15.0378 83.2491 16.1955C84.779 17.6014 85.5537 19.6665 85.3343 21.7537L85.2355 22.6942L82.5246 33.8788L84.2768 47.244C84.7655 50.9715 83.6321 54.7105 81.3711 57.6983C75.213 65.836 71.2856 73.5213 65.1946 86.3676L57.898 80.9895C57.898 80.9895 57.912 71.2561 61.5647 70.1029C62.7177 69.7389 63.1528 68.0743 63.2085 65.9663C63.3762 59.6106 64.3518 53.0932 68.0373 48.1095C68.7418 47.157 70.0977 47.079 71.0098 47.8351V47.8351M45.2963 35.3956L57.3317 39.3559C58.5858 39.7685 59.9511 39.6625 61.132 39.0609L64.8818 37.1503C66.319 36.4181 68.0557 36.7239 69.1603 37.9038M69.1603 37.9038L69.332 38.0861C71.2045 40.0738 73.7924 41.2044 76.5057 41.2202L76.7706 41.2218M69.1603 37.9038C67.3232 41.2396 68.1026 45.425 71.0098 47.8351M71.0098 47.8351L72.7872 49.3086" stroke="black"/>
</mask>
<g mask="url(#mask0_12_313)">
<path d="M6.11062 49.7881C10.4422 59.0284 12.6859 67.3622 15.9729 81.1942L24.2282 77.4506C24.2282 77.4506 26.2382 67.927 22.9051 66.0396C21.853 65.4439 21.7735 63.7251 22.1573 61.6517C23.3147 55.3999 23.7155 48.8222 21.1466 43.1811C20.6556 42.1029 19.3455 41.7448 18.2962 42.2947C21.6409 40.5417 23.2735 36.6098 22.17 32.9649C23.4958 32.0405 25.2582 32.1024 26.5117 33.1174L29.7824 35.7659C30.8124 36.5999 32.1258 36.9875 33.4383 36.8446L45.6568 35.5142L57.3317 39.3559C58.5858 39.7685 59.9511 39.6625 61.132 39.0609L64.8818 37.1503C66.319 36.4181 68.0557 36.7239 69.1603 37.9038C67.3232 41.2396 68.1026 45.425 71.0098 47.8351C70.0977 47.079 68.7418 47.157 68.0373 48.1095C64.3518 53.0932 63.3762 59.6106 63.2085 65.9663C63.1528 68.0743 62.7177 69.7389 61.5647 70.1029C57.912 71.2561 57.898 80.9895 57.898 80.9895L65.1946 86.3676C71.2856 73.5213 75.213 65.836 81.3711 57.6983C83.6321 54.7105 84.7655 50.9715 84.2768 47.244L82.5246 33.8788L85.2355 22.6942L85.3343 21.7537C85.5537 19.6665 84.779 17.6014 83.2491 16.1955C81.9892 15.0378 80.3295 14.4316 78.6289 14.508L76.4345 14.6066L70.3048 8.71918C68.6856 7.16399 66.3337 6.64286 64.2091 7.36855L57.658 9.60624L57.6665 9.52537C57.7377 8.84766 57.1466 8.29338 56.4866 8.41902L48.3417 9.96952L40.697 6.75946C40.0776 6.49936 39.3842 6.91863 39.313 7.59634L39.3045 7.67721L33.3617 4.12636C31.4345 2.97481 29.0256 2.99555 27.1184 4.18011L19.8986 8.66446L17.7726 8.11176C16.1251 7.68344 14.3756 7.93134 12.9026 8.80183C11.1138 9.85892 9.92664 11.7177 9.70726 13.805L9.60841 14.7455L9.93463 26.2493L5.44195 38.9582C4.18895 42.5026 4.52024 46.3955 6.11062 49.7881Z" fill="#3EB32E"/>
<path d="M48.6988 10.1195L40.697 6.75946C40.0776 6.49936 39.3842 6.91863 39.313 7.59634L39.3045 7.67721L33.3617 4.12636C31.4345 2.97481 29.0256 2.99555 27.1184 4.18011L19.8986 8.66446L17.7726 8.11176C16.1251 7.68344 14.3756 7.93134 12.9026 8.80183C11.1138 9.85892 9.92664 11.7177 9.70726 13.805L9.60841 14.7455L9.93463 26.2493L5.44195 38.9582C4.18895 42.5026 4.52024 46.3955 6.11062 49.7881C10.4422 59.0284 12.6859 67.3622 15.9729 81.1942L24.2282 77.4506C24.2282 77.4506 26.2382 67.927 22.9051 66.0396C21.853 65.4439 21.7735 63.7251 22.1573 61.6517C23.3147 55.3999 23.7155 48.8222 21.1466 43.1811C20.6556 42.1029 19.3455 41.7448 18.2962 42.2947V42.2947M46.034 35.4731L33.4383 36.8446C32.1258 36.9875 30.8124 36.5999 29.7824 35.7659L26.5117 33.1174C25.2582 32.1024 23.4958 32.0405 22.17 32.9649M22.17 32.9649L21.9642 33.1075C19.7194 34.6625 16.953 35.2303 14.2957 34.6817L14.0362 34.6281M22.17 32.9649C23.2735 36.6098 21.6409 40.5417 18.2962 42.2947M18.2962 42.2947L16.2513 43.3665M47.9611 10.042L56.4866 8.41902C57.1466 8.29338 57.7377 8.84766 57.6665 9.52537L57.658 9.60624L64.2091 7.36855C66.3337 6.64286 68.6856 7.16399 70.3048 8.71918L76.4345 14.6066L78.6289 14.508C80.3295 14.4316 81.9892 15.0378 83.2491 16.1955C84.779 17.6014 85.5537 19.6665 85.3343 21.7537L85.2355 22.6942L82.5246 33.8788L84.2768 47.244C84.7655 50.9715 83.6321 54.7105 81.3711 57.6983C75.213 65.836 71.2856 73.5213 65.1946 86.3676L57.898 80.9895C57.898 80.9895 57.912 71.2561 61.5647 70.1029C62.7177 69.7389 63.1528 68.0743 63.2085 65.9663C63.3762 59.6106 64.3518 53.0932 68.0373 48.1095C68.7418 47.157 70.0977 47.079 71.0098 47.8351V47.8351M45.2963 35.3956L57.3317 39.3559C58.5858 39.7685 59.9511 39.6625 61.132 39.0609L64.8818 37.1503C66.319 36.4181 68.0557 36.7239 69.1603 37.9038M69.1603 37.9038L69.332 38.0861C71.2045 40.0738 73.7924 41.2044 76.5057 41.2202L76.7706 41.2218M69.1603 37.9038C67.3232 41.2396 68.1026 45.425 71.0098 47.8351M71.0098 47.8351L72.7872 49.3086" stroke="black"/>
<ellipse opacity="0.54" cx="45.8878" cy="28.5327" rx="52.5" ry="32.5" transform="rotate(6 45.8878 28.5327)" fill="#21100A"/>
<path d="M97.812 31.9791C96.8987 40.669 90.3723 48.0154 80.3972 52.8288C70.4302 57.6384 57.0926 59.8756 42.752 58.3684C28.4113 56.8611 15.8303 51.8997 7.08115 45.123C-1.67518 38.3408 -6.53159 29.798 -5.61825 21.1082C-4.70491 12.4183 1.82152 5.07191 11.7966 0.258468C21.7636 -4.55105 35.1012 -6.78831 49.4418 -5.28105C63.7824 -3.77378 76.3634 1.18763 85.1126 7.96429C93.869 14.7465 98.7254 23.2893 97.812 31.9791Z" fill="#B76B4F" stroke="black"/>
<circle cx="45.0247" cy="31.9613" r="15.5" transform="rotate(6 45.0247 31.9613)" fill="#319224" stroke="black"/>
<ellipse cx="44.7634" cy="34.4476" rx="13" ry="17.5" transform="rotate(6 44.7634 34.4476)" fill="#18660E"/>
<path opacity="0.51" d="M22.1253 34.582C21.6017 34.895 20.8044 36.1293 20.1901 36.2259C19.522 36.3309 18.8852 36.4107 18.2369 36.6183C18.0782 36.6691 16.4217 36.4798 16.4013 36.4253" stroke="#31170E" stroke-width="3" stroke-linecap="round"/>
<path opacity="0.51" d="M20.2946 42.4336C19.7709 42.7466 18.9737 43.981 18.3594 44.0775C17.6913 44.1825 17.0545 44.2624 16.4062 44.4699C16.2474 44.5207 14.591 44.3315 14.5705 44.277" stroke="#31170E" stroke-width="3" stroke-linecap="round"/>
<path opacity="0.51" d="M69.3651 39.547C69.8122 39.9621 70.3355 41.3352 70.9162 41.5574C71.5479 41.799 72.1542 42.0095 72.7452 42.3473C72.8899 42.43 74.5495 42.5893 74.5808 42.5402" stroke="#31170E" stroke-width="3" stroke-linecap="round"/>
<path opacity="0.51" d="M69.5234 47.6078C69.9705 48.0228 70.4938 49.3959 71.0745 49.6181C71.7062 49.8597 72.3125 50.0702 72.9035 50.408C73.0482 50.4907 74.7078 50.65 74.7391 50.6009" stroke="#31170E" stroke-width="3" stroke-linecap="round"/>
<path d="M48.6988 10.1195L40.697 6.75946C40.0776 6.49936 39.3842 6.91863 39.313 7.59634L39.3045 7.67721L33.3617 4.12636C31.4345 2.97481 29.0256 2.99555 27.1184 4.18011L19.8986 8.66446L17.7726 8.11176C16.1251 7.68344 14.3756 7.93134 12.9026 8.80183C11.1138 9.85892 9.92664 11.7177 9.70726 13.805L9.60841 14.7455L9.93463 26.2493L5.44195 38.9582C4.18895 42.5026 4.52024 46.3955 6.11062 49.7881C10.4422 59.0284 12.6859 67.3622 15.9729 81.1942L24.2282 77.4506C24.2282 77.4506 26.2382 67.927 22.9051 66.0396C21.853 65.4439 21.7735 63.7251 22.1573 61.6517C23.3147 55.3999 23.7155 48.8222 21.1466 43.1811C20.6556 42.1029 19.3455 41.7448 18.2962 42.2947V42.2947M46.034 35.4731L33.4383 36.8446C32.1258 36.9875 30.8124 36.5999 29.7824 35.7659L26.5117 33.1174C25.2582 32.1024 23.4958 32.0405 22.17 32.9649M22.17 32.9649L21.9642 33.1075C19.7194 34.6625 16.953 35.2303 14.2957 34.6817L14.0362 34.6281M22.17 32.9649C23.2735 36.6098 21.6409 40.5417 18.2962 42.2947M18.2962 42.2947L16.2513 43.3665M47.9611 10.042L56.4866 8.41902C57.1466 8.29338 57.7377 8.84766 57.6665 9.52537L57.658 9.60624L64.2091 7.36855C66.3337 6.64286 68.6856 7.16399 70.3048 8.71918L76.4345 14.6066L78.6289 14.508C80.3295 14.4316 81.9892 15.0378 83.2491 16.1955C84.779 17.6014 85.5537 19.6665 85.3343 21.7537L85.2355 22.6942L82.5246 33.8788L84.2768 47.244C84.7655 50.9715 83.6321 54.7105 81.3711 57.6983C75.213 65.836 71.2856 73.5213 65.1946 86.3676L57.898 80.9895C57.898 80.9895 57.912 71.2561 61.5647 70.1029C62.7177 69.7389 63.1528 68.0743 63.2085 65.9663C63.3762 59.6106 64.3518 53.0932 68.0373 48.1095C68.7418 47.157 70.0977 47.079 71.0098 47.8351V47.8351M45.2963 35.3956L57.3317 39.3559C58.5858 39.7685 59.9511 39.6625 61.132 39.0609L64.8818 37.1503C66.319 36.4181 68.0557 36.7239 69.1603 37.9038M69.1603 37.9038L69.332 38.0861C71.2045 40.0738 73.7924 41.2044 76.5057 41.2202L76.7706 41.2218M69.1603 37.9038C67.3232 41.2396 68.1026 45.425 71.0098 47.8351M71.0098 47.8351L72.7872 49.3086" stroke="black"/>
<path d="M19.5806 13.5931C21.4149 14.7515 22.7551 17.0778 23.7086 18.9818C24.5422 20.6466 25.0076 22.608 25.5516 24.3853C25.8333 25.3059 25.8702 25.8893 25.773 26.814" stroke="#31170E" stroke-width="2" stroke-linecap="round"/>
<path d="M74.0867 18.9277C72.0517 19.6794 70.2571 21.6762 68.9285 23.3404C67.767 24.7954 66.904 26.6173 66.0024 28.2427C65.5354 29.0845 65.3781 29.6475 65.2809 30.5722" stroke="#31170E" stroke-width="2" stroke-linecap="round"/>
</g>
<path d="M55.2975 33.851C55.2975 36.9884 54.0361 39.1943 52.0145 40.6341C49.9699 42.0902 47.1032 42.792 43.872 42.792C40.6408 42.792 37.7741 42.0902 35.7295 40.6341C33.7079 39.1943 32.4465 36.9884 32.4465 33.851C32.4465 30.6792 33.738 27.055 35.8407 24.226C37.9472 21.392 40.7971 19.4442 43.872 19.4442C46.9469 19.4442 49.7968 21.392 51.9033 24.226C54.0061 27.055 55.2975 30.6792 55.2975 33.851Z" fill="#3EB32E" stroke="black"/>
</g>
<defs>
<filter id="filter0_d_12_313" x="0.177231" y="2.77698" width="89.6937" height="92.3532" filterUnits="userSpaceOnUse" color-interpolation-filters="sRGB">
<feFlood flood-opacity="0" result="BackgroundImageFix"/>
<feColorMatrix in="SourceAlpha" type="matrix" values="0 0 0 0 0 0 0 0 0 0 0 0 0 0 0 0 0 0 127 0" result="hardAlpha"/>
<feOffset dy="4"/>
<feGaussianBlur stdDeviation="2"/>
<feComposite in2="hardAlpha" operator="out"/>
<feColorMatrix type="matrix" values="0 0 0 0 0 0 0 0 0 0 0 0 0 0 0 0 0 0 0.25 0"/>
<feBlend mode="normal" in2="BackgroundImageFix" result="effect1_dropShadow_12_313"/>
<feBlend mode="normal" in="SourceGraphic" in2="effect1_dropShadow_12_313" result="shape"/>
</filter>
</defs>
</svg>
