<svg width="380" height="380" viewBox="0 0 380 380" fill="none" xmlns="http://www.w3.org/2000/svg">
<rect width="380" height="380" fill="#3B0606"/>
<rect x="60" y="50" width="290" height="330" fill="#17495B"/>
<rect x="50" y="60" width="10" height="320" fill="#17495B"/>
<rect x="330" y="30" width="10" height="20" fill="#17495B"/>
<rect x="340" y="40" width="10" height="10" fill="#17495B"/>
<rect x="350" y="70" width="10" height="60" fill="#17495B"/>
<rect x="350" y="180" width="30" height="60" fill="#17495B"/>
<rect x="350" y="260" width="20" height="90" fill="#17495B"/>
<rect x="350" y="240" width="20" height="10" fill="#17495B"/>
<rect x="350" y="250" width="10" height="10" fill="#17495B"/>
<rect x="350" y="350" width="10" height="10" fill="#17495B"/>
<rect x="40" y="140" width="10" height="20" fill="#17495B"/>
<rect x="40" y="80" width="10" height="20" fill="#17495B"/>
<rect y="210" width="10" height="20" fill="#17495B"/>
<rect x="40" y="210" width="10" height="30" fill="#17495B"/>
<rect x="10" y="220" width="10" height="20" fill="#17495B"/>
<rect x="20" y="220" width="20" height="120" fill="#17495B"/>
<rect x="10" y="250" width="20" height="90" fill="#17495B"/>
<rect x="10" y="370" width="20" height="10" fill="#17495B"/>
<rect x="20" y="340" width="20" height="20" fill="#17495B"/>
<rect x="30" y="350" width="20" height="20" fill="#17495B"/>
<rect x="40" y="360" width="20" height="20" fill="#17495B"/>
<rect x="30" y="100" width="10" height="40" fill="#17495B"/>
<rect x="110" y="240" width="150" height="30" fill="#0A0226"/>
<rect x="120" y="230" width="40" height="10" fill="#0A0226"/>
<rect x="120" y="270" width="30" height="10" fill="#0A0226"/>
<rect x="220" y="270" width="30" height="10" fill="#0A0226"/>
<rect x="220" y="230" width="30" height="10" fill="#0A0226"/>
<rect x="100" y="30" width="160" height="110" fill="#CEF0FF"/>
<rect y="100" width="30" height="110" fill="#69C8F2"/>
<rect x="10" y="90" width="30" height="10" fill="#69C8F2"/>
<rect x="20" y="80" width="20" height="10" fill="#69C8F2"/>
<rect x="30" y="70" width="20" height="10" fill="#69C8F2"/>
<rect x="10" y="210" width="20" height="10" fill="#69C8F2"/>
<rect x="30" y="140" width="10" height="80" fill="#69C8F2"/>
<rect x="40" y="160" width="10" height="50" fill="#69C8F2"/>
<rect x="50" y="170" width="10" height="30" fill="#69C8F2"/>
<rect x="30" y="250" width="10" height="10" fill="#69C8F2"/>
<rect x="20" y="260" width="10" height="80" fill="#69C8F2"/>
<rect x="30" y="330" width="10" height="30" fill="#69C8F2"/>
<rect x="40" y="350" width="10" height="20" fill="#69C8F2"/>
<rect x="50" y="360" width="20" height="20" fill="#69C8F2"/>
<rect x="70" y="370" width="20" height="10" fill="#69C8F2"/>
<rect x="90" y="360" width="240" height="20" fill="#69C8F2"/>
<rect x="110" y="350" width="30" height="10" fill="#69C8F2"/>
<rect x="230" y="350" width="40" height="10" fill="#69C8F2"/>
<rect x="330" y="350" width="20" height="10" fill="#69C8F2"/>
<rect x="330" y="360" width="10" height="10" fill="#69C8F2"/>
<rect x="340" y="340" width="10" height="10" fill="#69C8F2"/>
<rect x="340" y="260" width="10" height="10" fill="#69C8F2"/>
<rect x="350" y="270" width="10" height="70" fill="#69C8F2"/>
<rect x="160" y="280" width="50" height="40" fill="#69C8F2"/>
<rect x="150" y="280" width="10" height="30" fill="#69C8F2"/>
<rect x="210" y="280" width="10" height="30" fill="#69C8F2"/>
<rect x="100" y="280" width="20" height="20" fill="#69C8F2"/>
<rect x="100" y="270" width="10" height="10" fill="#69C8F2"/>
<rect x="120" y="290" width="30" height="10" fill="#69C8F2"/>
<rect x="220" y="290" width="30" height="10" fill="#69C8F2"/>
<rect x="250" y="280" width="20" height="20" fill="#69C8F2"/>
<rect x="260" y="270" width="20" height="20" fill="#69C8F2"/>
<rect x="270" y="250" width="20" height="30" fill="#69C8F2"/>
<rect x="270" y="240" width="10" height="10" fill="#69C8F2"/>
<rect x="320" y="180" width="50" height="30" fill="#69C8F2"/>
<rect x="330" y="170" width="50" height="30" fill="#69C8F2"/>
<rect x="330" y="190" width="30" height="30" fill="#69C8F2"/>
<rect x="340" y="150" width="40" height="20" fill="#69C8F2"/>
<rect x="350" y="130" width="30" height="20" fill="#69C8F2"/>
<rect x="360" y="70" width="20" height="60" fill="#69C8F2"/>
<rect x="350" y="60" width="20" height="10" fill="#69C8F2"/>
<rect x="350" y="50" width="10" height="10" fill="#69C8F2"/>
<rect x="80" y="240" width="10" height="50" fill="#69C8F2"/>
<rect x="90" y="230" width="10" height="70" fill="#69C8F2"/>
<rect x="40" y="100" width="40" height="40" fill="#69C8F2"/>
<rect x="50" y="80" width="50" height="20" fill="#69C8F2"/>
<rect x="50" y="140" width="20" height="20" fill="#69C8F2"/>
<rect x="80" y="100" width="30" height="30" fill="#69C8F2"/>
<rect x="120" y="120" width="30" height="30" fill="#69C8F2"/>
<rect x="100" y="130" width="10" height="10" fill="#69C8F2"/>
<rect x="110" y="110" width="10" height="40" fill="#69C8F2"/>
<rect x="130" y="150" width="20" height="10" fill="#69C8F2"/>
<rect x="150" y="130" width="50" height="30" fill="#69C8F2"/>
<rect x="200" y="130" width="20" height="20" fill="#69C8F2"/>
<rect x="220" y="130" width="20" height="10" fill="#69C8F2"/>
<rect x="240" y="120" width="10" height="10" fill="#69C8F2"/>
<rect x="70" y="50" width="10" height="10" fill="#69C8F2"/>
<rect x="60" y="60" width="40" height="20" fill="#69C8F2"/>
<rect x="100" y="50" width="10" height="20" fill="#69C8F2"/>
<rect x="110" y="40" width="10" height="20" fill="#69C8F2"/>
<rect x="120" y="30" width="30" height="20" fill="#69C8F2"/>
<rect x="140" y="20" width="70" height="20" fill="#69C8F2"/>
<rect x="210" y="30" width="20" height="10" fill="#69C8F2"/>
<rect x="70" y="290" width="10" height="70" fill="#8F3E56"/>
<rect x="40" y="310" width="10" height="20" fill="#8F3E56"/>
<rect x="60" y="300" width="10" height="10" fill="#8F3E56"/>
<rect x="50" y="310" width="20" height="40" fill="#8F3E56"/>
<rect x="90" y="310" width="20" height="40" fill="#8F3E56"/>
<rect x="80" y="310" width="10" height="50" fill="#8F3E56"/>
<rect x="110" y="300" width="30" height="30" fill="#8F3E56"/>
<rect x="150" y="330" width="70" height="20" fill="#8F3E56"/>
<rect x="140" y="310" width="10" height="30" fill="#8F3E56"/>
<rect x="220" y="310" width="10" height="30" fill="#8F3E56"/>
<rect x="230" y="300" width="30" height="30" fill="#8F3E56"/>
<rect x="250" y="310" width="20" height="30" fill="#8F3E56"/>
<rect x="270" y="310" width="10" height="40" fill="#8F3E56"/>
<rect x="280" y="310" width="30" height="50" fill="#8F3E56"/>
<rect x="310" y="310" width="20" height="40" fill="#8F3E56"/>
<rect x="330" y="330" width="10" height="10" fill="#8F3E56"/>
<rect x="290" y="300" width="60" height="10" fill="#8F3E56"/>
<rect x="340" y="270" width="10" height="10" fill="#8F3E56"/>
<rect x="330" y="280" width="20" height="10" fill="#8F3E56"/>
<rect x="300" y="290" width="50" height="10" fill="#8F3E56"/>
<rect x="330" y="310" width="20" height="20" fill="#8F3E56"/>
<rect x="90" y="320" width="10" height="10" fill="#5E1416"/>
<rect x="80" y="320" width="10" height="10" fill="#5E1416"/>
<rect x="70" y="320" width="10" height="10" fill="#5E1416"/>
<rect x="60" y="310" width="10" height="10" fill="#5E1416"/>
<rect x="70" y="330" width="10" height="10" fill="#5E1416"/>
<rect x="60" y="320" width="10" height="10" fill="#5E1416"/>
<rect x="50" y="310" width="10" height="10" fill="#5E1416"/>
<rect x="80" y="340" width="10" height="10" fill="#5E1416"/>
<rect x="80" y="330" width="10" height="10" fill="#5E1416"/>
<rect x="130" y="310" width="10" height="10" fill="#5E1416"/>
<rect x="140" y="320" width="10" height="10" fill="#5E1416"/>
<rect x="220" y="320" width="10" height="10" fill="#5E1416"/>
<rect x="230" y="310" width="40" height="10" fill="#5E1416"/>
<rect x="290" y="310" width="50" height="10" fill="#5E1416"/>
<rect x="310" y="300" width="20" height="10" fill="#5E1416"/>
<rect x="270" y="330" width="40" height="10" fill="#5E1416"/>
<rect x="280" y="340" width="20" height="10" fill="#5E1416"/>
<rect x="270" y="320" width="60" height="10" fill="#5E1416"/>
<rect x="140" y="330" width="90" height="10" fill="#5E1416"/>
<rect x="90" y="330" width="10" height="10" fill="#5E1416"/>
<rect x="100" y="310" width="20" height="30" fill="#F2EAF1"/>
<rect x="110" y="300" width="20" height="30" fill="#F2EAF1"/>
<rect x="30" y="280" width="30" height="30" fill="#F2EAF1"/>
<rect x="30" y="310" width="10" height="20" fill="#F2EAF1"/>
<rect x="40" y="330" width="10" height="20" fill="#F2EAF1"/>
<rect x="150" y="330" width="10" height="20" fill="#F2EAF1"/>
<rect x="170" y="330" width="10" height="20" fill="#F2EAF1"/>
<rect x="190" y="330" width="10" height="20" fill="#F2EAF1"/>
<rect x="210" y="330" width="10" height="20" fill="#F2EAF1"/>
<rect x="240" y="300" width="20" height="30" fill="#F2EAF1"/>
<rect x="250" y="310" width="20" height="30" fill="#F2EAF1"/>
<rect x="290" y="220" width="30" height="20" fill="#F2EAF1"/>
<rect x="300" y="230" width="30" height="60" fill="#F2EAF1"/>
<rect x="330" y="250" width="10" height="30" fill="#F2EAF1"/>
<rect x="220" y="250" width="20" height="20" fill="#F2EAF1"/>
<rect x="130" y="250" width="20" height="20" fill="#F2EAF1"/>
<rect x="40" y="240" width="30" height="20" fill="#F2EAF1"/>
<rect x="60" y="220" width="20" height="20" fill="#F2EAF1"/>
<rect x="50" y="230" width="10" height="10" fill="#F2EAF1"/>
<rect x="70" y="140" width="10" height="10" fill="#F2EAF1"/>
<rect x="80" y="130" width="10" height="10" fill="#F2EAF1"/>
<rect x="90" y="130" width="10" height="10" fill="#F2EAF1"/>
<rect x="100" y="140" width="10" height="10" fill="#F2EAF1"/>
<rect x="110" y="150" width="20" height="10" fill="#F2EAF1"/>
<rect x="130" y="160" width="70" height="10" fill="#F2EAF1"/>
<rect x="200" y="150" width="20" height="10" fill="#F2EAF1"/>
<rect x="220" y="140" width="20" height="10" fill="#F2EAF1"/>
<rect x="30" y="260" width="40" height="40" fill="#F2EAF1"/>
<rect x="50" y="350" width="20" height="10" fill="#F2EAF1"/>
<rect x="70" y="150" width="40" height="20" fill="#F1C471"/>
<rect x="160" y="170" width="60" height="70" fill="#F1C471"/>
<rect x="80" y="140" width="20" height="50" fill="#F1C471"/>
<rect x="90" y="150" width="20" height="50" fill="#F1C471"/>
<rect x="100" y="160" width="30" height="50" fill="#F1C471"/>
<rect x="110" y="170" width="20" height="50" fill="#F1C471"/>
<rect x="130" y="170" width="30" height="60" fill="#F1C471"/>
<rect x="220" y="150" width="40" height="80" fill="#F1C471"/>
<rect x="200" y="160" width="20" height="10" fill="#F1C471"/>
<rect x="240" y="130" width="20" height="20" fill="#F1C471"/>
<rect x="250" width="10" height="130" fill="#F1C471"/>
<rect x="260" width="50" height="190" fill="#F1C471"/>
<rect x="260" y="190" width="40" height="10" fill="#F1C471"/>
<rect x="260" y="200" width="30" height="10" fill="#F1C471"/>
<rect x="260" y="210" width="10" height="10" fill="#F1C471"/>
<rect x="310" y="10" width="10" height="10" fill="#F1C471"/>
<rect x="310" y="20" width="20" height="10" fill="#F1C471"/>
<rect x="310" y="60" width="30" height="10" fill="#F1C471"/>
<rect x="310" y="50" width="30" height="10" fill="#F1C471"/>
<rect x="310" y="40" width="30" height="10" fill="#F1C471"/>
<rect x="310" y="30" width="20" height="10" fill="#F1C471"/>
<rect x="310" y="160" width="20" height="10" fill="#F1C471"/>
<rect x="310" y="150" width="20" height="10" fill="#F1C471"/>
<rect x="310" y="140" width="30" height="10" fill="#F1C471"/>
<rect x="310" y="130" width="30" height="10" fill="#F1C471"/>
<rect x="310" y="70" width="40" height="60" fill="#F1C471"/>
<rect x="90" width="160" height="20" fill="#F1C471"/>
<rect x="70" y="20" width="50" height="20" fill="#F1C471"/>
<rect x="70" y="40" width="40" height="10" fill="#F1C471"/>
<rect x="80" y="50" width="20" height="10" fill="#F1C471"/>
<rect x="120" y="20" width="20" height="10" fill="#F1C471"/>
<rect x="80" y="10" width="10" height="10" fill="#F1C471"/>
<rect x="210" y="20" width="40" height="10" fill="#F1C471"/>
<rect x="230" y="30" width="20" height="10" fill="#F1C471"/>
<rect x="240" y="40" width="10" height="20" fill="#F1C471"/>
<rect x="310" y="170" width="10" height="10" fill="#F1C471"/>
<rect x="310" y="10" width="10" height="10" fill="#F2EAF1"/>
<rect x="300" width="10" height="10" fill="#F2EAF1"/>
<rect x="300" width="10" height="10" fill="#F2EAF1"/>
<rect x="90" width="10" height="10" fill="#F2EAF1"/>
<rect x="100" width="10" height="10" fill="#F2EAF1"/>
<rect x="110" width="10" height="10" fill="#F2EAF1"/>
<rect x="80" y="10" width="10" height="10" fill="#F2EAF1"/>
<rect x="90" y="10" width="10" height="10" fill="#F2EAF1"/>
<rect x="290" width="10" height="10" fill="#F2EAF1"/>
<rect x="300" y="10" width="10" height="10" fill="#F2EAF1"/>
<rect x="330" y="40" width="10" height="10" fill="#F2EAF1"/>
<rect x="320" y="20" width="10" height="20" fill="#F2EAF1"/>
<rect x="280" y="360" width="30" height="10" fill="#000732"/>
<rect x="160" y="70" width="10" height="10" fill="#EBF9FF"/>
<rect x="170" y="70" width="20" height="10" fill="#EBF9FF"/>
<rect x="190" y="70" width="10" height="10" fill="#EBF9FF"/>
<rect x="200" y="70" width="10" height="10" fill="#EBF9FF"/>
<rect x="210" y="70" width="10" height="10" fill="#EBF9FF"/>
<rect x="190" y="60" width="10" height="10" fill="#EBF9FF"/>
<rect x="150" y="80" width="10" height="10" fill="#EBF9FF"/>
<rect x="160" y="80" width="50" height="10" fill="#EBF9FF"/>
<rect x="160" y="90" width="40" height="10" fill="#EBF9FF"/>
<rect x="100" y="310" width="10" height="10" fill="white"/>
<rect x="110" y="300" width="10" height="10" fill="white"/>
<rect x="150" y="330" width="10" height="10" fill="white"/>
<rect x="170" y="330" width="10" height="10" fill="white"/>
<rect x="190" y="330" width="10" height="10" fill="white"/>
<rect x="210" y="330" width="10" height="10" fill="white"/>
<rect x="240" y="300" width="20" height="10" fill="white"/>
<rect x="260" y="310" width="10" height="10" fill="white"/>
<rect x="320" y="270" width="10" height="10" fill="white"/>
<rect x="320" y="280" width="10" height="10" fill="white"/>
<rect x="310" y="250" width="10" height="30" fill="white"/>
<rect x="300" y="240" width="10" height="10" fill="white"/>
<rect x="290" y="230" width="10" height="10" fill="white"/>
<rect x="120" y="300" width="10" height="10" fill="white"/>
<rect x="50" y="250" width="10" height="10" fill="white"/>
<rect x="60" y="230" width="10" height="10" fill="white"/>
<rect x="60" y="240" width="10" height="10" fill="white"/>
<rect x="40" y="260" width="10" height="10" fill="white"/>
<rect x="50" y="270" width="10" height="10" fill="white"/>
<rect x="40" y="280" width="10" height="10" fill="white"/>
<rect x="50" y="290" width="10" height="10" fill="white"/>
<rect x="160" y="230" width="60" height="10" fill="#C08518"/>
<rect x="130" y="220" width="30" height="10" fill="#C08518"/>
<rect x="220" y="220" width="40" height="10" fill="#C08518"/>
<rect x="260" y="210" width="10" height="10" fill="#C08518"/>
<rect x="270" y="200" width="20" height="10" fill="#C08518"/>
<rect x="110" y="210" width="20" height="10" fill="#C08518"/>
<rect x="100" y="200" width="20" height="10" fill="#C08518"/>
<rect x="90" y="190" width="10" height="10" fill="#C08518"/>
<rect x="80" y="180" width="10" height="10" fill="#C08518"/>
<rect x="300" y="180" width="10" height="10" fill="#C08518"/>
<rect x="310" y="170" width="10" height="10" fill="#C08518"/>
<rect x="320" y="150" width="10" height="20" fill="#C08518"/>
<rect x="330" y="130" width="10" height="20" fill="#C08518"/>
<rect x="280" y="190" width="20" height="10" fill="#C08518"/>
<rect x="20" y="100" width="10" height="40" fill="#CEF0FF"/>
<rect x="30" y="140" width="10" height="20" fill="#CEF0FF"/>
<rect x="40" y="160" width="10" height="10" fill="#CEF0FF"/>
<rect x="30" y="160" width="10" height="20" fill="#CEF0FF"/>
<rect x="10" y="120" width="10" height="40" fill="#CEF0FF"/>
<rect x="20" y="140" width="10" height="30" fill="#CEF0FF"/>
<rect width="10" height="40" transform="matrix(-1 0 0 1 370 90)" fill="#CEF0FF"/>
<rect width="10" height="20" transform="matrix(-1 0 0 1 360 130)" fill="#CEF0FF"/>
<rect width="10" height="10" transform="matrix(-1 0 0 1 350 150)" fill="#CEF0FF"/>
<rect width="10" height="20" transform="matrix(-1 0 0 1 360 150)" fill="#CEF0FF"/>
<rect width="10" height="40" transform="matrix(-1 0 0 1 380 110)" fill="#CEF0FF"/>
<rect width="10" height="30" transform="matrix(-1 0 0 1 370 130)" fill="#CEF0FF"/>
<rect x="40" y="330" width="10" height="20" fill="#CFBFCD"/>
<rect x="50" y="350" width="20" height="10" fill="#CFBFCD"/>
</svg>
