<svg width="364" height="47" viewBox="0 0 364 47" fill="none" xmlns="http://www.w3.org/2000/svg">
<mask id="mask0_64_1569" style="mask-type:alpha" maskUnits="userSpaceOnUse" x="0" y="0" width="364" height="47">
<rect width="364" height="47" fill="#D9D9D9"/>
</mask>
<g mask="url(#mask0_64_1569)">
<path d="M0 0H1V45.5312H0V0Z" fill="#3B282F"/>
<path d="M1 44.0625H2V47H1V44.0625Z" fill="#3B282F"/>
<path d="M60 44.0625H61V45.5312H60V44.0625Z" fill="#3B282F"/>
<path d="M1 0H61V1.46875H1V0Z" fill="#3B282F"/>
<path d="M61 0H62V45.5312H61V0Z" fill="#3B282F"/>
<path d="M61 0H62V45.5312H61V0Z" fill="#3B282F"/>
<rect x="1" y="1.46875" width="60" height="42.5938" fill="#A6906A"/>
<path d="M1 44.0625H2V45.5312H1V44.0625Z" fill="#6C5725"/>
<path d="M60 44.0625H61V45.5312H60V44.0625Z" fill="#6C5725"/>
<path d="M2 44.0625H60V45.5312H2V44.0625Z" fill="#6C5725"/>
<path d="M5 1.46875H6V44.0625H5V1.46875Z" fill="#8E764C"/>
<path d="M6 7.34375H56V8.8125H6V7.34375Z" fill="#8E764C"/>
<path d="M6 14.6875H56V16.1562H6V14.6875Z" fill="#8E764C"/>
<path d="M6 22.0312H56V23.5H6V22.0312Z" fill="#8E764C"/>
<path d="M6 29.375H56V30.8438H6V29.375Z" fill="#8E764C"/>
<path d="M6 36.7188H56V38.1875H6V36.7188Z" fill="#8E764C"/>
<path d="M56 1.46875H57V44.0625H56V1.46875Z" fill="#8E764C"/>
<path d="M1 42.5938H2V44.0625H1V42.5938Z" fill="#8E764C"/>
<path d="M60 42.5938H61V44.0625H60V42.5938Z" fill="#8E764C"/>
<path d="M62 4.40625H63L64 8.8125L65 11.75L66 16.1562L67 19.0938L68 23.5L69 26.4375L70 30.8438L71 33.7812L72 38.1875L73 41.125V74.9062H62V4.40625Z" fill="#8E764C"/>
<path d="M62 0H63V4.40625H62V0Z" fill="#3B282F"/>
<path d="M63 4.40625H64V8.8125H63V4.40625Z" fill="#3B282F"/>
<path d="M64 8.8125H65V11.75H64V8.8125Z" fill="#3B282F"/>
<path d="M65 11.75H66V16.1562H65V11.75Z" fill="#3B282F"/>
<path d="M66 16.1562H67V19.0938H66V16.1562Z" fill="#3B282F"/>
<path d="M67 19.0938H68V23.5H67V19.0938Z" fill="#3B282F"/>
<path d="M68 23.5H69V26.4375H68V23.5Z" fill="#3B282F"/>
<path d="M69 26.4375H70V30.8438H69V26.4375Z" fill="#3B282F"/>
<path d="M70 30.8438H71V33.7812H70V30.8438Z" fill="#3B282F"/>
<path d="M71 33.7812H72V38.1875H71V33.7812Z" fill="#3B282F"/>
<path d="M72 38.1875H73V41.125H72V38.1875Z" fill="#3B282F"/>
<path d="M73 41.125H74V77.8438H73V41.125Z" fill="#4D401F"/>
<path d="M62 45.5312H63V48.4688H62V45.5312Z" fill="#3B282F"/>
<path d="M63 48.4688H64V51.4062H63V48.4688Z" fill="#3B282F"/>
<path d="M64 51.4062H65V54.3438H64V51.4062Z" fill="#3B282F"/>
<path d="M65 54.3438H66V57.2812H65V54.3438Z" fill="#3B282F"/>
<path d="M66 57.2812H67V60.2188H66V57.2812Z" fill="#3B282F"/>
<path d="M67 60.2188H68V63.1562H67V60.2188Z" fill="#3B282F"/>
<path d="M68 63.1562H69V66.0938H68V63.1562Z" fill="#3B282F"/>
<path d="M69 66.0938H70V69.0312H69V66.0938Z" fill="#3B282F"/>
<path d="M70 69.0312H71V71.9688H70V69.0312Z" fill="#3B282F"/>
<path d="M71 71.9688H72V74.9062H71V71.9688Z" fill="#3B282F"/>
<path d="M72 74.9062H73V77.8438H72V74.9062Z" fill="#3B282F"/>
<path d="M1 45.5312H2V47H1V45.5312Z" fill="#3B282F"/>
<path d="M2 47H3V49.9375H2V47Z" fill="#3B282F"/>
<path d="M3 49.9375H4V51.4062H3V49.9375Z" fill="#3B282F"/>
<path d="M4 51.4062H5V54.3438H4V51.4062Z" fill="#3B282F"/>
<path d="M5 54.3438H6V55.8125H5V54.3438Z" fill="#3B282F"/>
<path d="M6 55.8125H7V58.75H6V55.8125Z" fill="#3B282F"/>
<path d="M7 58.75H8V60.2188H7V58.75Z" fill="#3B282F"/>
<path d="M8 60.2188H9V63.1562H8V60.2188Z" fill="#3B282F"/>
<path d="M9 63.1562H10V64.625H9V63.1562Z" fill="#3B282F"/>
<path d="M10 64.625H11V67.5625H10V64.625Z" fill="#3B282F"/>
<path d="M11 67.5625H12V69.0312H11V67.5625Z" fill="#3B282F"/>
<path d="M12 69.0312H13V71.9688H12V69.0312Z" fill="#3B282F"/>
<path d="M13 71.9688H14V73.4375H13V71.9688Z" fill="#3B282F"/>
<path d="M14 73.4375H15V76.375H14V73.4375Z" fill="#3B282F"/>
<path d="M15 76.375H16V77.8438H15V76.375Z" fill="#3B282F"/>
<path d="M16 77.8438H73V79.3125H16V77.8438Z" fill="#4D401F"/>
<path d="M2 45.5312H62V47H2V45.5312Z" fill="#8E764C"/>
<path d="M6 54.3438H65V55.8125H6V54.3438Z" fill="#8E764C"/>
<path d="M7 57.2812H66V58.75H7V57.2812Z" fill="#8E764C"/>
<path d="M8 58.75H66V60.2188H8V58.75Z" fill="#8E764C"/>
<path d="M9 61.6875H67V63.1562H9V61.6875Z" fill="#8E764C"/>
<path d="M10 63.1562H68V64.625H10V63.1562Z" fill="#8E764C"/>
<path d="M11 66.0938H69V67.5625H11V66.0938Z" fill="#8E764C"/>
<path d="M12 67.5625H69V69.0312H12V67.5625Z" fill="#8E764C"/>
<path d="M13 70.5H70V71.9688H13V70.5Z" fill="#8E764C"/>
<path d="M14 71.9688H71V73.4375H14V71.9688Z" fill="#8E764C"/>
<path d="M15 74.9062H72V76.375H15V74.9062Z" fill="#8E764C"/>
<path d="M16 76.375H72V77.8438H16V76.375Z" fill="#8E764C"/>
<path d="M5 51.4062H64V54.3438H5V51.4062Z" fill="#8E764C"/>
<path d="M3 47H62V48.4688H63V49.9375H3V47Z" fill="#8E764C"/>
<path d="M64 11.75H65V51.4062H64V11.75Z" fill="#79622D"/>
<path d="M68 23.5H67V60.2188H68V23.5Z" fill="#79622D"/>
<path d="M70 30.8438H69V66.0938H70V30.8438Z" fill="#79622D"/>
<path d="M72 36.7188H71V71.9688H72V36.7188Z" fill="#79622D"/>
<path d="M64 19.0938H65V47H64V19.0938Z" fill="#3B282F"/>
<path d="M65 45.5312H66V48.4688H65V45.5312Z" fill="#3B282F"/>
<path d="M65 19.0938H98V20.5625H65V19.0938Z" fill="#3B282F"/>
<path d="M98 19.0938H99V47H98V19.0938Z" fill="#3B282F"/>
<path d="M98 19.0938H99V47H98V19.0938Z" fill="#3B282F"/>
<rect x="65" y="20.5625" width="33" height="24.9688" fill="#A6906A"/>
<path d="M65 45.5312H66V47H65V45.5312Z" fill="#6C5725"/>
<path d="M97 45.5312H98V47H97V45.5312Z" fill="#6C5725"/>
<path d="M66 45.5312H97V47H66V45.5312Z" fill="#6C5725"/>
<path d="M69 20.5625H70V33.7812H69V20.5625Z" fill="#8E764C"/>
<path d="M70 23.5H93V24.9688H70V23.5Z" fill="#8E764C"/>
<path d="M70 27.9062H93V29.375H70V27.9062Z" fill="#8E764C"/>
<path d="M70 32.3125H93V33.7812H70V32.3125Z" fill="#8E764C"/>
<path d="M93 20.5625H94V33.7812H93V20.5625Z" fill="#8E764C"/>
<path d="M65 44.0625H66V45.5312H65V44.0625Z" fill="#8E764C"/>
<path d="M97 44.0625H98V45.5312H97V44.0625Z" fill="#8E764C"/>
<path d="M69 33.7812H70V45.5312H69V33.7812Z" fill="#8E764C"/>
<path d="M70 36.7188H93V38.1875H70V36.7188Z" fill="#8E764C"/>
<path d="M70 41.125H93V42.5938H70V41.125Z" fill="#8E764C"/>
<path d="M93 33.7812H94V45.5312H93V33.7812Z" fill="#8E764C"/>
<path d="M99 24.9688H100L101 29.375L102 32.3125L103 36.7188L104 39.6562L105 44.0625L106 47L107 51.4062L106.5 64.625H105L99 67.5625V24.9688Z" fill="#8E764C"/>
<path d="M101 32.3125H102V52.875H101V32.3125Z" fill="#79622D"/>
<path d="M105 44.0625H104V61.6875H105V44.0625Z" fill="#79622D"/>
<path d="M107 51.4062H106V67.5625H107V51.4062Z" fill="#4D401F"/>
<path d="M99 20.5625H100V24.9688H99V20.5625Z" fill="#3B282F"/>
<path d="M100 24.9688H101V29.375H100V24.9688Z" fill="#3B282F"/>
<path d="M101 29.375H102V32.3125H101V29.375Z" fill="#3B282F"/>
<path d="M102 32.3125H103V36.7188H102V32.3125Z" fill="#3B282F"/>
<path d="M103 36.7188H104V39.6562H103V36.7188Z" fill="#3B282F"/>
<path d="M104 39.6562H105V44.0625H104V39.6562Z" fill="#3B282F"/>
<path d="M105 44.0625H106V47H105V44.0625Z" fill="#3B282F"/>
<path d="M106 47H107V51.4062H106V47Z" fill="#4D401F"/>
<path d="M99 47H100V49.9375H99V47Z" fill="#3B282F"/>
<path d="M100 49.9375H101V52.875H100V49.9375Z" fill="#3B282F"/>
<path d="M101 52.875H102V55.8125H101V52.875Z" fill="#3B282F"/>
<path d="M102 55.8125H103V58.75H102V55.8125Z" fill="#3B282F"/>
<path d="M103 58.75H104V61.6875H103V58.75Z" fill="#3B282F"/>
<path d="M104 61.6875H105V64.625H104V61.6875Z" fill="#3B282F"/>
<path d="M65 47H66V48.4688H65V47Z" fill="#3B282F"/>
<path d="M66 48.4688H67V51.4062H66V48.4688Z" fill="#3B282F"/>
<path d="M67 51.4062H68V52.875H67V51.4062Z" fill="#3B282F"/>
<path d="M68 52.875H69V55.8125H68V52.875Z" fill="#3B282F"/>
<path d="M69 55.8125H70V57.2812H69V55.8125Z" fill="#3B282F"/>
<path d="M70 57.2812H71V60.2188H70V57.2812Z" fill="#3B282F"/>
<path d="M71 60.2188H72V61.6875H71V60.2188Z" fill="#3B282F"/>
<path d="M72 61.6875H73V64.625H72V61.6875Z" fill="#3B282F"/>
<path d="M73 64.625H74V67.5625H73V64.625Z" fill="#3B282F"/>
<path d="M105 64.625H106V67.5625H105V64.625Z" fill="#3B282F"/>
<path d="M96 19.0938H97V47H96V19.0938Z" fill="#3B282F"/>
<path d="M97 45.5312H98V48.4688H97V45.5312Z" fill="#3B282F"/>
<path d="M97 19.0938H130V20.5625H97V19.0938Z" fill="#3B282F"/>
<path d="M130 19.0938H131V47H130V19.0938Z" fill="#3B282F"/>
<path d="M130 19.0938H131V47H130V19.0938Z" fill="#3B282F"/>
<rect x="97" y="20.5625" width="33" height="24.9688" fill="#A6906A"/>
<path d="M97 45.5312H98V47H97V45.5312Z" fill="#6C5725"/>
<path d="M129 45.5312H130V47H129V45.5312Z" fill="#6C5725"/>
<path d="M98 45.5312H129V47H98V45.5312Z" fill="#6C5725"/>
<path d="M101 20.5625H102V33.7812H101V20.5625Z" fill="#8E764C"/>
<path d="M102 23.5H125V24.9688H102V23.5Z" fill="#8E764C"/>
<path d="M102 27.9062H125V29.375H102V27.9062Z" fill="#8E764C"/>
<path d="M102 32.3125H125V33.7812H102V32.3125Z" fill="#8E764C"/>
<path d="M125 20.5625H126V33.7812H125V20.5625Z" fill="#8E764C"/>
<path d="M97 44.0625H98V45.5312H97V44.0625Z" fill="#8E764C"/>
<path d="M129 44.0625H130V45.5312H129V44.0625Z" fill="#8E764C"/>
<path d="M101 33.7812H102V45.5312H101V33.7812Z" fill="#8E764C"/>
<path d="M102 36.7188H125V38.1875H102V36.7188Z" fill="#8E764C"/>
<path d="M102 41.125H125V42.5938H102V41.125Z" fill="#8E764C"/>
<path d="M125 33.7812H126V45.5312H125V33.7812Z" fill="#8E764C"/>
<path d="M131 24.9688H132L133 29.375L134 32.3125L135 36.7188L136 39.6562L137 44.0625L138 47L139 51.4062L138.5 64.625H137L131 67.5625V24.9688Z" fill="#8E764C"/>
<path d="M133 32.3125H134V52.875H133V32.3125Z" fill="#79622D"/>
<path d="M137 44.0625H136V61.6875H137V44.0625Z" fill="#79622D"/>
<path d="M139 51.4062H138V67.5625H139V51.4062Z" fill="#4D401F"/>
<path d="M131 20.5625H132V24.9688H131V20.5625Z" fill="#3B282F"/>
<path d="M132 24.9688H133V29.375H132V24.9688Z" fill="#3B282F"/>
<path d="M133 29.375H134V32.3125H133V29.375Z" fill="#3B282F"/>
<path d="M134 32.3125H135V36.7188H134V32.3125Z" fill="#3B282F"/>
<path d="M135 36.7188H136V39.6562H135V36.7188Z" fill="#3B282F"/>
<path d="M136 39.6562H137V44.0625H136V39.6562Z" fill="#3B282F"/>
<path d="M137 44.0625H138V47H137V44.0625Z" fill="#3B282F"/>
<path d="M138 47H139V51.4062H138V47Z" fill="#4D401F"/>
<path d="M131 47H132V49.9375H131V47Z" fill="#3B282F"/>
<path d="M132 49.9375H133V52.875H132V49.9375Z" fill="#3B282F"/>
<path d="M133 52.875H134V55.8125H133V52.875Z" fill="#3B282F"/>
<path d="M134 55.8125H135V58.75H134V55.8125Z" fill="#3B282F"/>
<path d="M135 58.75H136V61.6875H135V58.75Z" fill="#3B282F"/>
<path d="M136 61.6875H137V64.625H136V61.6875Z" fill="#3B282F"/>
<path d="M97 47H98V48.4688H97V47Z" fill="#3B282F"/>
<path d="M98 48.4688H99V51.4062H98V48.4688Z" fill="#3B282F"/>
<path d="M99 51.4062H100V52.875H99V51.4062Z" fill="#3B282F"/>
<path d="M100 52.875H101V55.8125H100V52.875Z" fill="#3B282F"/>
<path d="M101 55.8125H102V57.2812H101V55.8125Z" fill="#3B282F"/>
<path d="M102 57.2812H103V60.2188H102V57.2812Z" fill="#3B282F"/>
<path d="M103 60.2188H104V61.6875H103V60.2188Z" fill="#3B282F"/>
<path d="M104 61.6875H105V64.625H104V61.6875Z" fill="#3B282F"/>
<path d="M105 64.625H106V67.5625H105V64.625Z" fill="#3B282F"/>
<path d="M137 64.625H138V67.5625H137V64.625Z" fill="#3B282F"/>
<path d="M128 19.0938H129V47H128V19.0938Z" fill="#3B282F"/>
<path d="M129 45.5312H130V48.4688H129V45.5312Z" fill="#3B282F"/>
<path d="M129 19.0938H162V20.5625H129V19.0938Z" fill="#3B282F"/>
<path d="M162 19.0938H163V47H162V19.0938Z" fill="#3B282F"/>
<path d="M162 19.0938H163V47H162V19.0938Z" fill="#3B282F"/>
<rect x="129" y="20.5625" width="33" height="24.9688" fill="#A6906A"/>
<path d="M129 45.5312H130V47H129V45.5312Z" fill="#6C5725"/>
<path d="M161 45.5312H162V47H161V45.5312Z" fill="#6C5725"/>
<path d="M130 45.5312H161V47H130V45.5312Z" fill="#6C5725"/>
<path d="M133 20.5625H134V33.7812H133V20.5625Z" fill="#8E764C"/>
<path d="M134 23.5H157V24.9688H134V23.5Z" fill="#8E764C"/>
<path d="M134 27.9062H157V29.375H134V27.9062Z" fill="#8E764C"/>
<path d="M134 32.3125H157V33.7812H134V32.3125Z" fill="#8E764C"/>
<path d="M157 20.5625H158V33.7812H157V20.5625Z" fill="#8E764C"/>
<path d="M129 44.0625H130V45.5312H129V44.0625Z" fill="#8E764C"/>
<path d="M161 44.0625H162V45.5312H161V44.0625Z" fill="#8E764C"/>
<path d="M133 33.7812H134V45.5312H133V33.7812Z" fill="#8E764C"/>
<path d="M134 36.7188H157V38.1875H134V36.7188Z" fill="#8E764C"/>
<path d="M134 41.125H157V42.5938H134V41.125Z" fill="#8E764C"/>
<path d="M157 33.7812H158V45.5312H157V33.7812Z" fill="#8E764C"/>
<path d="M163 24.9688H164L165 29.375L166 32.3125L167 36.7188L168 39.6562L169 44.0625L170 47L171 51.4062L170.5 64.625H169L163 67.5625V24.9688Z" fill="#8E764C"/>
<path d="M165 32.3125H166V52.875H165V32.3125Z" fill="#79622D"/>
<path d="M169 44.0625H168V61.6875H169V44.0625Z" fill="#79622D"/>
<path d="M171 51.4062H170V67.5625H171V51.4062Z" fill="#4D401F"/>
<path d="M163 20.5625H164V24.9688H163V20.5625Z" fill="#3B282F"/>
<path d="M164 24.9688H165V29.375H164V24.9688Z" fill="#3B282F"/>
<path d="M165 29.375H166V32.3125H165V29.375Z" fill="#3B282F"/>
<path d="M166 32.3125H167V36.7188H166V32.3125Z" fill="#3B282F"/>
<path d="M167 36.7188H168V39.6562H167V36.7188Z" fill="#3B282F"/>
<path d="M168 39.6562H169V44.0625H168V39.6562Z" fill="#3B282F"/>
<path d="M169 44.0625H170V47H169V44.0625Z" fill="#3B282F"/>
<path d="M170 47H171V51.4062H170V47Z" fill="#4D401F"/>
<path d="M163 47H164V49.9375H163V47Z" fill="#3B282F"/>
<path d="M164 49.9375H165V52.875H164V49.9375Z" fill="#3B282F"/>
<path d="M165 52.875H166V55.8125H165V52.875Z" fill="#3B282F"/>
<path d="M166 55.8125H167V58.75H166V55.8125Z" fill="#3B282F"/>
<path d="M167 58.75H168V61.6875H167V58.75Z" fill="#3B282F"/>
<path d="M168 61.6875H169V64.625H168V61.6875Z" fill="#3B282F"/>
<path d="M129 47H130V48.4688H129V47Z" fill="#3B282F"/>
<path d="M130 48.4688H131V51.4062H130V48.4688Z" fill="#3B282F"/>
<path d="M131 51.4062H132V52.875H131V51.4062Z" fill="#3B282F"/>
<path d="M132 52.875H133V55.8125H132V52.875Z" fill="#3B282F"/>
<path d="M133 55.8125H134V57.2812H133V55.8125Z" fill="#3B282F"/>
<path d="M134 57.2812H135V60.2188H134V57.2812Z" fill="#3B282F"/>
<path d="M135 60.2188H136V61.6875H135V60.2188Z" fill="#3B282F"/>
<path d="M136 61.6875H137V64.625H136V61.6875Z" fill="#3B282F"/>
<path d="M137 64.625H138V67.5625H137V64.625Z" fill="#3B282F"/>
<path d="M169 64.625H170V67.5625H169V64.625Z" fill="#3B282F"/>
<path d="M364 0H363V45.5312H364V0Z" fill="#3B282F"/>
<path d="M363 44.0625H362V47H363V44.0625Z" fill="#3B282F"/>
<path d="M304 44.0625H303V45.5312H304V44.0625Z" fill="#3B282F"/>
<path d="M363 0H303V1.46875H363V0Z" fill="#3B282F"/>
<path d="M303 0H302V45.5312H303V0Z" fill="#3B282F"/>
<path d="M303 0H302V45.5312H303V0Z" fill="#3B282F"/>
<rect width="60" height="42.5938" transform="matrix(-1 0 0 1 363 1.46875)" fill="#A6906A"/>
<path d="M363 44.0625H362V45.5312H363V44.0625Z" fill="#6C5725"/>
<path d="M304 44.0625H303V45.5312H304V44.0625Z" fill="#6C5725"/>
<path d="M362 44.0625H304V45.5312H362V44.0625Z" fill="#6C5725"/>
<path d="M359 1.46875H358V44.0625H359V1.46875Z" fill="#8E764C"/>
<path d="M358 7.34375H308V8.8125H358V7.34375Z" fill="#8E764C"/>
<path d="M358 14.6875H308V16.1562H358V14.6875Z" fill="#8E764C"/>
<path d="M358 22.0312H308V23.5H358V22.0312Z" fill="#8E764C"/>
<path d="M358 29.375H308V30.8438H358V29.375Z" fill="#8E764C"/>
<path d="M358 36.7188H308V38.1875H358V36.7188Z" fill="#8E764C"/>
<path d="M308 1.46875H307V44.0625H308V1.46875Z" fill="#8E764C"/>
<path d="M363 42.5938H362V44.0625H363V42.5938Z" fill="#8E764C"/>
<path d="M304 42.5938H303V44.0625H304V42.5938Z" fill="#8E764C"/>
<path d="M302 4.40625H301L300 8.8125L299 11.75L298 16.1562L297 19.0938L296 23.5L295 26.4375L294 30.8438L293 33.7812L292 38.1875L291 41.125V74.9062H302V4.40625Z" fill="#8E764C"/>
<path d="M302 0H301V4.40625H302V0Z" fill="#3B282F"/>
<path d="M301 4.40625H300V8.8125H301V4.40625Z" fill="#3B282F"/>
<path d="M300 8.8125H299V11.75H300V8.8125Z" fill="#3B282F"/>
<path d="M299 11.75H298V16.1562H299V11.75Z" fill="#3B282F"/>
<path d="M298 16.1562H297V19.0938H298V16.1562Z" fill="#3B282F"/>
<path d="M297 19.0938H296V23.5H297V19.0938Z" fill="#3B282F"/>
<path d="M296 23.5H295V26.4375H296V23.5Z" fill="#3B282F"/>
<path d="M295 26.4375H294V30.8438H295V26.4375Z" fill="#3B282F"/>
<path d="M294 30.8438H293V33.7812H294V30.8438Z" fill="#3B282F"/>
<path d="M293 33.7812H292V38.1875H293V33.7812Z" fill="#3B282F"/>
<path d="M292 38.1875H291V41.125H292V38.1875Z" fill="#3B282F"/>
<path d="M291 41.125H290V77.8438H291V41.125Z" fill="#4D401F"/>
<path d="M302 45.5312H301V48.4688H302V45.5312Z" fill="#3B282F"/>
<path d="M301 48.4688H300V51.4062H301V48.4688Z" fill="#3B282F"/>
<path d="M300 51.4062H299V54.3438H300V51.4062Z" fill="#3B282F"/>
<path d="M299 54.3438H298V57.2812H299V54.3438Z" fill="#3B282F"/>
<path d="M298 57.2812H297V60.2188H298V57.2812Z" fill="#3B282F"/>
<path d="M297 60.2188H296V63.1562H297V60.2188Z" fill="#3B282F"/>
<path d="M296 63.1562H295V66.0938H296V63.1562Z" fill="#3B282F"/>
<path d="M295 66.0938H294V69.0312H295V66.0938Z" fill="#3B282F"/>
<path d="M294 69.0312H293V71.9688H294V69.0312Z" fill="#3B282F"/>
<path d="M293 71.9688H292V74.9062H293V71.9688Z" fill="#3B282F"/>
<path d="M292 74.9062H291V77.8438H292V74.9062Z" fill="#3B282F"/>
<path d="M363 45.5312H362V47H363V45.5312Z" fill="#3B282F"/>
<path d="M362 47H361V49.9375H362V47Z" fill="#3B282F"/>
<path d="M361 49.9375H360V51.4062H361V49.9375Z" fill="#3B282F"/>
<path d="M360 51.4062H359V54.3438H360V51.4062Z" fill="#3B282F"/>
<path d="M359 54.3438H358V55.8125H359V54.3438Z" fill="#3B282F"/>
<path d="M358 55.8125H357V58.75H358V55.8125Z" fill="#3B282F"/>
<path d="M357 58.75H356V60.2188H357V58.75Z" fill="#3B282F"/>
<path d="M356 60.2188H355V63.1562H356V60.2188Z" fill="#3B282F"/>
<path d="M355 63.1562H354V64.625H355V63.1562Z" fill="#3B282F"/>
<path d="M354 64.625H353V67.5625H354V64.625Z" fill="#3B282F"/>
<path d="M353 67.5625H352V69.0312H353V67.5625Z" fill="#3B282F"/>
<path d="M352 69.0312H351V71.9688H352V69.0312Z" fill="#3B282F"/>
<path d="M351 71.9688H350V73.4375H351V71.9688Z" fill="#3B282F"/>
<path d="M350 73.4375H349V76.375H350V73.4375Z" fill="#3B282F"/>
<path d="M349 76.375H348V77.8438H349V76.375Z" fill="#3B282F"/>
<path d="M348 77.8438H291V79.3125H348V77.8438Z" fill="#4D401F"/>
<path d="M362 45.5312H302V47H362V45.5312Z" fill="#8E764C"/>
<path d="M358 54.3438H299V55.8125H358V54.3438Z" fill="#8E764C"/>
<path d="M357 57.2812H298V58.75H357V57.2812Z" fill="#8E764C"/>
<path d="M356 58.75H298V60.2188H356V58.75Z" fill="#8E764C"/>
<path d="M355 61.6875H297V63.1562H355V61.6875Z" fill="#8E764C"/>
<path d="M354 63.1562H296V64.625H354V63.1562Z" fill="#8E764C"/>
<path d="M353 66.0938H295V67.5625H353V66.0938Z" fill="#8E764C"/>
<path d="M352 67.5625H295V69.0312H352V67.5625Z" fill="#8E764C"/>
<path d="M351 70.5H294V71.9688H351V70.5Z" fill="#8E764C"/>
<path d="M350 71.9688H293V73.4375H350V71.9688Z" fill="#8E764C"/>
<path d="M349 74.9062H292V76.375H349V74.9062Z" fill="#8E764C"/>
<path d="M348 76.375H292V77.8438H348V76.375Z" fill="#8E764C"/>
<path d="M359 51.4062H300V54.3438H359V51.4062Z" fill="#8E764C"/>
<path d="M361 47H302V48.4688H301V49.9375H361V47Z" fill="#8E764C"/>
<path d="M300 11.75H299V51.4062H300V11.75Z" fill="#79622D"/>
<path d="M296 23.5H297V60.2188H296V23.5Z" fill="#79622D"/>
<path d="M294 30.8438H295V66.0938H294V30.8438Z" fill="#79622D"/>
<path d="M292 36.7188H293V71.9688H292V36.7188Z" fill="#79622D"/>
<path d="M300 19.0938H299V47H300V19.0938Z" fill="#3B282F"/>
<path d="M299 45.5312H298V48.4688H299V45.5312Z" fill="#3B282F"/>
<path d="M299 19.0938H266V20.5625H299V19.0938Z" fill="#3B282F"/>
<path d="M266 19.0938H265V47H266V19.0938Z" fill="#3B282F"/>
<path d="M266 19.0938H265V47H266V19.0938Z" fill="#3B282F"/>
<rect width="33" height="24.9688" transform="matrix(-1 0 0 1 299 20.5625)" fill="#A6906A"/>
<path d="M299 45.5312H298V47H299V45.5312Z" fill="#6C5725"/>
<path d="M267 45.5312H266V47H267V45.5312Z" fill="#6C5725"/>
<path d="M298 45.5312H267V47H298V45.5312Z" fill="#6C5725"/>
<path d="M295 20.5625H294V33.7812H295V20.5625Z" fill="#8E764C"/>
<path d="M294 23.5H271V24.9688H294V23.5Z" fill="#8E764C"/>
<path d="M294 27.9062H271V29.375H294V27.9062Z" fill="#8E764C"/>
<path d="M294 32.3125H271V33.7812H294V32.3125Z" fill="#8E764C"/>
<path d="M271 20.5625H270V33.7812H271V20.5625Z" fill="#8E764C"/>
<path d="M299 44.0625H298V45.5312H299V44.0625Z" fill="#8E764C"/>
<path d="M267 44.0625H266V45.5312H267V44.0625Z" fill="#8E764C"/>
<path d="M295 33.7812H294V45.5312H295V33.7812Z" fill="#8E764C"/>
<path d="M294 36.7188H271V38.1875H294V36.7188Z" fill="#8E764C"/>
<path d="M294 41.125H271V42.5938H294V41.125Z" fill="#8E764C"/>
<path d="M271 33.7812H270V45.5312H271V33.7812Z" fill="#8E764C"/>
<path d="M265 24.9688H264L263 29.375L262 32.3125L261 36.7188L260 39.6562L259 44.0625L258 47L257 51.4062L257.5 64.625H259L265 67.5625V24.9688Z" fill="#8E764C"/>
<path d="M263 32.3125H262V52.875H263V32.3125Z" fill="#79622D"/>
<path d="M259 44.0625H260V61.6875H259V44.0625Z" fill="#79622D"/>
<path d="M257 51.4062H258V67.5625H257V51.4062Z" fill="#4D401F"/>
<path d="M265 20.5625H264V24.9688H265V20.5625Z" fill="#3B282F"/>
<path d="M264 24.9688H263V29.375H264V24.9688Z" fill="#3B282F"/>
<path d="M263 29.375H262V32.3125H263V29.375Z" fill="#3B282F"/>
<path d="M262 32.3125H261V36.7188H262V32.3125Z" fill="#3B282F"/>
<path d="M261 36.7188H260V39.6562H261V36.7188Z" fill="#3B282F"/>
<path d="M260 39.6562H259V44.0625H260V39.6562Z" fill="#3B282F"/>
<path d="M259 44.0625H258V47H259V44.0625Z" fill="#3B282F"/>
<path d="M258 47H257V51.4062H258V47Z" fill="#4D401F"/>
<path d="M265 47H264V49.9375H265V47Z" fill="#3B282F"/>
<path d="M264 49.9375H263V52.875H264V49.9375Z" fill="#3B282F"/>
<path d="M263 52.875H262V55.8125H263V52.875Z" fill="#3B282F"/>
<path d="M262 55.8125H261V58.75H262V55.8125Z" fill="#3B282F"/>
<path d="M261 58.75H260V61.6875H261V58.75Z" fill="#3B282F"/>
<path d="M260 61.6875H259V64.625H260V61.6875Z" fill="#3B282F"/>
<path d="M299 47H298V48.4688H299V47Z" fill="#3B282F"/>
<path d="M298 48.4688H297V51.4062H298V48.4688Z" fill="#3B282F"/>
<path d="M297 51.4062H296V52.875H297V51.4062Z" fill="#3B282F"/>
<path d="M296 52.875H295V55.8125H296V52.875Z" fill="#3B282F"/>
<path d="M295 55.8125H294V57.2812H295V55.8125Z" fill="#3B282F"/>
<path d="M294 57.2812H293V60.2188H294V57.2812Z" fill="#3B282F"/>
<path d="M293 60.2188H292V61.6875H293V60.2188Z" fill="#3B282F"/>
<path d="M292 61.6875H291V64.625H292V61.6875Z" fill="#3B282F"/>
<path d="M291 64.625H290V67.5625H291V64.625Z" fill="#3B282F"/>
<path d="M259 64.625H258V67.5625H259V64.625Z" fill="#3B282F"/>
<path d="M268 19.0938H267V47H268V19.0938Z" fill="#3B282F"/>
<path d="M267 45.5312H266V48.4688H267V45.5312Z" fill="#3B282F"/>
<path d="M267 19.0938H234V20.5625H267V19.0938Z" fill="#3B282F"/>
<path d="M234 19.0938H233V47H234V19.0938Z" fill="#3B282F"/>
<path d="M234 19.0938H233V47H234V19.0938Z" fill="#3B282F"/>
<rect width="33" height="24.9688" transform="matrix(-1 0 0 1 267 20.5625)" fill="#A6906A"/>
<path d="M267 45.5312H266V47H267V45.5312Z" fill="#6C5725"/>
<path d="M235 45.5312H234V47H235V45.5312Z" fill="#6C5725"/>
<path d="M266 45.5312H235V47H266V45.5312Z" fill="#6C5725"/>
<path d="M263 20.5625H262V33.7812H263V20.5625Z" fill="#8E764C"/>
<path d="M262 23.5H239V24.9688H262V23.5Z" fill="#8E764C"/>
<path d="M262 27.9062H239V29.375H262V27.9062Z" fill="#8E764C"/>
<path d="M262 32.3125H239V33.7812H262V32.3125Z" fill="#8E764C"/>
<path d="M239 20.5625H238V33.7812H239V20.5625Z" fill="#8E764C"/>
<path d="M267 44.0625H266V45.5312H267V44.0625Z" fill="#8E764C"/>
<path d="M235 44.0625H234V45.5312H235V44.0625Z" fill="#8E764C"/>
<path d="M263 33.7812H262V45.5312H263V33.7812Z" fill="#8E764C"/>
<path d="M262 36.7188H239V38.1875H262V36.7188Z" fill="#8E764C"/>
<path d="M262 41.125H239V42.5938H262V41.125Z" fill="#8E764C"/>
<path d="M239 33.7812H238V45.5312H239V33.7812Z" fill="#8E764C"/>
<path d="M233 24.9688H232L231 29.375L230 32.3125L229 36.7188L228 39.6562L227 44.0625L226 47L225 51.4062L225.5 64.625H227L233 67.5625V24.9688Z" fill="#8E764C"/>
<path d="M231 32.3125H230V52.875H231V32.3125Z" fill="#79622D"/>
<path d="M227 44.0625H228V61.6875H227V44.0625Z" fill="#79622D"/>
<path d="M225 51.4062H226V67.5625H225V51.4062Z" fill="#4D401F"/>
<path d="M233 20.5625H232V24.9688H233V20.5625Z" fill="#3B282F"/>
<path d="M232 24.9688H231V29.375H232V24.9688Z" fill="#3B282F"/>
<path d="M231 29.375H230V32.3125H231V29.375Z" fill="#3B282F"/>
<path d="M230 32.3125H229V36.7188H230V32.3125Z" fill="#3B282F"/>
<path d="M229 36.7188H228V39.6562H229V36.7188Z" fill="#3B282F"/>
<path d="M228 39.6562H227V44.0625H228V39.6562Z" fill="#3B282F"/>
<path d="M227 44.0625H226V47H227V44.0625Z" fill="#3B282F"/>
<path d="M226 47H225V51.4062H226V47Z" fill="#4D401F"/>
<path d="M233 47H232V49.9375H233V47Z" fill="#3B282F"/>
<path d="M232 49.9375H231V52.875H232V49.9375Z" fill="#3B282F"/>
<path d="M231 52.875H230V55.8125H231V52.875Z" fill="#3B282F"/>
<path d="M230 55.8125H229V58.75H230V55.8125Z" fill="#3B282F"/>
<path d="M229 58.75H228V61.6875H229V58.75Z" fill="#3B282F"/>
<path d="M228 61.6875H227V64.625H228V61.6875Z" fill="#3B282F"/>
<path d="M267 47H266V48.4688H267V47Z" fill="#3B282F"/>
<path d="M266 48.4688H265V51.4062H266V48.4688Z" fill="#3B282F"/>
<path d="M265 51.4062H264V52.875H265V51.4062Z" fill="#3B282F"/>
<path d="M264 52.875H263V55.8125H264V52.875Z" fill="#3B282F"/>
<path d="M263 55.8125H262V57.2812H263V55.8125Z" fill="#3B282F"/>
<path d="M262 57.2812H261V60.2188H262V57.2812Z" fill="#3B282F"/>
<path d="M261 60.2188H260V61.6875H261V60.2188Z" fill="#3B282F"/>
<path d="M260 61.6875H259V64.625H260V61.6875Z" fill="#3B282F"/>
<path d="M259 64.625H258V67.5625H259V64.625Z" fill="#3B282F"/>
<path d="M227 64.625H226V67.5625H227V64.625Z" fill="#3B282F"/>
<path d="M236 19.0938H235V47H236V19.0938Z" fill="#3B282F"/>
<path d="M235 45.5312H234V48.4688H235V45.5312Z" fill="#3B282F"/>
<path d="M235 19.0938H202V20.5625H235V19.0938Z" fill="#3B282F"/>
<path d="M202 19.0938H201V47H202V19.0938Z" fill="#3B282F"/>
<path d="M202 19.0938H201V47H202V19.0938Z" fill="#3B282F"/>
<rect width="33" height="24.9688" transform="matrix(-1 0 0 1 235 20.5625)" fill="#A6906A"/>
<path d="M235 45.5312H234V47H235V45.5312Z" fill="#6C5725"/>
<path d="M203 45.5312H202V47H203V45.5312Z" fill="#6C5725"/>
<path d="M234 45.5312H203V47H234V45.5312Z" fill="#6C5725"/>
<path d="M231 20.5625H230V33.7812H231V20.5625Z" fill="#8E764C"/>
<path d="M230 23.5H207V24.9688H230V23.5Z" fill="#8E764C"/>
<path d="M230 27.9062H207V29.375H230V27.9062Z" fill="#8E764C"/>
<path d="M230 32.3125H207V33.7812H230V32.3125Z" fill="#8E764C"/>
<path d="M207 20.5625H206V33.7812H207V20.5625Z" fill="#8E764C"/>
<path d="M235 44.0625H234V45.5312H235V44.0625Z" fill="#8E764C"/>
<path d="M203 44.0625H202V45.5312H203V44.0625Z" fill="#8E764C"/>
<path d="M231 33.7812H230V45.5312H231V33.7812Z" fill="#8E764C"/>
<path d="M230 36.7188H207V38.1875H230V36.7188Z" fill="#8E764C"/>
<path d="M230 41.125H207V42.5938H230V41.125Z" fill="#8E764C"/>
<path d="M207 33.7812H206V45.5312H207V33.7812Z" fill="#8E764C"/>
<path d="M201 24.9688H200L199 29.375L198 32.3125L197 36.7188L196 39.6562L195 44.0625L194 47L193 51.4062L193.5 64.625H195L201 67.5625V24.9688Z" fill="#8E764C"/>
<path d="M199 32.3125H198V52.875H199V32.3125Z" fill="#79622D"/>
<path d="M195 44.0625H196V61.6875H195V44.0625Z" fill="#79622D"/>
<path d="M193 51.4062H194V67.5625H193V51.4062Z" fill="#4D401F"/>
<path d="M201 20.5625H200V24.9688H201V20.5625Z" fill="#3B282F"/>
<path d="M200 24.9688H199V29.375H200V24.9688Z" fill="#3B282F"/>
<path d="M199 29.375H198V32.3125H199V29.375Z" fill="#3B282F"/>
<path d="M198 32.3125H197V36.7188H198V32.3125Z" fill="#3B282F"/>
<path d="M197 36.7188H196V39.6562H197V36.7188Z" fill="#3B282F"/>
<path d="M196 39.6562H195V44.0625H196V39.6562Z" fill="#3B282F"/>
<path d="M195 44.0625H194V47H195V44.0625Z" fill="#3B282F"/>
<path d="M194 47H193V51.4062H194V47Z" fill="#4D401F"/>
<path d="M201 47H200V49.9375H201V47Z" fill="#3B282F"/>
<path d="M200 49.9375H199V52.875H200V49.9375Z" fill="#3B282F"/>
<path d="M199 52.875H198V55.8125H199V52.875Z" fill="#3B282F"/>
<path d="M198 55.8125H197V58.75H198V55.8125Z" fill="#3B282F"/>
<path d="M197 58.75H196V61.6875H197V58.75Z" fill="#3B282F"/>
<path d="M196 61.6875H195V64.625H196V61.6875Z" fill="#3B282F"/>
<path d="M235 47H234V48.4688H235V47Z" fill="#3B282F"/>
<path d="M234 48.4688H233V51.4062H234V48.4688Z" fill="#3B282F"/>
<path d="M233 51.4062H232V52.875H233V51.4062Z" fill="#3B282F"/>
<path d="M232 52.875H231V55.8125H232V52.875Z" fill="#3B282F"/>
<path d="M231 55.8125H230V57.2812H231V55.8125Z" fill="#3B282F"/>
<path d="M230 57.2812H229V60.2188H230V57.2812Z" fill="#3B282F"/>
<path d="M229 60.2188H228V61.6875H229V60.2188Z" fill="#3B282F"/>
<path d="M228 61.6875H227V64.625H228V61.6875Z" fill="#3B282F"/>
<path d="M227 64.625H226V67.5625H227V64.625Z" fill="#3B282F"/>
<path d="M195 64.625H194V67.5625H195V64.625Z" fill="#3B282F"/>
<rect x="163" y="20.5625" width="38" height="24.9688" fill="#A6906A"/>
<path d="M163 45.5312H164V47H163V45.5312Z" fill="#6C5725"/>
<path d="M200 45.5312H201V47H200V45.5312Z" fill="#6C5725"/>
<path d="M164 45.5312H200V47H164V45.5312Z" fill="#6C5725"/>
<path d="M169 20.5625H170V33.7812H169V20.5625Z" fill="#8E764C"/>
<path d="M170 23.5H193V24.9688H170V23.5Z" fill="#8E764C"/>
<path d="M170 27.9062H193V29.375H170V27.9062Z" fill="#8E764C"/>
<path d="M170 32.3125H193V33.7812H170V32.3125Z" fill="#8E764C"/>
<path d="M193 20.5625H194V33.7812H193V20.5625Z" fill="#8E764C"/>
<path d="M163 44.0625H164V45.5312H163V44.0625Z" fill="#8E764C"/>
<path d="M200 44.0625H201V45.5312H200V44.0625Z" fill="#8E764C"/>
<path d="M169 33.7812H170V45.5312H169V33.7812Z" fill="#8E764C"/>
<path d="M170 36.7188H193V38.1875H170V36.7188Z" fill="#8E764C"/>
<path d="M170 41.125H193V42.5938H170V41.125Z" fill="#8E764C"/>
<path d="M193 33.7812H194V45.5312H193V33.7812Z" fill="#8E764C"/>
<rect x="163" y="19.0938" width="38" height="1.46875" fill="#3B282F"/>
</g>
</svg>
